<?xml version="1.0" encoding="utf-8"?>
<!-- Generator: Adobe Illustrator 27.6.0, SVG Export Plug-In . SVG Version: 6.00 Build 0)  -->
<svg version="1.1" id="Layer_1" xmlns="http://www.w3.org/2000/svg" xmlns:xlink="http://www.w3.org/1999/xlink" x="0px" y="0px"
	 viewBox="0 0 176.2 147.9" style="enable-background:new 0 0 176.2 147.9;" xml:space="preserve">
<style type="text/css">
	.st0{fill:#010068;}
	.st1{fill:#E50841;}
</style>
<g>
	<g id="Layer_1_00000169553133753200073300000010229457265528326847_">
		<g>
			<path class="st0" d="M16.3,115.4c-1.7,0-2.9,0.5-3.6,1.4c-0.7,0.9-1.1,2.2-1.1,3.8c0,0.8,0.1,1.5,0.3,2.1
				c0.2,0.6,0.5,1.2,0.8,1.6c0.4,0.5,0.8,0.8,1.4,1.1s1.2,0.4,1.9,0.4c0.4,0,0.7,0,1,0c0.3,0,0.5-0.1,0.8-0.1v-5.5h3.6v7.9
				c-0.4,0.2-1.1,0.4-2.1,0.5c-1,0.2-2.1,0.3-3.5,0.3c-1.2,0-2.3-0.2-3.2-0.6s-1.8-0.9-2.5-1.6s-1.2-1.6-1.6-2.6
				c-0.4-1-0.6-2.2-0.6-3.5s0.2-2.5,0.6-3.5c0.4-1,1-1.9,1.7-2.6s1.6-1.2,2.5-1.6c1-0.4,2-0.6,3.1-0.6c0.8,0,1.4,0.1,2,0.2
				s1.1,0.2,1.6,0.3c0.4,0.1,0.8,0.3,1.1,0.4c0.3,0.1,0.5,0.2,0.6,0.3l-1,2.9c-0.5-0.3-1-0.5-1.7-0.7S17,115.4,16.3,115.4
				L16.3,115.4z"/>
			<path class="st0" d="M31.7,119.5c-0.3-0.1-0.7-0.2-1.1-0.2c-0.4-0.1-0.9-0.1-1.3-0.1c-0.2,0-0.5,0-0.8,0.1s-0.5,0.1-0.7,0.1v9.2
				h-3.4v-11.4c0.6-0.2,1.3-0.4,2.2-0.6s1.8-0.3,2.8-0.3c0.2,0,0.4,0,0.7,0s0.5,0.1,0.8,0.1c0.3,0,0.5,0.1,0.8,0.1
				c0.3,0.1,0.5,0.1,0.7,0.2L31.7,119.5L31.7,119.5z"/>
			<path class="st0" d="M38.2,116.2c1,0,1.9,0.1,2.5,0.3c0.7,0.2,1.2,0.6,1.6,1s0.7,0.9,0.9,1.6c0.2,0.6,0.2,1.3,0.2,2.1v7.1
				c-0.5,0.1-1.2,0.2-2,0.4s-1.9,0.2-3.2,0.2c-0.8,0-1.5-0.1-2.1-0.2s-1.2-0.4-1.6-0.7c-0.5-0.3-0.8-0.7-1.1-1.2s-0.4-1.1-0.4-1.9
				s0.1-1.3,0.4-1.8c0.3-0.5,0.7-0.9,1.1-1.2c0.5-0.3,1-0.5,1.6-0.6s1.2-0.2,1.9-0.2c0.4,0,0.8,0,1.2,0.1s0.6,0.1,0.8,0.2V121
				c0-0.6-0.2-1.1-0.5-1.4s-1-0.5-1.8-0.5c-0.6,0-1.2,0-1.7,0.1s-1.1,0.2-1.5,0.4l-0.4-2.8c0.2-0.1,0.5-0.1,0.8-0.2s0.6-0.1,1-0.2
				c0.3-0.1,0.7-0.1,1.1-0.1S37.8,116.2,38.2,116.2L38.2,116.2z M38.5,126.2c0.3,0,0.7,0,1,0c0.3,0,0.5,0,0.7-0.1v-2.6
				c-0.1,0-0.3-0.1-0.6-0.1s-0.5-0.1-0.8-0.1c-0.3,0-0.6,0-0.9,0.1c-0.3,0-0.5,0.1-0.8,0.2c-0.2,0.1-0.4,0.2-0.5,0.4
				c-0.1,0.2-0.2,0.4-0.2,0.7c0,0.5,0.2,0.9,0.5,1.1S37.9,126.2,38.5,126.2L38.5,126.2z"/>
			<path class="st0" d="M46.8,128.6v-15.9h10.7v3h-7.1v3.3h6.3v3h-6.3v6.6L46.8,128.6L46.8,128.6z"/>
			<path class="st0" d="M64.4,119.9l2.4-3.4h3.5l-4.2,5.9c1,1.1,1.8,2.2,2.6,3.3s1.3,2.1,1.8,2.9h-3.7c-0.1-0.2-0.3-0.5-0.5-0.9
				c-0.2-0.3-0.4-0.7-0.6-1.1c-0.2-0.4-0.5-0.7-0.7-1c-0.2-0.3-0.5-0.5-0.7-0.7c-0.2,0.2-0.5,0.4-0.7,0.7s-0.5,0.5-0.7,0.9
				s-0.4,0.7-0.6,1.1c-0.2,0.3-0.4,0.7-0.6,1h-3.5c0.2-0.4,0.4-0.8,0.8-1.3s0.7-1.1,1-1.6c0.4-0.6,0.8-1.1,1.2-1.6
				c0.4-0.5,0.9-1,1.3-1.5c-0.8-1.1-1.5-2.1-2.2-3.1c-0.7-1-1.4-2-2.1-2.9H62L64.4,119.9L64.4,119.9z"/>
		</g>
	</g>
</g>
<g>
	<path class="st1" d="M129,23.5C102.1,45,82.2,38.1,55.4,16.6c21.5,26.8,25.4,49.2,4,76.1c1.1-0.8,2.1-1.6,3.2-2.5l27.9-27.5
		l-6.9,17.1c17.2-4.2,33.8,2.5,52.3,17.2C114.4,70.3,107.5,50.4,129,23.5z M98.6,68.2l-4.5-9.4l-9.4-1.5l19.3-12L98.6,68.2z"/>
</g>
<g>
	<path class="st0" d="M78.1,112.4c2.2,0,4,0.4,5.2,1.3c1.2,0.9,1.8,2.1,1.8,3.8c0,0.9-0.2,1.7-0.5,2.4s-0.8,1.2-1.4,1.6
		c-0.6,0.4-1.4,0.7-2.3,0.9c-0.9,0.2-1.9,0.3-3,0.3h-1.8v5.9h-2.2v-15.8c0.6-0.2,1.3-0.3,2.1-0.3S77.4,112.4,78.1,112.4z
		 M78.3,114.4c-1,0-1.7,0-2.2,0.1v6.3h1.7c0.8,0,1.5,0,2.1-0.2c0.6-0.1,1.1-0.3,1.6-0.5c0.4-0.2,0.8-0.6,1-1s0.3-0.9,0.3-1.6
		c0-0.6-0.1-1.1-0.4-1.5s-0.6-0.7-1-1c-0.4-0.2-0.9-0.4-1.4-0.5C79.4,114.4,78.9,114.4,78.3,114.4z"/>
	<path class="st0" d="M97.3,128.3c-0.5,0.1-1.1,0.3-2,0.4c-0.8,0.1-1.7,0.2-2.8,0.2c-0.9,0-1.7-0.1-2.3-0.4
		c-0.6-0.3-1.1-0.7-1.5-1.1c-0.4-0.5-0.7-1.1-0.8-1.7c-0.2-0.7-0.3-1.4-0.3-2.2v-6.7h2.1v6.3c0,1.5,0.2,2.5,0.7,3.1
		c0.5,0.6,1.2,0.9,2.3,0.9c0.2,0,0.5,0,0.7,0c0.2,0,0.5,0,0.7-0.1c0.2,0,0.4,0,0.6-0.1c0.2,0,0.3,0,0.4-0.1v-10.1h2.1V128.3z"/>
	<path class="st0" d="M103.1,117.1c0.3-0.2,0.7-0.3,1.2-0.5c0.5-0.2,1.1-0.3,1.8-0.3c0.9,0,1.6,0.2,2.3,0.5c0.7,0.3,1.2,0.7,1.7,1.3
		s0.8,1.2,1,2c0.2,0.8,0.4,1.6,0.4,2.5c0,1-0.1,1.8-0.4,2.6c-0.3,0.8-0.7,1.4-1.2,2s-1.2,1-1.9,1.2c-0.7,0.3-1.6,0.4-2.5,0.4
		c-1,0-1.9-0.1-2.7-0.2c-0.8-0.1-1.4-0.3-1.9-0.4V111l2.1-0.4V117.1z M103.1,126.7c0.2,0.1,0.5,0.1,0.9,0.2s0.9,0.1,1.5,0.1
		c1.2,0,2.1-0.4,2.8-1.1c0.7-0.8,1-1.8,1-3.2c0-0.6-0.1-1.2-0.2-1.7c-0.1-0.5-0.3-1-0.6-1.4c-0.3-0.4-0.6-0.7-1.1-0.9
		c-0.4-0.2-1-0.3-1.6-0.3c-0.6,0-1.1,0.1-1.6,0.3c-0.5,0.2-0.9,0.4-1.1,0.6V126.7z"/>
	<path class="st0" d="M118.2,128.8c-1.3,0-2.3-0.3-2.8-0.9c-0.6-0.5-0.8-1.4-0.8-2.5V111l2.1-0.4v14.4c0,0.4,0,0.6,0.1,0.9
		c0.1,0.2,0.2,0.4,0.3,0.6c0.1,0.1,0.3,0.2,0.6,0.3c0.2,0.1,0.5,0.1,0.9,0.2L118.2,128.8z"/>
	<path class="st0" d="M122,114.4c-0.4,0-0.7-0.1-1-0.4c-0.3-0.3-0.4-0.6-0.4-1c0-0.4,0.1-0.8,0.4-1c0.3-0.3,0.6-0.4,1-0.4
		c0.4,0,0.7,0.1,1,0.4s0.4,0.6,0.4,1c0,0.4-0.1,0.8-0.4,1S122.4,114.4,122,114.4z M123.1,128.6h-2.1v-12h2.1V128.6z"/>
	<path class="st0" d="M129.5,127.1c0.9,0,1.5-0.1,2-0.3c0.4-0.2,0.6-0.6,0.6-1.1c0-0.5-0.2-0.9-0.6-1.2c-0.4-0.3-1.1-0.7-2.1-1
		c-0.5-0.2-0.9-0.4-1.3-0.6c-0.4-0.2-0.8-0.4-1.1-0.7c-0.3-0.3-0.6-0.6-0.7-0.9c-0.2-0.4-0.3-0.8-0.3-1.4c0-1.1,0.4-1.9,1.2-2.5
		c0.8-0.6,1.9-0.9,3.2-0.9c0.3,0,0.7,0,1,0.1c0.3,0,0.7,0.1,0.9,0.1c0.3,0.1,0.5,0.1,0.8,0.2c0.2,0.1,0.4,0.1,0.5,0.2l-0.4,1.8
		c-0.2-0.1-0.6-0.2-1.1-0.4c-0.5-0.1-1.1-0.2-1.8-0.2c-0.6,0-1.1,0.1-1.6,0.4c-0.4,0.2-0.7,0.6-0.7,1.1c0,0.3,0,0.5,0.2,0.7
		c0.1,0.2,0.3,0.4,0.5,0.5c0.2,0.2,0.5,0.3,0.8,0.5c0.3,0.1,0.7,0.3,1.1,0.4c0.6,0.2,1.1,0.4,1.5,0.6c0.4,0.2,0.8,0.5,1.1,0.7
		s0.6,0.6,0.7,1s0.3,0.9,0.3,1.4c0,1.1-0.4,1.9-1.2,2.5s-2,0.9-3.5,0.9c-1.1,0-1.9-0.1-2.5-0.3s-1-0.3-1.2-0.4l0.4-1.8
		c0.2,0.1,0.6,0.2,1.2,0.4S128.6,127.1,129.5,127.1z"/>
	<path class="st0" d="M137,128.6V111l2.1-0.4v6.1c0.4-0.2,0.8-0.3,1.3-0.4c0.5-0.1,0.9-0.1,1.4-0.1c1,0,1.7,0.1,2.4,0.4
		c0.6,0.3,1.1,0.6,1.5,1.1s0.6,1.1,0.8,1.7c0.2,0.7,0.2,1.4,0.2,2.2v6.7h-2.1v-6.3c0-0.7,0-1.4-0.1-1.9c-0.1-0.5-0.3-0.9-0.5-1.3
		c-0.2-0.3-0.5-0.6-0.9-0.7c-0.4-0.1-0.9-0.2-1.4-0.2c-0.2,0-0.5,0-0.7,0s-0.5,0.1-0.7,0.1c-0.2,0-0.4,0.1-0.6,0.1
		c-0.2,0-0.3,0.1-0.4,0.1v10H137z"/>
	<path class="st0" d="M149.6,122.6c0-1.1,0.2-2,0.5-2.8c0.3-0.8,0.7-1.5,1.2-2s1.1-0.9,1.8-1.2s1.3-0.4,2-0.4c1.6,0,2.9,0.5,3.7,1.5
		c0.9,1,1.3,2.5,1.3,4.6c0,0.1,0,0.2,0,0.4c0,0.1,0,0.3,0,0.4h-8.2c0.1,1.2,0.5,2.2,1.1,2.8c0.6,0.6,1.6,1,3,1
		c0.8,0,1.4-0.1,1.9-0.2c0.5-0.1,0.9-0.3,1.2-0.4l0.3,1.8c-0.3,0.1-0.7,0.3-1.4,0.4c-0.7,0.2-1.4,0.2-2.2,0.2c-1,0-2-0.2-2.7-0.5
		s-1.4-0.8-1.9-1.3c-0.5-0.6-0.9-1.2-1.1-2C149.7,124.4,149.6,123.5,149.6,122.6z M157.8,121.4c0-1-0.2-1.8-0.7-2.4
		s-1.2-0.9-2.1-0.9c-0.5,0-0.9,0.1-1.3,0.3c-0.4,0.2-0.7,0.4-1,0.8c-0.3,0.3-0.5,0.7-0.6,1.1c-0.1,0.4-0.2,0.8-0.3,1.2H157.8z"/>
	<path class="st0" d="M167.6,116.3c0.2,0,0.4,0,0.6,0s0.5,0.1,0.7,0.1c0.2,0,0.4,0.1,0.6,0.1c0.2,0,0.3,0.1,0.4,0.1l-0.4,1.9
		c-0.2-0.1-0.5-0.1-0.8-0.2c-0.4-0.1-0.9-0.1-1.5-0.1c-0.4,0-0.8,0-1.2,0.1c-0.4,0.1-0.7,0.1-0.8,0.2v10.1h-2.1v-11.5
		c0.5-0.2,1.1-0.4,1.9-0.5C165.8,116.4,166.6,116.3,167.6,116.3z"/>
</g>
</svg>
