<?xml version="1.0" encoding="utf-8"?>
<!-- Generator: Adobe Illustrator 26.0.1, SVG Export Plug-In . SVG Version: 6.00 Build 0)  -->
<svg version="1.1" id="Layer_1" xmlns="http://www.w3.org/2000/svg" xmlns:xlink="http://www.w3.org/1999/xlink" x="0px" y="0px"
	 viewBox="0 0 176.2 147.9" style="enable-background:new 0 0 176.2 147.9;" xml:space="preserve">
<style type="text/css">
	.st0{enable-background:new    ;}
	.st1{fill:#010068;}
	.st2{fill:url(#SVGID_1_);}
	.st3{fill:#74E5D3;}
</style>
<g>
	<g id="a">
		<g class="st0">
			<path class="st1" d="M31.3,114.7c-1.7,0-2.9,0.5-3.6,1.4c-0.7,0.9-1.1,2.2-1.1,3.8c0,0.8,0.1,1.5,0.3,2.1
				c0.2,0.6,0.5,1.2,0.8,1.6s0.8,0.8,1.4,1.1c0.6,0.3,1.2,0.4,1.9,0.4c0.4,0,0.7,0,1,0c0.3,0,0.5,0,0.7-0.1v-5.5h3.6v7.9
				c-0.4,0.2-1.1,0.3-2.1,0.5c-1,0.2-2.1,0.3-3.5,0.3c-1.2,0-2.3-0.2-3.3-0.6c-1-0.4-1.8-0.9-2.5-1.6c-0.7-0.7-1.2-1.6-1.6-2.6
				c-0.4-1-0.6-2.2-0.6-3.5c0-1.3,0.2-2.5,0.6-3.5c0.4-1,1-1.9,1.7-2.6c0.7-0.7,1.6-1.3,2.5-1.6c1-0.4,2-0.6,3.1-0.6
				c0.8,0,1.4,0,2,0.1c0.6,0.1,1.1,0.2,1.6,0.3c0.4,0.1,0.8,0.3,1.1,0.4s0.5,0.2,0.6,0.3l-1,2.9c-0.5-0.3-1.1-0.5-1.7-0.7
				C32.7,114.8,32,114.7,31.3,114.7z"/>
		</g>
		<g class="st0">
			<path class="st1" d="M46.7,118.8c-0.3-0.1-0.7-0.2-1.1-0.2c-0.4-0.1-0.9-0.1-1.3-0.1c-0.2,0-0.5,0-0.8,0.1
				c-0.3,0-0.5,0.1-0.7,0.1v9.2h-3.4v-11.5c0.6-0.2,1.3-0.4,2.2-0.6c0.8-0.2,1.8-0.3,2.8-0.3c0.2,0,0.4,0,0.7,0
				c0.3,0,0.5,0.1,0.8,0.1s0.5,0.1,0.8,0.1c0.3,0.1,0.5,0.1,0.7,0.2L46.7,118.8z"/>
		</g>
		<g class="st0">
			<path class="st1" d="M53.3,115.4c1,0,1.9,0.1,2.5,0.3c0.7,0.2,1.2,0.6,1.6,1c0.4,0.4,0.7,1,0.9,1.6c0.2,0.6,0.3,1.3,0.3,2v7.1
				c-0.5,0.1-1.2,0.2-2,0.4c-0.9,0.1-1.9,0.2-3.2,0.2c-0.8,0-1.5-0.1-2.1-0.2c-0.6-0.1-1.2-0.4-1.6-0.7c-0.5-0.3-0.8-0.7-1.1-1.2
				s-0.4-1.1-0.4-1.9c0-0.7,0.1-1.3,0.4-1.8c0.3-0.5,0.7-0.9,1.1-1.2c0.5-0.3,1-0.5,1.6-0.6c0.6-0.1,1.2-0.2,1.9-0.2
				c0.4,0,0.8,0,1.2,0.1c0.3,0,0.6,0.1,0.8,0.1v-0.3c0-0.6-0.2-1.1-0.5-1.4c-0.4-0.4-1-0.5-1.8-0.5c-0.6,0-1.2,0-1.7,0.1
				s-1.1,0.2-1.5,0.4l-0.4-2.8c0.2-0.1,0.4-0.1,0.7-0.2c0.3-0.1,0.6-0.1,1-0.2c0.4-0.1,0.7-0.1,1.1-0.1S52.9,115.4,53.3,115.4z
				 M53.5,125.5c0.3,0,0.7,0,1,0c0.3,0,0.6,0,0.7-0.1v-2.6c-0.1,0-0.3-0.1-0.6-0.1s-0.5,0-0.8,0c-0.3,0-0.6,0-0.9,0.1
				s-0.5,0.1-0.7,0.2c-0.2,0.1-0.4,0.3-0.5,0.4c-0.1,0.2-0.2,0.4-0.2,0.7c0,0.5,0.2,0.9,0.5,1.1C52.4,125.4,52.9,125.5,53.5,125.5z"
				/>
		</g>
		<g class="st0">
			<path class="st1" d="M61.9,127.8v-15.9h10.7v3h-7.1v3.3h6.3v3h-6.3v6.6H61.9z"/>
		</g>
		<g class="st0">
			<path class="st1" d="M79.4,119.1l2.4-3.4h3.5l-4.2,5.9c1,1.1,1.8,2.2,2.6,3.3s1.3,2.1,1.8,2.9h-3.7c-0.1-0.2-0.3-0.5-0.5-0.9
				c-0.2-0.3-0.4-0.7-0.6-1.1c-0.2-0.4-0.5-0.7-0.7-1s-0.5-0.5-0.7-0.7c-0.2,0.2-0.5,0.4-0.7,0.7c-0.2,0.2-0.5,0.5-0.7,0.9
				c-0.2,0.4-0.4,0.7-0.6,1.1c-0.2,0.4-0.4,0.7-0.6,1h-3.5c0.2-0.4,0.4-0.8,0.8-1.4s0.7-1.1,1-1.6c0.4-0.6,0.8-1.1,1.2-1.6
				c0.4-0.5,0.9-1,1.3-1.5c-0.8-1.1-1.5-2.1-2.2-3.1c-0.7-1-1.4-2-2.1-2.9H77L79.4,119.1z"/>
		</g>
		<g class="st0">
			<path class="st1" d="M92.6,126.3c2.3,0,3.5-0.8,3.5-2.4c0-0.5-0.1-0.9-0.3-1.3s-0.5-0.6-0.8-0.9s-0.8-0.5-1.2-0.7
				c-0.5-0.2-0.9-0.4-1.4-0.6c-0.6-0.2-1.1-0.4-1.7-0.7c-0.5-0.3-1-0.6-1.4-0.9c-0.4-0.3-0.7-0.8-0.9-1.2c-0.2-0.5-0.3-1.1-0.3-1.7
				c0-1.4,0.5-2.5,1.4-3.3c1-0.8,2.3-1.2,3.9-1.2c1,0,1.8,0.1,2.6,0.3c0.8,0.2,1.4,0.4,1.7,0.7l-0.7,1.8c-0.3-0.2-0.8-0.4-1.4-0.6
				c-0.6-0.2-1.4-0.3-2.2-0.3c-0.4,0-0.8,0-1.2,0.1c-0.4,0.1-0.7,0.2-1,0.4c-0.3,0.2-0.5,0.4-0.7,0.7c-0.2,0.3-0.2,0.6-0.2,1
				c0,0.4,0.1,0.8,0.3,1.1c0.2,0.3,0.4,0.5,0.7,0.8c0.3,0.2,0.7,0.4,1.1,0.6c0.4,0.2,0.9,0.4,1.3,0.6c0.7,0.3,1.3,0.6,1.9,0.8
				c0.6,0.3,1.1,0.6,1.5,1c0.4,0.4,0.7,0.8,1,1.4c0.2,0.5,0.3,1.2,0.3,1.9c0,1.4-0.5,2.5-1.5,3.2c-1,0.8-2.5,1.1-4.3,1.1
				c-0.6,0-1.2,0-1.7-0.1c-0.5-0.1-1-0.2-1.4-0.3c-0.4-0.1-0.8-0.2-1.1-0.4s-0.5-0.2-0.7-0.3l0.7-1.8c0.4,0.2,0.9,0.4,1.6,0.7
				S91.5,126.3,92.6,126.3z"/>
			<path class="st1" d="M103,115.9h4.5v1.8H103v5.5c0,0.6,0,1.1,0.1,1.5c0.1,0.4,0.2,0.7,0.4,0.9c0.2,0.2,0.4,0.4,0.7,0.5
				c0.3,0.1,0.6,0.1,1,0.1c0.6,0,1.2-0.1,1.6-0.2c0.4-0.1,0.7-0.2,0.8-0.3l0.4,1.8c-0.2,0.1-0.6,0.2-1.1,0.4
				c-0.5,0.2-1.2,0.2-1.8,0.2c-0.8,0-1.5-0.1-2-0.3c-0.5-0.2-1-0.5-1.3-0.9c-0.3-0.4-0.5-0.9-0.7-1.5c-0.1-0.6-0.2-1.3-0.2-2.1
				v-10.7l2.1-0.4V115.9z"/>
			<path class="st1" d="M119.7,127.5c-0.5,0.1-1.1,0.3-1.9,0.4c-0.8,0.1-1.7,0.2-2.8,0.2c-0.9,0-1.7-0.1-2.3-0.4
				c-0.6-0.3-1.1-0.6-1.5-1.1c-0.4-0.5-0.7-1.1-0.8-1.7c-0.2-0.7-0.3-1.4-0.3-2.2v-6.7h2.1v6.3c0,1.5,0.2,2.5,0.7,3.1
				c0.5,0.6,1.2,0.9,2.3,0.9c0.2,0,0.5,0,0.7,0c0.2,0,0.5,0,0.7-0.1c0.2,0,0.4,0,0.6-0.1c0.2,0,0.3,0,0.4-0.1v-10.1h2.1V127.5z"/>
			<path class="st1" d="M131.1,110.4l2.1-0.4v17.5c-0.5,0.1-1.1,0.3-1.9,0.4c-0.8,0.1-1.6,0.2-2.6,0.2c-0.9,0-1.7-0.1-2.5-0.4
				s-1.4-0.7-1.9-1.2c-0.5-0.5-0.9-1.2-1.2-2c-0.3-0.8-0.4-1.6-0.4-2.6c0-0.9,0.1-1.8,0.4-2.5c0.2-0.8,0.6-1.4,1-2
				c0.5-0.6,1-1,1.7-1.3c0.7-0.3,1.4-0.5,2.3-0.5c0.7,0,1.3,0.1,1.8,0.3s0.9,0.4,1.2,0.5V110.4z M131.1,118.4
				c-0.3-0.2-0.6-0.4-1.1-0.6c-0.5-0.2-1-0.3-1.6-0.3c-0.6,0-1.1,0.1-1.6,0.3c-0.4,0.2-0.8,0.5-1.1,0.9c-0.3,0.4-0.5,0.9-0.6,1.4
				c-0.1,0.5-0.2,1.1-0.2,1.7c0,1.4,0.3,2.5,1,3.2c0.7,0.8,1.6,1.1,2.8,1.1c0.6,0,1.1,0,1.5-0.1c0.4-0.1,0.7-0.1,0.9-0.2V118.4z"/>
			<path class="st1" d="M138,113.7c-0.4,0-0.7-0.1-1-0.4c-0.3-0.3-0.4-0.6-0.4-1c0-0.4,0.1-0.8,0.4-1c0.3-0.3,0.6-0.4,1-0.4
				c0.4,0,0.7,0.1,1,0.4c0.3,0.3,0.4,0.6,0.4,1c0,0.4-0.1,0.8-0.4,1C138.7,113.6,138.4,113.7,138,113.7z M139.1,127.8H137v-12h2.1
				V127.8z"/>
			<path class="st1" d="M153.3,121.9c0,1-0.1,1.8-0.4,2.6c-0.3,0.8-0.7,1.4-1.2,2s-1.1,1-1.8,1.3c-0.7,0.3-1.4,0.4-2.3,0.4
				c-0.8,0-1.6-0.1-2.3-0.4c-0.7-0.3-1.3-0.7-1.8-1.3s-0.9-1.2-1.2-2c-0.3-0.8-0.4-1.6-0.4-2.6c0-0.9,0.1-1.8,0.4-2.6
				c0.3-0.8,0.7-1.4,1.2-2s1.1-1,1.8-1.3c0.7-0.3,1.4-0.4,2.3-0.4c0.8,0,1.6,0.1,2.3,0.4c0.7,0.3,1.3,0.7,1.8,1.3s0.9,1.2,1.2,2
				C153.2,120.1,153.3,120.9,153.3,121.9z M151.1,121.9c0-1.3-0.3-2.4-0.9-3.2c-0.6-0.8-1.4-1.2-2.5-1.2c-1,0-1.9,0.4-2.5,1.2
				c-0.6,0.8-0.9,1.9-0.9,3.2c0,1.3,0.3,2.4,0.9,3.2c0.6,0.8,1.4,1.2,2.5,1.2c1,0,1.9-0.4,2.5-1.2
				C150.8,124.3,151.1,123.2,151.1,121.9z"/>
		</g>
		
			<linearGradient id="SVGID_1_" gradientUnits="userSpaceOnUse" x1="65.4592" y1="121.7203" x2="127.6192" y2="75.4803" gradientTransform="matrix(1 0 0 -1 0 148.6614)">
			<stop  offset="0" style="stop-color:#74E5D3"/>
			<stop  offset="0.13" style="stop-color:#6CE0CD"/>
			<stop  offset="0.32" style="stop-color:#57D3BE"/>
			<stop  offset="0.55" style="stop-color:#34BFA6"/>
			<stop  offset="0.81" style="stop-color:#05A384"/>
			<stop  offset="0.84" style="stop-color:#00A081"/>
		</linearGradient>
		<path class="st2" d="M121.8,17.4H88.4c-19.2,0-34.8,15.6-34.8,34.8c0,13.6,7.8,25.4,19.3,31.1L121.8,17.4z"/>
		<path class="st3" d="M62.2,97.7h33.4c19.2,0,34.8-15.6,34.8-34.7c0-13.6-7.8-25.4-19.3-31.1L62.2,97.7z"/>
	</g>
</g>
</svg>
