<?xml version="1.0" encoding="utf-8"?>
<!-- Generator: Adobe Illustrator 26.5.0, SVG Export Plug-In . SVG Version: 6.00 Build 0)  -->
<svg version="1.1" id="Layer_1" xmlns="http://www.w3.org/2000/svg" xmlns:xlink="http://www.w3.org/1999/xlink" x="0px" y="0px"
	 viewBox="0 0 229 147.9" style="enable-background:new 0 0 229 147.9;" xml:space="preserve">
<style type="text/css">
	.st0{fill:#FFFFFF;}
	.st1{opacity:0.55;fill:#FFFFFF;enable-background:new    ;}
	.st2{opacity:0.9;fill:url(#SVGID_1_);enable-background:new    ;}
</style>
<g>
	<path class="st0" d="M126.8,73.1c-4.3,0-7.5-1.2-9.8-3.6c-2.2-2.4-3.3-5.8-3.3-10.2c0-2.2,0.3-4.1,1-5.8s1.6-3.2,2.8-4.3
		c1.2-1.2,2.6-2.1,4.3-2.7s3.4-0.9,5.4-0.9c1.1,0,2.1,0.1,3,0.3c0.9,0.2,1.7,0.4,2.4,0.6c0.7,0.2,1.2,0.4,1.7,0.7s0.8,0.4,1,0.5
		l-1.7,4.8c-0.8-0.4-1.8-0.8-2.8-1.1s-2.3-0.5-3.7-0.5c-0.9,0-1.8,0.2-2.7,0.5s-1.7,0.8-2.3,1.5s-1.2,1.5-1.6,2.6
		c-0.4,1.1-0.6,2.3-0.6,3.9c0,1.2,0.1,2.3,0.4,3.4c0.3,1,0.7,2,1.3,2.7c0.6,0.8,1.4,1.4,2.3,1.8c1,0.4,2.1,0.7,3.5,0.7
		c0.9,0,1.6-0.1,2.3-0.1c0.7-0.1,1.3-0.2,1.8-0.4c0.5-0.1,1-0.3,1.4-0.5s0.8-0.3,1.1-0.5l1.6,4.8c-0.8,0.5-2,1-3.5,1.4
		S128.8,73.1,126.8,73.1L126.8,73.1z"/>
	<path class="st0" d="M155.6,46.3l5.9,0l-0.1,26.3l-5.9,0l0-11.2l-10,0l0,11.2l-5.9,0l0.1-26.3l5.9,0l0,10.1l10,0
		C155.6,56.4,155.6,46.3,155.6,46.3z"/>
	<path class="st0" d="M167.9,46.4l5.9,0l-0.1,26.3l-5.9,0C167.8,72.7,167.9,46.4,167.9,46.4z"/>
	<path class="st0" d="M197.7,67.7l0,5.1l-17.6-0.1l0.1-26.3l5.9,0L186,67.7L197.7,67.7L197.7,67.7z"/>
	<path class="st0" d="M201.7,46.5l5.9,0l-0.1,26.3l-5.9,0C201.6,72.8,201.7,46.5,201.7,46.5z"/>
	<path class="st0" d="M131,94.6h3.7l0,12.3c-0.3,0.1-0.7,0.2-1.3,0.3c-0.6,0.1-1.2,0.2-2,0.4s-1.6,0.2-2.4,0.3
		c-0.9,0.1-1.8,0.1-2.7,0.1c-1.8,0-3.5-0.3-5.1-0.9c-1.5-0.6-2.8-1.5-3.9-2.7c-1.1-1.2-1.9-2.6-2.5-4.3c-0.6-1.7-0.9-3.7-0.9-5.8
		s0.3-4.2,1-5.9s1.6-3.1,2.7-4.3c1.1-1.2,2.5-2,4-2.7c1.5-0.6,3.2-0.9,4.9-0.9c1.2,0,2.2,0.1,3.2,0.2c0.9,0.2,1.7,0.3,2.4,0.5
		c0.7,0.2,1.2,0.4,1.6,0.6c0.4,0.2,0.7,0.4,0.9,0.5l-1.2,3.1c-0.7-0.5-1.7-0.9-2.9-1.2c-1.2-0.3-2.5-0.5-3.7-0.5
		c-1.3,0-2.6,0.2-3.7,0.7c-1.1,0.5-2,1.2-2.8,2.1s-1.4,2-1.8,3.3c-0.4,1.3-0.7,2.8-0.7,4.4c0,1.6,0.2,3,0.5,4.3
		c0.4,1.3,0.9,2.4,1.7,3.3c0.7,0.9,1.7,1.7,2.8,2.2s2.4,0.8,3.9,0.8c1.1,0,2-0.1,2.7-0.2s1.3-0.2,1.6-0.3L131,94.6L131,94.6z"/>
	<path class="st0" d="M147.8,87.5c0.3,0,0.6,0,1,0.1s0.8,0.1,1.2,0.2c0.4,0.1,0.7,0.1,1,0.2c0.3,0.1,0.6,0.1,0.7,0.2l-0.6,3.1
		c-0.3-0.1-0.7-0.2-1.4-0.4c-0.6-0.1-1.5-0.2-2.5-0.2c-0.7,0-1.3,0.1-2,0.2c-0.6,0.1-1.1,0.2-1.3,0.3l-0.1,16.6h-3.5l0.1-18.9
		c0.8-0.3,1.9-0.6,3.1-0.8S146.2,87.4,147.8,87.5L147.8,87.5z"/>
	<path class="st0" d="M161.3,87.4c1.4,0,2.6,0.2,3.6,0.6c1,0.4,1.8,0.9,2.4,1.6c0.6,0.7,1,1.5,1.3,2.4s0.4,1.9,0.4,3.1l0,12.3
		c-0.3,0.1-0.7,0.1-1.3,0.2c-0.6,0.1-1.2,0.2-1.8,0.2c-0.7,0.1-1.4,0.1-2.2,0.2c-0.8,0.1-1.6,0.1-2.4,0.1c-1.1,0-2.1-0.1-3.1-0.3
		c-0.9-0.2-1.8-0.6-2.4-1.1s-1.2-1.2-1.6-2c-0.4-0.8-0.6-1.8-0.6-2.9c0-1.1,0.2-2,0.7-2.8c0.4-0.8,1.1-1.4,1.8-1.9
		c0.8-0.5,1.6-0.8,2.7-1.1c1-0.2,2.1-0.3,3.2-0.3c0.4,0,0.7,0,1.1,0.1s0.7,0.1,1.1,0.2c0.3,0.1,0.6,0.1,0.9,0.2
		c0.2,0.1,0.4,0.1,0.5,0.1v-1c0-0.6-0.1-1.2-0.2-1.7s-0.4-1.1-0.7-1.5c-0.3-0.4-0.8-0.8-1.4-1.1s-1.3-0.4-2.2-0.4
		c-1.2,0-2.2,0.1-3.1,0.2c-0.9,0.2-1.5,0.3-2,0.5l-0.4-2.9c0.5-0.2,1.2-0.4,2.3-0.6C158.9,87.5,160,87.4,161.3,87.4L161.3,87.4z
		 M161.5,105.2c0.8,0,1.6,0,2.2-0.1c0.6,0,1.2-0.1,1.6-0.2l0-5.9c-0.2-0.1-0.7-0.2-1.2-0.3c-0.6-0.1-1.3-0.1-2.1-0.1
		c-0.5,0-1.1,0-1.7,0.1c-0.6,0.1-1.1,0.2-1.6,0.5c-0.5,0.2-0.9,0.6-1.2,1c-0.3,0.4-0.5,1-0.5,1.7c0,1.3,0.4,2.2,1.2,2.6
		C159,104.9,160.1,105.1,161.5,105.2L161.5,105.2z"/>
	<path class="st0" d="M182.3,78.3c1,0,1.9,0.1,2.7,0.2s1.3,0.3,1.6,0.4l-0.7,3c-0.3-0.2-0.7-0.3-1.3-0.4s-1.2-0.2-2.1-0.2
		c-1.6,0-2.8,0.4-3.5,1.3c-0.7,0.9-1,2.1-1,3.6V88l7.6,0v3l-7.6,0l-0.1,16.8h-3.5l0.1-21.6c0-2.5,0.6-4.5,1.9-5.9
		C177.7,78.9,179.7,78.3,182.3,78.3L182.3,78.3z"/>
	<path class="st0" d="M202.2,107.8c-0.3-0.6-0.6-1.2-1-1.9c-0.4-0.7-0.8-1.4-1.3-2.1c-0.5-0.7-1-1.4-1.5-2.2c-0.5-0.7-1-1.4-1.5-2
		c-0.5,0.6-1,1.3-1.5,2c-0.5,0.7-1,1.4-1.5,2.2s-0.9,1.4-1.3,2.1s-0.8,1.3-1,1.8h-3.6c0.9-1.7,1.9-3.5,3.2-5.3
		c1.2-1.8,2.5-3.5,3.7-5.1l-6.5-9.4h4l4.7,6.9l4.8-6.9h3.8l-6.4,9.2c1.2,1.7,2.4,3.4,3.7,5.2c1.3,1.8,2.4,3.6,3.2,5.4L202.2,107.8
		L202.2,107.8z"/>
</g>
<polygon class="st1" points="96.4,77.7 66.3,77.7 66.3,77.7 96.4,118.2 "/>
<linearGradient id="SVGID_1_" gradientUnits="userSpaceOnUse" x1="99.3987" y1="49.0639" x2="15.0987" y2="113.7139" gradientTransform="matrix(1 0 0 -1 0 149.2756)">
	<stop  offset="3.000000e-02" style="stop-color:#FFFFFF;stop-opacity:0"/>
	<stop  offset="0.1502" style="stop-color:#FFFFFF;stop-opacity:0.2"/>
	<stop  offset="0.31" style="stop-color:#FFFFFF;stop-opacity:0.6"/>
	<stop  offset="0.44" style="stop-color:#FFFFFF;stop-opacity:0.9"/>
	<stop  offset="0.54" style="stop-color:#FFFFFF"/>
	<stop  offset="0.6" style="stop-color:#FFFFFF"/>
</linearGradient>
<path class="st2" d="M95.3,37.4H57.5c-22.3,0-40.4,18-40.4,40.3c0,15.8,9.1,29.5,22.4,36.1c2.4-3.2,20.7-27.8,25.7-34.4l0.9-1.2
	l0.4-0.5l29.9-40.2L95.3,37.4L95.3,37.4z"/>
<path class="st0" d="M96.6,118.1L66.4,77.6c0,0-0.1,0.2-0.3,0.4c-0.2,0.3-0.5,0.7-0.9,1.2l-25.7,34.5l0,0c3.9,1.8,9,4.3,19.7,4.3
	L96.6,118.1L96.6,118.1z"/>
</svg>
