<?xml version="1.0" encoding="utf-8"?>
<!-- Generator: Adobe Illustrator 26.5.0, SVG Export Plug-In . SVG Version: 6.00 Build 0)  -->
<svg version="1.1" id="CMYK" xmlns="http://www.w3.org/2000/svg" xmlns:xlink="http://www.w3.org/1999/xlink" x="0px" y="0px"
	 viewBox="0 0 141.7 141.7" style="enable-background:new 0 0 141.7 141.7;" xml:space="preserve">
<style type="text/css">
	.st0{fill:#E50841;}
</style>
<g>
	<g>
		<g>
			<g>
				<path class="st0" d="M30.6,108.8v1.7c0.3-0.8,1.2-2,3.2-2c3.9,0,4.5,4.1,4.5,5.6c0,1.6-0.8,5.6-4.5,5.6c-1.9,0-2.9-1.1-3.2-2
					v7.5h-1.3v-16.4C29.3,108.8,30.6,108.8,30.6,108.8z M30.6,114.5c0,1.5,0.3,2.6,1.2,3.3c0.7,0.6,1.5,0.6,1.9,0.6
					c2.5,0,3.3-2.4,3.3-4.5c0-2-0.9-4.2-3.3-4.2c-2.6,0-3,2.6-3,4.2v0.6H30.6z"/>
				<path class="st0" d="M47.9,119.5v-1.9c-0.6,1.3-1.6,2.2-3.4,2.2c-1.5,0-2.8-0.8-3.3-2.3c-0.2-0.7-0.3-1.8-0.3-3.4v-5.2h1.3v5.5
					c0,1.3,0,2,0.2,2.6c0.2,0.7,0.7,1.6,2.2,1.6c0.5,0,1.7,0,2.5-1.2c0.7-0.9,0.7-2,0.7-3.1v-5.4h1.3v10.7L47.9,119.5L47.9,119.5z"
					/>
				<path class="st0" d="M53.9,103.7v7c0.3-0.8,1.3-2,3.3-2c3.2,0,4.5,3.1,4.5,5.7c0,2.1-0.9,5.4-4.4,5.4c-1.9,0-2.9-1.1-3.3-2.2
					v1.9h-1.3v-15.8H53.9z M57.1,118.6c2,0,3.1-1.5,3.1-4.2c0-2.4-0.9-4.6-3.3-4.6c-2,0-3.1,1.5-3.1,4.4
					C53.9,115.8,54.4,118.6,57.1,118.6z"/>
				<path class="st0" d="M64.3,119.5v-15.8h1.3v15.8H64.3z"/>
				<path class="st0" d="M69,106.3v-2h1.3v2H69z M69,119.5v-10.7h1.3v10.7H69z"/>
				<path class="st0" d="M74,116.4c0.2,0.7,1,2.1,3,2.1c2.1,0,2.7-1.1,2.7-2.1c0-0.9-0.5-1.5-2.3-1.9l-1.3-0.3
					c-1.7-0.4-2.8-1.1-2.8-2.7c0-0.4,0.1-1.4,0.9-2.2c0.7-0.7,2-0.9,2.9-0.9c0.3,0,1.6,0,2.6,0.7c0.8,0.6,1.1,1.4,1.2,1.7l-1.3,0.3
					c-0.2-1.2-1.5-1.6-2.6-1.6c-2.2,0-2.5,1.1-2.5,1.8c0,1.3,1.3,1.5,2.2,1.7l1.1,0.2c1.9,0.4,3,1.5,3,3.1c0,1.2-1,3.2-4,3.2
					c-0.9,0-3.2-0.1-4.3-2.9L74,116.4z"/>
				<path class="st0" d="M90.9,119.5v-6.8c0-1.3-0.3-2.9-2.5-2.9c-1.6,0-2.4,0.9-2.7,1.5c-0.4,0.8-0.4,1.7-0.4,3.6v4.6H84v-15.8h1.3
					v6.8c0.3-0.7,1.2-1.9,3.3-1.9c0.5,0,2,0.1,2.9,1.3c0.6,0.8,0.7,1.7,0.7,3.6v6C92.2,119.5,90.9,119.5,90.9,119.5z"/>
				<path class="st0" d="M96.4,114.5c0,1.6,0.7,4.1,3.6,4.1c1,0,2.4-0.2,3.5-2.2l1.2,0.4c-0.5,1.1-1.6,3.1-4.6,3.1
					c-4.4,0-5.1-3.9-5.1-5.7c0-3.7,2.4-5.5,4.9-5.5c3,0,4.8,2.6,4.8,5.4v0.2h-8.3V114.5z M103.1,113.1c-0.3-2.8-2.2-3.3-3.3-3.3
					c-2.3,0-3.3,1.8-3.4,3.3H103.1z"/>
				<path class="st0" d="M108.6,108.8v1.7c0.6-1.3,1.6-1.9,2.9-1.9c0.2,0,0.5,0,0.9,0v1.2c-0.3,0-0.5-0.1-0.9-0.1
					c-2.3,0-3,1.7-3,3.8v5.9h-1.3v-10.7L108.6,108.8L108.6,108.8z"/>
			</g>
		</g>
	</g>
	<path class="st0" d="M95.3,22.4c-22.9,18.3-39.9,12.4-62.8-5.9c18.3,22.9,21.7,42,3.4,64.9c0.9-0.7,1.8-1.4,2.7-2.1l23.8-23.5
		l-5.9,14.6c14.7-3.6,28.8,2.1,44.6,14.7C82.9,62.3,77,45.3,95.3,22.4z M69.4,60.5l-3.8-8l-8-1.3L74.1,41L69.4,60.5z"/>
</g>
<g>
	<path class="st0" d="M52,91.3c-1.1,0-1.9,0.3-2.4,0.9c-0.5,0.6-0.7,1.4-0.7,2.5c0,0.5,0.1,1,0.2,1.4c0.1,0.4,0.3,0.8,0.5,1.1
		c0.2,0.3,0.5,0.5,0.9,0.7s0.8,0.2,1.3,0.2c0.3,0,0.5,0,0.7,0s0.4,0,0.5-0.1v-3.6h2.4v5.2c-0.3,0.1-0.7,0.2-1.4,0.4
		c-0.6,0.1-1.4,0.2-2.3,0.2c-0.8,0-1.5-0.1-2.1-0.4c-0.6-0.2-1.2-0.6-1.6-1.1c-0.5-0.5-0.8-1-1.1-1.7s-0.4-1.4-0.4-2.3
		c0-0.9,0.1-1.7,0.4-2.3c0.3-0.7,0.6-1.2,1.1-1.7c0.5-0.5,1-0.8,1.7-1.1c0.6-0.2,1.3-0.4,2-0.4c0.5,0,0.9,0,1.3,0.1
		c0.4,0.1,0.7,0.1,1,0.2s0.5,0.2,0.7,0.3s0.3,0.2,0.4,0.2L54.5,92c-0.3-0.2-0.7-0.3-1.1-0.4C53,91.4,52.5,91.3,52,91.3z"/>
	<path class="st0" d="M62.2,94c-0.2,0-0.4-0.1-0.7-0.2c-0.3-0.1-0.6-0.1-0.9-0.1c-0.1,0-0.3,0-0.5,0c-0.2,0-0.3,0.1-0.4,0.1v6.1
		h-2.3v-7.5c0.4-0.1,0.9-0.3,1.4-0.4c0.5-0.1,1.2-0.2,1.8-0.2c0.1,0,0.3,0,0.4,0c0.2,0,0.3,0,0.5,0.1c0.2,0,0.3,0.1,0.5,0.1
		c0.2,0,0.3,0.1,0.4,0.1L62.2,94z"/>
	<path class="st0" d="M66.5,91.8c0.7,0,1.2,0.1,1.7,0.2c0.4,0.2,0.8,0.4,1.1,0.7c0.3,0.3,0.5,0.6,0.6,1c0.1,0.4,0.2,0.9,0.2,1.3v4.7
		c-0.3,0.1-0.8,0.2-1.3,0.2c-0.6,0.1-1.3,0.1-2.1,0.1c-0.5,0-1,0-1.4-0.1c-0.4-0.1-0.8-0.2-1.1-0.4c-0.3-0.2-0.5-0.5-0.7-0.8
		c-0.2-0.3-0.2-0.7-0.2-1.2c0-0.5,0.1-0.9,0.3-1.2s0.4-0.6,0.7-0.8c0.3-0.2,0.7-0.3,1.1-0.4c0.4-0.1,0.8-0.1,1.3-0.1
		c0.3,0,0.6,0,0.8,0c0.2,0,0.4,0.1,0.6,0.1V95c0-0.4-0.1-0.7-0.3-0.9c-0.2-0.2-0.6-0.3-1.2-0.3c-0.4,0-0.8,0-1.1,0.1
		c-0.4,0.1-0.7,0.1-1,0.2l-0.3-1.8c0.1,0,0.3-0.1,0.5-0.1c0.2,0,0.4-0.1,0.6-0.1s0.5-0.1,0.7-0.1S66.2,91.8,66.5,91.8z M66.6,98.4
		c0.2,0,0.4,0,0.6,0c0.2,0,0.4,0,0.5,0v-1.7c-0.1,0-0.2,0-0.4-0.1c-0.2,0-0.3,0-0.5,0c-0.2,0-0.4,0-0.6,0s-0.4,0.1-0.5,0.1
		s-0.3,0.2-0.3,0.3s-0.1,0.3-0.1,0.5c0,0.4,0.1,0.6,0.4,0.7S66.2,98.4,66.6,98.4z"/>
	<path class="st0" d="M72.1,100V89.5h7v2h-4.7v2.2h4.1v2h-4.1v4.3H72.1z"/>
	<path class="st0" d="M83.6,94.3l1.6-2.2h2.3l-2.8,3.9c0.6,0.7,1.2,1.4,1.7,2.2s0.9,1.4,1.2,1.9h-2.4c-0.1-0.2-0.2-0.3-0.3-0.6
		c-0.1-0.2-0.3-0.5-0.4-0.7c-0.2-0.2-0.3-0.5-0.5-0.6c-0.2-0.2-0.3-0.3-0.5-0.5c-0.2,0.1-0.3,0.3-0.5,0.4c-0.2,0.2-0.3,0.4-0.4,0.6
		s-0.3,0.5-0.4,0.7s-0.3,0.4-0.4,0.6h-2.3c0.1-0.2,0.3-0.5,0.5-0.9c0.2-0.3,0.4-0.7,0.7-1.1c0.2-0.4,0.5-0.7,0.8-1.1
		c0.3-0.3,0.6-0.7,0.8-1c-0.5-0.7-1-1.4-1.4-2s-0.9-1.3-1.4-1.9h2.4L83.6,94.3z"/>
</g>
</svg>
