<?xml version="1.0" encoding="utf-8"?>
<!-- Generator: Adobe Illustrator 26.5.0, SVG Export Plug-In . SVG Version: 6.00 Build 0)  -->
<svg version="1.1" id="CMYK" xmlns="http://www.w3.org/2000/svg" xmlns:xlink="http://www.w3.org/1999/xlink" x="0px" y="0px"
	 viewBox="0 0 141.7 141.7" style="enable-background:new 0 0 141.7 141.7;" xml:space="preserve">
<style type="text/css">
	.st0{fill:#E50841;}
</style>
<g>
	<path class="st0" d="M95.3,22.4c-22.9,18.3-39.9,12.4-62.8-5.9c18.3,22.9,21.7,42,3.4,64.9c0.9-0.7,1.8-1.4,2.7-2.1l23.8-23.5
		l-5.9,14.6c14.7-3.6,28.8,2.1,44.6,14.7C82.9,62.3,77,45.3,95.3,22.4z M69.4,60.5l-3.8-8l-8-1.3L74.1,41L69.4,60.5z"/>
</g>
<g>
	<path class="st0" d="M52,91.3c-1.1,0-1.9,0.3-2.4,0.9s-0.7,1.4-0.7,2.5c0,0.5,0.1,1,0.2,1.4c0.1,0.4,0.3,0.8,0.5,1.1
		c0.2,0.3,0.5,0.5,0.9,0.7s0.8,0.2,1.3,0.2c0.3,0,0.5,0,0.7,0s0.4,0,0.5-0.1v-3.6h2.4v5.2c-0.3,0.1-0.7,0.2-1.4,0.4
		c-0.6,0.1-1.4,0.2-2.3,0.2c-0.8,0-1.5-0.1-2.1-0.4c-0.6-0.2-1.2-0.6-1.6-1.1c-0.5-0.5-0.8-1-1.1-1.7s-0.4-1.4-0.4-2.3
		s0.1-1.7,0.4-2.3c0.3-0.7,0.6-1.2,1.1-1.7s1-0.8,1.7-1.1c0.6-0.2,1.3-0.4,2-0.4c0.5,0,0.9,0,1.3,0.1c0.4,0.1,0.7,0.1,1,0.2
		s0.5,0.2,0.7,0.3S55,90,55.1,90l-0.6,2c-0.3-0.2-0.7-0.3-1.1-0.4C53,91.4,52.5,91.3,52,91.3z"/>
	<path class="st0" d="M62.2,94c-0.2,0-0.4-0.1-0.7-0.2s-0.6-0.1-0.9-0.1c-0.1,0-0.3,0-0.5,0s-0.3,0.1-0.4,0.1v6.1h-2.3v-7.5
		c0.4-0.1,0.9-0.3,1.4-0.4s1.2-0.2,1.8-0.2c0.1,0,0.3,0,0.4,0c0.2,0,0.3,0,0.5,0.1c0.2,0,0.3,0.1,0.5,0.1s0.3,0.1,0.4,0.1L62.2,94z"
		/>
	<path class="st0" d="M66.5,91.8c0.7,0,1.2,0.1,1.7,0.2c0.4,0.2,0.8,0.4,1.1,0.7c0.3,0.3,0.5,0.6,0.6,1s0.2,0.9,0.2,1.3v4.7
		c-0.3,0.1-0.8,0.2-1.3,0.2c-0.6,0.1-1.3,0.1-2.1,0.1c-0.5,0-1,0-1.4-0.1s-0.8-0.2-1.1-0.4c-0.3-0.2-0.5-0.5-0.7-0.8
		s-0.2-0.7-0.2-1.2s0.1-0.9,0.3-1.2s0.4-0.6,0.7-0.8c0.3-0.2,0.7-0.3,1.1-0.4s0.8-0.1,1.3-0.1c0.3,0,0.6,0,0.8,0
		c0.2,0,0.4,0.1,0.6,0.1V95c0-0.4-0.1-0.7-0.3-0.9c-0.2-0.2-0.6-0.3-1.2-0.3c-0.4,0-0.8,0-1.1,0.1c-0.4,0.1-0.7,0.1-1,0.2l-0.3-1.8
		c0.1,0,0.3-0.1,0.5-0.1s0.4-0.1,0.6-0.1S65.8,92,66,92S66.2,91.8,66.5,91.8z M66.6,98.4c0.2,0,0.4,0,0.6,0s0.4,0,0.5,0v-1.7
		c-0.1,0-0.2,0-0.4-0.1c-0.2,0-0.3,0-0.5,0s-0.4,0-0.6,0s-0.4,0.1-0.5,0.1s-0.3,0.2-0.3,0.3s-0.1,0.3-0.1,0.5c0,0.4,0.1,0.6,0.4,0.7
		S66.2,98.4,66.6,98.4z"/>
	<path class="st0" d="M72.1,100V89.5h7v2h-4.7v2.2h4.1v2h-4.1v4.3H72.1z"/>
	<path class="st0" d="M83.6,94.3l1.6-2.2h2.3L84.7,96c0.6,0.7,1.2,1.4,1.7,2.2s0.9,1.4,1.2,1.9h-2.4c-0.1-0.2-0.2-0.3-0.3-0.6
		c-0.1-0.2-0.3-0.5-0.4-0.7c-0.2-0.2-0.3-0.5-0.5-0.6c-0.2-0.2-0.3-0.3-0.5-0.5c-0.2,0.1-0.3,0.3-0.5,0.4c-0.2,0.2-0.3,0.4-0.4,0.6
		s-0.3,0.5-0.4,0.7s-0.3,0.4-0.4,0.6h-2.3c0.1-0.2,0.3-0.5,0.5-0.9c0.2-0.3,0.4-0.7,0.7-1.1c0.2-0.4,0.5-0.7,0.8-1.1
		c0.3-0.3,0.6-0.7,0.8-1c-0.5-0.7-1-1.4-1.4-2S80,92.6,79.5,92h2.4L83.6,94.3z"/>
</g>
<g>
	<path class="st0" d="M33,105.6c2,0,3.5,0.4,4.5,1.1c1.1,0.7,1.6,1.9,1.6,3.3c0,0.8-0.1,1.5-0.4,2.1c-0.3,0.6-0.7,1-1.2,1.4
		c-0.5,0.4-1.2,0.6-2,0.8c-0.8,0.2-1.7,0.2-2.6,0.2h-1.5v5.2h-1.9V106c0.5-0.1,1.2-0.2,1.8-0.3S32.5,105.6,33,105.6z M33.2,107.3
		c-0.8,0-1.5,0-1.9,0.1v5.5h1.5c0.7,0,1.3,0,1.8-0.1c0.5-0.1,1-0.2,1.4-0.4c0.4-0.2,0.7-0.5,0.9-0.9s0.3-0.8,0.3-1.4
		c0-0.5-0.1-1-0.3-1.3c-0.2-0.3-0.5-0.6-0.8-0.8c-0.4-0.2-0.8-0.4-1.2-0.4C34.2,107.4,33.7,107.3,33.2,107.3z"/>
	<path class="st0" d="M49.7,119.4c-0.4,0.1-1,0.2-1.7,0.3c-0.7,0.1-1.5,0.2-2.4,0.2c-0.8,0-1.5-0.1-2-0.4c-0.5-0.2-1-0.6-1.3-1
		c-0.3-0.4-0.6-0.9-0.7-1.5c-0.1-0.6-0.2-1.2-0.2-1.9v-5.9h1.9v5.5c0,1.3,0.2,2.2,0.6,2.7c0.4,0.5,1.1,0.8,2,0.8c0.2,0,0.4,0,0.6,0
		c0.2,0,0.4,0,0.6,0c0.2,0,0.4,0,0.5-0.1c0.2,0,0.3,0,0.3-0.1v-8.8h1.9V119.4z"/>
	<path class="st0" d="M54.8,109.7c0.2-0.1,0.6-0.3,1-0.5c0.5-0.2,1-0.2,1.6-0.2c0.8,0,1.4,0.1,2,0.4c0.6,0.3,1.1,0.6,1.5,1.1
		c0.4,0.5,0.7,1.1,0.9,1.7c0.2,0.7,0.3,1.4,0.3,2.2c0,0.8-0.1,1.6-0.4,2.3c-0.2,0.7-0.6,1.2-1.1,1.7c-0.5,0.5-1,0.8-1.6,1.1
		c-0.6,0.3-1.4,0.4-2.2,0.4c-0.9,0-1.6-0.1-2.3-0.2c-0.7-0.1-1.2-0.2-1.6-0.4v-15l1.9-0.3V109.7z M54.8,118c0.2,0.1,0.5,0.1,0.8,0.2
		s0.8,0.1,1.3,0.1c1,0,1.8-0.3,2.4-1s0.9-1.6,0.9-2.8c0-0.5-0.1-1-0.2-1.5c-0.1-0.5-0.3-0.9-0.5-1.2c-0.2-0.3-0.6-0.6-0.9-0.8
		c-0.4-0.2-0.8-0.3-1.4-0.3c-0.5,0-1,0.1-1.4,0.3c-0.4,0.2-0.8,0.4-1,0.5V118z"/>
	<path class="st0" d="M67.9,119.9c-1.2,0-2-0.3-2.5-0.7c-0.5-0.5-0.7-1.2-0.7-2.2v-12.5l1.9-0.3v12.6c0,0.3,0,0.6,0.1,0.8
		c0.1,0.2,0.1,0.4,0.3,0.5c0.1,0.1,0.3,0.2,0.5,0.3c0.2,0.1,0.4,0.1,0.7,0.2L67.9,119.9z"/>
	<path class="st0" d="M71.2,107.3c-0.3,0-0.6-0.1-0.9-0.3c-0.2-0.2-0.4-0.5-0.4-0.9s0.1-0.7,0.4-0.9c0.2-0.2,0.5-0.3,0.9-0.3
		c0.3,0,0.6,0.1,0.9,0.3c0.2,0.2,0.4,0.5,0.4,0.9s-0.1,0.7-0.4,0.9S71.5,107.3,71.2,107.3z M72.1,119.7h-1.9v-10.4h1.9V119.7z"/>
	<path class="st0" d="M77.8,118.3c0.8,0,1.3-0.1,1.7-0.3c0.4-0.2,0.6-0.5,0.6-1c0-0.5-0.2-0.8-0.5-1.1c-0.4-0.3-1-0.6-1.8-0.9
		c-0.4-0.2-0.8-0.3-1.2-0.5c-0.4-0.2-0.7-0.4-1-0.6c-0.3-0.2-0.5-0.5-0.6-0.8c-0.2-0.3-0.2-0.7-0.2-1.2c0-0.9,0.3-1.7,1-2.2
		c0.7-0.5,1.6-0.8,2.8-0.8c0.3,0,0.6,0,0.9,0c0.3,0,0.6,0.1,0.8,0.1c0.3,0,0.5,0.1,0.7,0.2c0.2,0.1,0.3,0.1,0.5,0.1L81,111
		c-0.2-0.1-0.5-0.2-0.9-0.3c-0.4-0.1-0.9-0.2-1.5-0.2c-0.5,0-1,0.1-1.4,0.3c-0.4,0.2-0.6,0.5-0.6,1c0,0.2,0,0.4,0.1,0.6
		s0.2,0.3,0.4,0.5s0.4,0.3,0.7,0.4c0.3,0.1,0.6,0.2,1,0.4c0.5,0.2,0.9,0.4,1.3,0.6c0.4,0.2,0.7,0.4,1,0.6c0.3,0.2,0.5,0.5,0.6,0.9
		c0.1,0.3,0.2,0.8,0.2,1.3c0,1-0.4,1.7-1.1,2.2s-1.7,0.7-3.1,0.7c-0.9,0-1.6-0.1-2.2-0.2c-0.5-0.2-0.9-0.3-1.1-0.4l0.3-1.6
		c0.2,0.1,0.6,0.2,1,0.4S77,118.3,77.8,118.3z"/>
	<path class="st0" d="M84.3,119.7v-15.3l1.9-0.3v5.3c0.3-0.1,0.7-0.2,1.1-0.3c0.4-0.1,0.8-0.1,1.2-0.1c0.8,0,1.5,0.1,2.1,0.4
		s1,0.6,1.3,1s0.6,0.9,0.7,1.5c0.1,0.6,0.2,1.2,0.2,1.9v5.9h-1.9v-5.5c0-0.6,0-1.2-0.1-1.6s-0.2-0.8-0.4-1.1
		c-0.2-0.3-0.5-0.5-0.8-0.6s-0.8-0.2-1.2-0.2c-0.2,0-0.4,0-0.6,0c-0.2,0-0.4,0.1-0.6,0.1c-0.2,0-0.4,0.1-0.5,0.1
		c-0.2,0-0.3,0.1-0.3,0.1v8.7H84.3z"/>
	<path class="st0" d="M95.2,114.5c0-0.9,0.1-1.7,0.4-2.4c0.3-0.7,0.6-1.3,1.1-1.7c0.4-0.5,1-0.8,1.5-1c0.6-0.2,1.2-0.3,1.8-0.3
		c1.4,0,2.5,0.4,3.2,1.3c0.7,0.9,1.1,2.2,1.1,4c0,0.1,0,0.2,0,0.3c0,0.1,0,0.2,0,0.4h-7.2c0.1,1.1,0.4,1.9,0.9,2.5s1.4,0.8,2.6,0.8
		c0.7,0,1.2-0.1,1.7-0.2c0.4-0.1,0.8-0.2,1-0.3l0.3,1.6c-0.2,0.1-0.6,0.2-1.2,0.4s-1.2,0.2-1.9,0.2c-0.9,0-1.7-0.1-2.4-0.4
		s-1.2-0.7-1.6-1.1s-0.7-1.1-1-1.7C95.3,116,95.2,115.3,95.2,114.5z M102.4,113.4c0-0.8-0.2-1.5-0.6-2.1c-0.4-0.5-1-0.8-1.8-0.8
		c-0.4,0-0.8,0.1-1.1,0.3c-0.3,0.2-0.6,0.4-0.8,0.7c-0.2,0.3-0.4,0.6-0.5,0.9c-0.1,0.3-0.2,0.7-0.3,1.1H102.4z"/>
	<path class="st0" d="M110.9,109c0.2,0,0.3,0,0.6,0c0.2,0,0.4,0,0.6,0.1c0.2,0,0.4,0.1,0.6,0.1c0.2,0,0.3,0.1,0.4,0.1l-0.3,1.6
		c-0.1-0.1-0.4-0.1-0.7-0.2c-0.3-0.1-0.8-0.1-1.3-0.1c-0.3,0-0.7,0-1,0.1c-0.3,0.1-0.6,0.1-0.7,0.2v8.8H107v-10
		c0.4-0.2,1-0.3,1.6-0.5S110,109,110.9,109z"/>
</g>
</svg>