<?xml version="1.0" encoding="UTF-8"?><svg xmlns="http://www.w3.org/2000/svg" xmlns:xlink="http://www.w3.org/1999/xlink" viewBox="0 0 176.19 147.95"><defs><style>.c{fill:url(#b);}.d{letter-spacing:0em;}.e{letter-spacing:0em;}.f,.g{fill:#0f5;}.h{letter-spacing:.02em;}.i{letter-spacing:0em;}.j{letter-spacing:.02em;}.k{letter-spacing:-.01em;}.l{letter-spacing:0em;}.m{letter-spacing:0em;}.n{font-family:Ubuntu-Bold, Ubuntu;mix-blend-mode:multiply;}.n,.o{fill:#010068;font-size:23px;}.p{letter-spacing:0em;}.o{font-family:Ubuntu-Regular, Ubuntu;}.q{isolation:isolate;}.r{letter-spacing:0em;}.g{opacity:.62;}.s{letter-spacing:0em;}.t{letter-spacing:.07em;}</style><linearGradient id="b" x1="85.49" y1="46.56" x2="111.31" y2="9.14" gradientTransform="translate(185.65 71.87) rotate(-180)" gradientUnits="userSpaceOnUse"><stop offset=".09" stop-color="#00bf5a"/><stop offset=".2" stop-color="#00ce58"/><stop offset=".5" stop-color="#00f156"/><stop offset=".66" stop-color="#0f5"/></linearGradient></defs><g class="q"><g id="a"><g><text class="n" transform="translate(7.75 128.17)"><tspan class="m" x="0" y="0">G</tspan><tspan class="e" x="16.23" y="0">r</tspan><tspan class="p" x="25.81" y="0">a</tspan><tspan class="l" x="38.53" y="0">F</tspan><tspan class="t" x="51.81" y="0">x</tspan></text><text class="o" transform="translate(73.85 128.17)"><tspan class="r" x="0" y="0">S</tspan><tspan class="h" x="12.28" y="0">t</tspan><tspan class="s" x="22" y="0">y</tspan><tspan class="k" x="33.41" y="0">l</tspan><tspan class="i" x="39.41" y="0">e</tspan><tspan x="52.11" y="0">k</tspan><tspan class="d" x="64.12" y="0">i</tspan><tspan class="j" x="69.8" y="0">t</tspan><tspan x="79.46" y="0">s</tspan></text><g><rect class="g" x="55.68" y="62.21" width="45.61" height="36.31" transform="translate(156.96 160.74) rotate(180)"/><rect class="c" x="70.02" y="17.78" width="45.61" height="36.31" transform="translate(185.65 71.87) rotate(180)"/><path class="f" d="M61,67.88l13.33,10.13,8.4,6.38,18.58,14.12h.01l9.19-11.94,2.11-2.74,2.11-2.74c2.61-3.4,4.12-7.29,4.61-11.25,.99-7.93-2.14-16.16-8.99-21.37l-21.74-16.51-18.6-14.13-9.19,11.95h0l-2.11,2.74-2.11,2.74c-7.85,10.21-5.89,24.81,4.38,32.62Z"/></g></g></g></g></svg>