<?xml version="1.0" encoding="UTF-8"?><svg id="Layer_1" xmlns="http://www.w3.org/2000/svg" xmlns:xlink="http://www.w3.org/1999/xlink" viewBox="0 0 125.36 127.62"><defs><style>.cls-1{fill:url(#linear-gradient);}.cls-2,.cls-3{fill:#fff;}.cls-4{fill:url(#linear-gradient-2);opacity:.9;}.cls-3{opacity:.7;}</style><linearGradient id="linear-gradient" x1="542.14" y1="-79.8" x2="653.99" y2="-21.89" gradientTransform="translate(-455.83 328.45) rotate(-20.65)" gradientUnits="userSpaceOnUse"><stop offset="0" stop-color="#ff8c00"/><stop offset=".19" stop-color="#ff7d00"/><stop offset=".55" stop-color="#ff5600"/><stop offset="1" stop-color="#ff1e00"/></linearGradient><linearGradient id="linear-gradient-2" x1="70.77" y1="72.44" x2="42.42" y2="49.51" gradientUnits="userSpaceOnUse"><stop offset=".05" stop-color="#ff6b1a"/><stop offset=".2" stop-color="#ff9d68" stop-opacity=".97"/><stop offset=".48" stop-color="#fff" stop-opacity=".9"/></linearGradient></defs><circle class="cls-1" cx="62.68" cy="67.2" r="44.63"/><path class="cls-3" d="M69.89,60.64l-3.62,4.24v7.91c1.03,.67,2.26,1.06,3.58,1.06,3.65,0,6.61-2.96,6.61-6.61s-2.94-6.58-6.57-6.6Z"/><polygon class="cls-2" points="63.33 68.32 47.65 86.72 66.27 86.72 66.27 72.8 66.27 64.88 63.33 68.32"/><path class="cls-4" d="M63.73,47.7c-8.92,.53-16.02,9.05-16.08,19.5v19.52l15.69-18.4,2.93-3.44,3.62-4.24,11.06-12.97s-16.92,0-17.22,.03Z"/></svg>