<?xml version="1.0" encoding="UTF-8"?><svg xmlns="http://www.w3.org/2000/svg" xmlns:xlink="http://www.w3.org/1999/xlink" viewBox="0 0 176.19 147.95"><defs><style>.cls-1{fill:url(#linear-gradient);}.cls-2{fill:#f8b6c0;}.cls-3{fill:#010068;}.cls-4{fill:#ff0048;}.cls-5{mix-blend-mode:multiply;}.cls-6{isolation:isolate;}</style><linearGradient id="linear-gradient" x1="67.6" y1="28.11" x2="126.23" y2="81.24" gradientUnits="userSpaceOnUse"><stop offset="0" stop-color="#fd0048"/><stop offset=".11" stop-color="#f60147"/><stop offset=".25" stop-color="#e50547"/><stop offset=".42" stop-color="#c80b46"/><stop offset=".6" stop-color="#a11445"/><stop offset=".8" stop-color="#6e1f44"/><stop offset=".81" stop-color="#6b2044"/></linearGradient></defs><g class="cls-6"><g id="Layer_1"><g class="cls-5"><path class="cls-3" d="M37.22,129c-2.59,0-4.56-.74-5.92-2.18s-2.02-3.49-2.02-6.15c0-1.32,.21-2.5,.63-3.53,.42-1.03,.99-1.91,1.71-2.62s1.58-1.25,2.58-1.61,2.08-.54,3.25-.54c.67,0,1.29,.05,1.84,.16,.55,.1,1.04,.22,1.45,.35,.41,.13,.76,.27,1.03,.41s.47,.25,.6,.32l-1.04,2.89c-.49-.26-1.06-.49-1.71-.67-.65-.19-1.39-.28-2.22-.28-.55,0-1.09,.09-1.62,.27-.53,.18-1,.48-1.41,.88-.41,.4-.74,.93-.98,1.57-.25,.64-.37,1.42-.38,2.34,0,.74,.08,1.42,.23,2.06s.42,1.19,.78,1.65c.36,.46,.83,.83,1.41,1.1,.58,.27,1.29,.41,2.11,.41,.52,0,.99-.03,1.4-.09,.41-.06,.78-.13,1.1-.21,.32-.08,.61-.18,.85-.29,.25-.11,.47-.21,.67-.3l.98,2.88c-.51,.3-1.22,.58-2.14,.82-.92,.24-1.99,.36-3.2,.36Z"/><path class="cls-3" d="M54.49,112.79h3.59s-.05,15.95-.05,15.95h-3.59s.02-6.77,.02-6.77l-6.03-.02-.02,6.76h-3.59s.05-15.95,.05-15.95h3.59s-.02,6.11-.02,6.11l6.03,.02,.02-6.1Z"/><path class="cls-3" d="M61.76,112.81h3.59s-.05,15.95-.05,15.95h-3.59s.05-15.95,.05-15.95Z"/><path class="cls-3" d="M79.65,125.72v3.08s-10.66-.03-10.66-.03l.05-15.94h3.59s-.04,12.87-.04,12.87l7.06,.02Z"/><path class="cls-3" d="M81.91,112.87h3.59s-.05,15.95-.05,15.95h-3.59s.05-15.95,.05-15.95Z"/><path class="cls-3" d="M100.08,121.03h2.23s-.02,7.46-.02,7.46c-.18,.06-.45,.13-.79,.21-.34,.07-.74,.15-1.2,.23-.45,.07-.95,.14-1.48,.19s-1.08,.08-1.63,.08c-1.12,0-2.14-.19-3.06-.56-.92-.37-1.71-.91-2.36-1.62-.66-.71-1.17-1.58-1.52-2.6-.36-1.03-.53-2.21-.53-3.54,0-1.33,.21-2.52,.62-3.55s.96-1.9,1.65-2.61c.69-.7,1.5-1.24,2.43-1.6s1.92-.55,2.98-.54c.72,0,1.36,.05,1.92,.14,.56,.09,1.04,.2,1.44,.33,.4,.12,.72,.25,.98,.37,.25,.12,.43,.22,.52,.28l-.72,1.86c-.44-.29-1.03-.54-1.77-.73-.74-.19-1.49-.29-2.25-.29-.81,0-1.55,.14-2.22,.43s-1.24,.71-1.71,1.26c-.47,.55-.83,1.22-1.1,2.01-.26,.79-.4,1.67-.4,2.66,0,.95,.11,1.82,.32,2.6,.22,.78,.56,1.46,1.01,2.02,.45,.56,1.01,1,1.67,1.3,.67,.31,1.45,.46,2.36,.47,.64,0,1.19-.03,1.64-.1s.78-.13,.98-.19l.02-5.93Z"/><path class="cls-3" d="M110.2,116.69c.18,0,.39,.01,.63,.04,.24,.02,.47,.05,.7,.09,.23,.04,.44,.08,.63,.12,.19,.04,.33,.07,.43,.1l-.37,1.86c-.17-.06-.45-.13-.84-.22-.39-.09-.89-.13-1.51-.13-.4,0-.79,.04-1.18,.12-.39,.08-.65,.14-.77,.17l-.03,10.05h-2.14s.04-11.46,.04-11.46c.51-.18,1.14-.35,1.89-.51,.75-.16,1.6-.24,2.53-.23Z"/><path class="cls-3" d="M118.38,116.67c.86,0,1.58,.12,2.17,.34,.59,.22,1.06,.54,1.42,.95s.61,.89,.77,1.45c.15,.56,.23,1.18,.22,1.85l-.02,7.47c-.18,.03-.44,.07-.77,.12s-.7,.1-1.12,.15c-.41,.04-.86,.09-1.35,.12-.48,.04-.96,.05-1.44,.05-.67,0-1.3-.07-1.86-.21-.57-.14-1.06-.36-1.47-.66s-.73-.7-.96-1.19c-.23-.49-.34-1.08-.34-1.77,0-.66,.14-1.23,.41-1.7,.27-.47,.64-.86,1.1-1.15,.46-.29,1-.5,1.61-.64,.61-.14,1.26-.2,1.93-.2,.21,0,.44,.01,.67,.04,.23,.02,.45,.05,.66,.09s.39,.07,.54,.11,.26,.05,.32,.07v-.6c0-.35-.03-.7-.11-1.05-.08-.35-.21-.65-.41-.92-.2-.27-.47-.49-.81-.65s-.79-.24-1.35-.25c-.71,0-1.32,.05-1.85,.14-.53,.1-.93,.2-1.19,.31l-.25-1.77c.28-.12,.74-.24,1.38-.35,.64-.11,1.34-.17,2.09-.17Zm.15,10.72c.51,0,.96,0,1.35-.03,.39-.02,.72-.06,.98-.12v-3.56c-.14-.08-.39-.14-.74-.2-.35-.05-.76-.08-1.25-.08-.32,0-.66,.02-1.02,.07s-.69,.14-.99,.28c-.3,.14-.55,.34-.75,.6-.2,.25-.3,.59-.3,1,0,.77,.24,1.3,.73,1.6,.49,.3,1.16,.45,2,.45Z"/><path class="cls-3" d="M126.61,128.95l.05-15.94,9.61,.03v1.91s-7.39-.02-7.39-.02v4.81s6.54,.02,6.54,.02v1.89s-6.56-.02-6.56-.02l-.02,7.34h-2.23Z"/><path class="cls-3" d="M145.26,129.01c-.17-.34-.37-.71-.62-1.13-.24-.42-.51-.84-.8-1.28-.29-.44-.59-.87-.89-1.3-.31-.43-.6-.84-.89-1.22-.29,.38-.59,.79-.9,1.23-.31,.44-.6,.87-.89,1.31-.28,.44-.55,.86-.8,1.27-.25,.41-.46,.78-.62,1.1h-2.21c.54-1.05,1.18-2.11,1.93-3.19,.75-1.08,1.49-2.11,2.23-3.09l-3.94-5.69h2.42s2.84,4.2,2.84,4.2l2.89-4.18h2.28s-3.88,5.54-3.88,5.54c.73,1,1.48,2.05,2.25,3.17,.77,1.11,1.42,2.2,1.96,3.26h-2.35Z"/></g><g><rect class="cls-2" x="97.38" y="57.8" width="30.46" height="40.52"/><path class="cls-1" d="M126.47,17.43h-37.8c-22.26,0-40.31,18.05-40.32,40.31,0,15.81,9.11,29.5,22.37,36.1,0,0,0,0,.01,0L127.47,17.43h-1Z"/><path class="cls-4" d="M97.59,57.67l30.12,40.49h-37.39c-10.64,0-15.79-2.51-19.65-4.34,2.74-3.7,26.93-36.15,26.93-36.15Z"/></g></g></g></svg>