<?xml version="1.0" encoding="UTF-8"?><svg xmlns="http://www.w3.org/2000/svg" xmlns:xlink="http://www.w3.org/1999/xlink" viewBox="0 0 176.19 147.95"><defs><style>.c{fill:url(#b);}.d{letter-spacing:.05em;}.e,.f{fill:#ff0048;}.g{font-family:Ubuntu-Bold, Ubuntu;mix-blend-mode:multiply;}.g,.h{fill:#010068;font-size:23px;}.h{font-family:Ubuntu-Regular, Ubuntu;}.i{isolation:isolate;}.f{opacity:.23;}</style><linearGradient id="b" x1="67.66" y1="28.11" x2="126.29" y2="81.24" gradientTransform="matrix(1, 0, 0, 1, 0, 0)" gradientUnits="userSpaceOnUse"><stop offset="0" stop-color="#fd0048"/><stop offset=".11" stop-color="#f60147"/><stop offset=".25" stop-color="#e50547"/><stop offset=".42" stop-color="#c80b46"/><stop offset=".6" stop-color="#a11445"/><stop offset=".8" stop-color="#6e1f44"/><stop offset=".81" stop-color="#6b2044"/></linearGradient></defs><g class="i"><g id="a"><g><text class="g" transform="translate(19.97 128.62) rotate(.18)"><tspan x="0" y="0">CHIL</tspan><tspan class="d" x="52" y="0">I</tspan></text><text class="h" transform="translate(80.38 128.81) rotate(.18)"><tspan x="0" y="0">publish</tspan></text><g><path class="f" d="M48.41,57.74h0c0,15.83,9.11,29.52,22.37,36.13v-.02h0c-13.26-6.61-22.36-20.29-22.37-36.11Z"/><path class="f" d="M126.53,17.43h-37.8c-22.26,0-40.31,18.05-40.32,40.31,0,15.81,9.11,29.5,22.37,36.1h.01L127.53,17.43h-1Z"/><path class="c" d="M126.53,17.43h-37.8c-22.26,0-40.31,18.05-40.32,40.31,0,15.81,9.11,29.5,22.37,36.1h.01L127.53,17.43h-1Z"/><path class="e" d="M97.65,57.67l30.12,40.49h-37.39c-10.64,0-15.79-2.51-19.65-4.34,2.74-3.7,26.93-36.15,26.93-36.15Z"/></g></g></g></g></svg>