<?xml version="1.0" encoding="utf-8"?>
<!-- Generator: Adobe Illustrator 26.0.1, SVG Export Plug-In . SVG Version: 6.00 Build 0)  -->
<svg version="1.1" id="Layer_1" xmlns="http://www.w3.org/2000/svg" xmlns:xlink="http://www.w3.org/1999/xlink" x="0px" y="0px"
	 viewBox="0 0 176.2 147.9" style="enable-background:new 0 0 176.2 147.9;" xml:space="preserve">
<style type="text/css">
	.st0{enable-background:new    ;}
	.st1{fill:#010068;}
	.st2{fill:#F8B6C0;}
	.st3{fill:url(#SVGID_1_);}
	.st4{fill:#FF0048;}
</style>
<g>
	<g id="a">
		<g class="st0">
			<path class="st1" d="M37.1,128.4c-2.6,0-4.6-0.7-5.9-2.2c-1.4-1.4-2-3.5-2-6.1c0-1.3,0.2-2.5,0.6-3.5c0.4-1,1-1.9,1.7-2.6
				c0.7-0.7,1.6-1.2,2.6-1.6c1-0.4,2.1-0.5,3.2-0.5c0.7,0,1.3,0.1,1.8,0.2c0.6,0.1,1,0.2,1.4,0.3c0.4,0.1,0.8,0.3,1,0.4
				s0.5,0.2,0.6,0.3l-1,2.9c-0.5-0.3-1.1-0.5-1.7-0.7c-0.7-0.2-1.4-0.3-2.2-0.3c-0.6,0-1.1,0.1-1.6,0.3c-0.5,0.2-1,0.5-1.4,0.9
				c-0.4,0.4-0.7,0.9-1,1.6c-0.2,0.6-0.4,1.4-0.4,2.3c0,0.7,0.1,1.4,0.2,2.1c0.2,0.6,0.4,1.2,0.8,1.6c0.4,0.5,0.8,0.8,1.4,1.1
				c0.6,0.3,1.3,0.4,2.1,0.4c0.5,0,1,0,1.4-0.1c0.4-0.1,0.8-0.1,1.1-0.2c0.3-0.1,0.6-0.2,0.9-0.3s0.5-0.2,0.7-0.3l1,2.9
				c-0.5,0.3-1.2,0.6-2.1,0.8C39.4,128.3,38.3,128.4,37.1,128.4z"/>
		</g>
		<g class="st0">
			<path class="st1" d="M54.4,112.2l3.6,0l-0.1,15.9l-3.6,0l0-6.8l-6,0l0,6.8l-3.6,0l0.1-15.9l3.6,0l0,6.1l6,0L54.4,112.2z"/>
			<path class="st1" d="M61.6,112.2l3.6,0l-0.1,15.9l-3.6,0L61.6,112.2z"/>
		</g>
		<g class="st0">
			<path class="st1" d="M79.5,125.1l0,3.1l-10.6,0l0.1-15.9l3.6,0l0,12.9L79.5,125.1z"/>
		</g>
		<g class="st0">
			<path class="st1" d="M81.8,112.2l3.6,0l-0.1,15.9l-3.6,0L81.8,112.2z"/>
		</g>
		<g class="st0">
			<path class="st1" d="M100,120.4l2.2,0l0,7.5c-0.2,0.1-0.4,0.1-0.8,0.2c-0.3,0.1-0.7,0.2-1.2,0.2c-0.5,0.1-0.9,0.1-1.5,0.2
				c-0.5,0.1-1.1,0.1-1.6,0.1c-1.1,0-2.1-0.2-3.1-0.6c-0.9-0.4-1.7-0.9-2.4-1.6c-0.7-0.7-1.2-1.6-1.5-2.6c-0.4-1-0.5-2.2-0.5-3.5
				s0.2-2.5,0.6-3.6c0.4-1,1-1.9,1.7-2.6s1.5-1.2,2.4-1.6c0.9-0.4,1.9-0.5,3-0.5c0.7,0,1.4,0.1,1.9,0.1c0.6,0.1,1,0.2,1.4,0.3
				c0.4,0.1,0.7,0.2,1,0.4c0.3,0.1,0.4,0.2,0.5,0.3l-0.7,1.9c-0.4-0.3-1-0.5-1.8-0.7c-0.7-0.2-1.5-0.3-2.3-0.3
				c-0.8,0-1.6,0.1-2.2,0.4s-1.2,0.7-1.7,1.3c-0.5,0.6-0.8,1.2-1.1,2c-0.3,0.8-0.4,1.7-0.4,2.7c0,1,0.1,1.8,0.3,2.6
				c0.2,0.8,0.6,1.5,1,2c0.5,0.6,1,1,1.7,1.3c0.7,0.3,1.5,0.5,2.4,0.5c0.6,0,1.2,0,1.6-0.1c0.5-0.1,0.8-0.1,1-0.2L100,120.4z"/>
		</g>
		<g class="st0">
			<path class="st1" d="M110.1,116.1c0.2,0,0.4,0,0.6,0c0.2,0,0.5,0.1,0.7,0.1c0.2,0,0.4,0.1,0.6,0.1c0.2,0,0.3,0.1,0.4,0.1
				l-0.4,1.9c-0.2-0.1-0.4-0.1-0.8-0.2c-0.4-0.1-0.9-0.1-1.5-0.1c-0.4,0-0.8,0-1.2,0.1c-0.4,0.1-0.6,0.1-0.8,0.2l0,10.1l-2.1,0
				l0-11.5c0.5-0.2,1.1-0.4,1.9-0.5C108.3,116.1,109.1,116.1,110.1,116.1z"/>
		</g>
		<g class="st0">
			<path class="st1" d="M118.3,116c0.9,0,1.6,0.1,2.2,0.3c0.6,0.2,1.1,0.5,1.4,0.9c0.4,0.4,0.6,0.9,0.8,1.5c0.2,0.6,0.2,1.2,0.2,1.9
				l0,7.5c-0.2,0-0.4,0.1-0.8,0.1s-0.7,0.1-1.1,0.1c-0.4,0-0.9,0.1-1.3,0.1c-0.5,0-1,0.1-1.4,0.1c-0.7,0-1.3-0.1-1.9-0.2
				c-0.6-0.1-1.1-0.4-1.5-0.7c-0.4-0.3-0.7-0.7-1-1.2c-0.2-0.5-0.3-1.1-0.3-1.8c0-0.7,0.1-1.2,0.4-1.7c0.3-0.5,0.6-0.9,1.1-1.1
				c0.5-0.3,1-0.5,1.6-0.6c0.6-0.1,1.3-0.2,1.9-0.2c0.2,0,0.4,0,0.7,0c0.2,0,0.4,0.1,0.7,0.1s0.4,0.1,0.5,0.1c0.2,0,0.3,0.1,0.3,0.1
				l0-0.6c0-0.4,0-0.7-0.1-1c-0.1-0.3-0.2-0.7-0.4-0.9c-0.2-0.3-0.5-0.5-0.8-0.6c-0.3-0.2-0.8-0.2-1.3-0.2c-0.7,0-1.3,0-1.9,0.1
				c-0.5,0.1-0.9,0.2-1.2,0.3l-0.2-1.8c0.3-0.1,0.7-0.2,1.4-0.4C116.8,116.1,117.5,116,118.3,116z M118.4,126.8c0.5,0,1,0,1.3,0
				c0.4,0,0.7-0.1,1-0.1l0-3.6c-0.2-0.1-0.4-0.1-0.7-0.2c-0.3-0.1-0.8-0.1-1.3-0.1c-0.3,0-0.7,0-1,0.1s-0.7,0.1-1,0.3
				c-0.3,0.1-0.5,0.3-0.7,0.6c-0.2,0.3-0.3,0.6-0.3,1c0,0.8,0.2,1.3,0.7,1.6C116.9,126.6,117.6,126.8,118.4,126.8z"/>
		</g>
		<g class="st0">
			<path class="st1" d="M126.5,128.3l0-15.9l9.6,0l0,1.9l-7.4,0l0,4.8l6.6,0l0,1.9l-6.6,0l0,7.3L126.5,128.3z"/>
		</g>
		<g class="st0">
			<path class="st1" d="M145.1,128.4c-0.2-0.3-0.4-0.7-0.6-1.1c-0.2-0.4-0.5-0.8-0.8-1.3c-0.3-0.4-0.6-0.9-0.9-1.3
				c-0.3-0.4-0.6-0.8-0.9-1.2c-0.3,0.4-0.6,0.8-0.9,1.2c-0.3,0.4-0.6,0.9-0.9,1.3c-0.3,0.4-0.6,0.9-0.8,1.3
				c-0.2,0.4-0.5,0.8-0.6,1.1l-2.2,0c0.5-1,1.2-2.1,1.9-3.2c0.7-1.1,1.5-2.1,2.2-3.1l-3.9-5.7l2.4,0l2.8,4.2l2.9-4.2l2.3,0l-3.9,5.5
				c0.7,1,1.5,2.1,2.3,3.2c0.8,1.1,1.4,2.2,2,3.3L145.1,128.4z"/>
		</g>
		<g>
			<rect x="97.2" y="58.2" class="st2" width="30.5" height="40.5"/>
			
				<linearGradient id="SVGID_1_" gradientUnits="userSpaceOnUse" x1="67.4817" y1="120.1333" x2="126.1117" y2="67.0133" gradientTransform="matrix(1 0 0 -1 0 148.6614)">
				<stop  offset="0" style="stop-color:#FD0048"/>
				<stop  offset="0.11" style="stop-color:#F60147"/>
				<stop  offset="0.25" style="stop-color:#E50547"/>
				<stop  offset="0.42" style="stop-color:#C80B46"/>
				<stop  offset="0.6" style="stop-color:#A11445"/>
				<stop  offset="0.8" style="stop-color:#6E1F44"/>
				<stop  offset="0.81" style="stop-color:#6B2044"/>
			</linearGradient>
			<path class="st3" d="M126.3,17.8H88.6c-22.3,0-40.3,18.1-40.3,40.3c0,15.8,9.1,29.5,22.4,36.1h0l56.7-76.4H126.3z"/>
			<path class="st4" d="M97.5,58.1l30.1,40.5H90.2c-10.6,0-15.8-2.5-19.7-4.3C73.3,90.5,97.5,58.1,97.5,58.1L97.5,58.1z"/>
		</g>
	</g>
</g>
</svg>
