<?xml version="1.0" encoding="UTF-8"?><svg xmlns="http://www.w3.org/2000/svg" xmlns:xlink="http://www.w3.org/1999/xlink" viewBox="0 0 176.19 147.95"><defs><style>.cls-1{fill:url(#linear-gradient);}.cls-2{fill:#010068;}.cls-3{fill:#ff8c00;}.cls-4{mix-blend-mode:multiply;}.cls-5{isolation:isolate;}.cls-6{fill:#ff6b1a;opacity:.76;}</style><linearGradient id="linear-gradient" x1="73.17" y1="36.62" x2="105.52" y2="63.75" gradientUnits="userSpaceOnUse"><stop offset=".44" stop-color="#ff8c00"/><stop offset=".53" stop-color="#ff8500"/><stop offset=".65" stop-color="#ff7400"/><stop offset=".79" stop-color="#ff5700"/><stop offset=".94" stop-color="#ff3000"/><stop offset="1" stop-color="#ff1e00"/></linearGradient></defs><g class="cls-5"><g id="Layer_1"><g class="cls-4"><path class="cls-2" d="M35.96,115.42c-1.67,0-2.88,.46-3.62,1.39-.74,.93-1.12,2.2-1.12,3.81,0,.78,.09,1.49,.28,2.13,.18,.64,.46,1.18,.83,1.64,.37,.46,.83,.82,1.38,1.07,.55,.25,1.2,.38,1.93,.38,.4,0,.74,0,1.02-.02,.28-.01,.53-.05,.75-.09v-5.54h3.59v7.89c-.43,.17-1.12,.35-2.07,.54-.95,.19-2.12,.29-3.52,.29-1.2,0-2.28-.18-3.25-.55s-1.81-.9-2.5-1.61c-.69-.71-1.22-1.57-1.6-2.6-.38-1.03-.56-2.2-.56-3.52s.21-2.51,.62-3.54c.41-1.03,.98-1.9,1.7-2.61s1.57-1.25,2.54-1.62,2.01-.55,3.12-.55c.75,0,1.43,.05,2.04,.15,.61,.1,1.13,.21,1.56,.34,.44,.13,.8,.26,1.08,.4,.28,.14,.49,.25,.61,.32l-1.04,2.88c-.49-.26-1.05-.49-1.69-.68-.64-.19-1.33-.29-2.08-.29Z"/><path class="cls-2" d="M51.39,119.54c-.31-.08-.67-.16-1.08-.24-.41-.08-.86-.13-1.33-.13-.21,0-.47,.02-.77,.06-.3,.04-.53,.08-.68,.13v9.25h-3.43v-11.45c.61-.21,1.34-.42,2.17-.61s1.77-.29,2.79-.29c.18,0,.41,.01,.67,.03,.26,.02,.52,.05,.78,.09,.26,.04,.52,.08,.78,.14,.26,.05,.48,.12,.67,.2l-.57,2.83Z"/><path class="cls-2" d="M57.92,116.18c1.01,0,1.86,.12,2.53,.34,.67,.23,1.21,.56,1.62,.99,.41,.43,.69,.95,.86,1.56,.17,.61,.25,1.3,.25,2.05v7.13c-.49,.11-1.17,.23-2.05,.38s-1.93,.22-3.17,.22c-.78,0-1.49-.07-2.13-.21-.64-.14-1.18-.36-1.64-.68-.46-.31-.81-.72-1.06-1.23s-.37-1.13-.37-1.86,.14-1.3,.43-1.79c.28-.49,.66-.88,1.14-1.17,.47-.29,1.02-.5,1.63-.63,.61-.13,1.25-.2,1.91-.2,.44,0,.84,.02,1.18,.06,.34,.04,.62,.09,.84,.15v-.32c0-.58-.18-1.05-.53-1.4-.35-.35-.97-.53-1.84-.53-.58,0-1.16,.04-1.73,.13s-1.06,.2-1.47,.36l-.44-2.76c.2-.06,.45-.13,.75-.2,.3-.07,.62-.13,.98-.18,.35-.05,.72-.1,1.12-.14s.79-.06,1.18-.06Zm.28,10.03c.34,0,.66,0,.97-.02,.31-.01,.55-.04,.74-.07v-2.6c-.14-.03-.34-.06-.62-.09-.28-.03-.53-.05-.76-.05-.32,0-.62,.02-.91,.06-.28,.04-.53,.11-.75,.22-.21,.11-.38,.25-.51,.44-.12,.18-.18,.41-.18,.69,0,.54,.18,.91,.54,1.12s.86,.31,1.48,.31Z"/><path class="cls-2" d="M66.52,128.6v-15.94h10.67v3.01h-7.08v3.33h6.3v3.01h-6.3v6.58h-3.59Z"/><path class="cls-2" d="M84.06,119.89l2.4-3.39h3.54l-4.2,5.88c.96,1.11,1.82,2.2,2.56,3.29s1.35,2.07,1.8,2.92h-3.67c-.12-.23-.28-.52-.46-.86-.18-.35-.39-.71-.62-1.08-.23-.38-.47-.69-.72-.96-.25-.26-.5-.5-.74-.71-.23,.2-.47,.42-.71,.66s-.47,.54-.68,.9-.43,.72-.63,1.07c-.21,.35-.39,.68-.55,.99h-3.49c.19-.38,.45-.83,.76-1.35s.66-1.07,1.04-1.62c.38-.56,.79-1.1,1.22-1.63,.44-.53,.87-1.02,1.29-1.48-.75-1.07-1.48-2.1-2.17-3.08-.69-.99-1.38-1.96-2.06-2.92h3.7l2.38,3.39Z"/><path class="cls-2" d="M93.52,128.6v-15.94h9.61v1.91h-7.38v4.81h6.55v1.89h-6.55v7.34h-2.23Z"/><path class="cls-2" d="M115.97,122.62c0,.95-.14,1.81-.41,2.58-.28,.77-.66,1.43-1.16,1.98s-1.09,.98-1.78,1.28c-.69,.3-1.44,.45-2.25,.45s-1.56-.15-2.25-.45c-.69-.3-1.29-.72-1.78-1.28s-.88-1.21-1.16-1.98c-.28-.77-.41-1.62-.41-2.58s.14-1.79,.41-2.56c.28-.77,.66-1.44,1.16-1.99s1.09-.98,1.78-1.28c.69-.3,1.44-.45,2.25-.45s1.56,.15,2.25,.45c.69,.3,1.28,.72,1.78,1.28s.89,1.22,1.16,1.99c.28,.77,.41,1.63,.41,2.56Zm-2.23,0c0-1.35-.3-2.42-.91-3.21-.61-.79-1.43-1.18-2.47-1.18s-1.87,.39-2.47,1.18-.91,1.86-.91,3.21,.3,2.42,.91,3.21,1.43,1.18,2.47,1.18,1.87-.39,2.47-1.18c.61-.79,.91-1.86,.91-3.21Z"/><path class="cls-2" d="M118.98,116.98c.49-.12,1.14-.25,1.96-.39s1.75-.21,2.81-.21c.95,0,1.74,.13,2.37,.4,.63,.27,1.13,.64,1.51,1.13,.38,.48,.64,1.06,.79,1.74,.15,.67,.23,1.42,.23,2.23v6.72h-2.14v-6.26c0-.74-.05-1.36-.15-1.89s-.26-.94-.49-1.27c-.23-.32-.54-.56-.92-.7-.38-.15-.86-.22-1.43-.22-.23,0-.47,0-.71,.02-.25,.02-.48,.03-.7,.06-.22,.02-.42,.05-.6,.08-.18,.03-.3,.05-.38,.07v10.1h-2.14v-11.62Z"/><path class="cls-2" d="M134.18,116.64h4.53v1.79h-4.53v5.52c0,.6,.05,1.09,.14,1.48,.09,.39,.23,.7,.41,.92,.18,.22,.41,.38,.69,.47,.28,.09,.6,.14,.97,.14,.64,0,1.16-.07,1.55-.22,.39-.15,.66-.25,.82-.31l.41,1.77c-.21,.11-.59,.24-1.13,.4-.54,.16-1.15,.24-1.84,.24-.81,0-1.48-.1-2.01-.31s-.95-.52-1.28-.93-.55-.92-.68-1.53c-.13-.61-.2-1.31-.2-2.1v-10.67l2.14-.37v3.7Z"/><path class="cls-2" d="M144.21,127.06c.87,0,1.52-.12,1.94-.34,.42-.23,.63-.6,.63-1.1s-.21-.93-.62-1.24c-.41-.31-1.1-.65-2.05-1.03-.46-.18-.9-.37-1.32-.56-.42-.19-.79-.42-1.09-.68-.31-.26-.55-.58-.74-.94-.18-.37-.28-.82-.28-1.36,0-1.06,.39-1.9,1.17-2.52,.78-.62,1.85-.93,3.2-.93,.34,0,.67,.02,1.01,.06,.34,.04,.65,.08,.94,.14s.55,.11,.77,.17,.39,.11,.52,.16l-.39,1.84c-.23-.12-.59-.25-1.08-.38-.49-.13-1.08-.2-1.77-.2-.6,0-1.12,.12-1.56,.36-.45,.24-.67,.61-.67,1.12,0,.26,.05,.49,.15,.69s.25,.38,.46,.54,.46,.31,.77,.45c.31,.14,.67,.28,1.1,.44,.57,.21,1.07,.43,1.52,.63,.44,.21,.82,.45,1.14,.72,.31,.28,.56,.61,.72,1,.17,.39,.25,.87,.25,1.44,0,1.1-.41,1.94-1.23,2.51-.82,.57-1.99,.85-3.51,.85-1.06,0-1.89-.09-2.48-.26-.6-.18-1-.31-1.22-.4l.39-1.84c.25,.09,.64,.23,1.17,.41,.54,.18,1.25,.28,2.14,.28Z"/></g><g><path class="cls-6" d="M109.72,44.11l-7.45,8.74v16.3c2.12,1.37,4.65,2.18,7.37,2.18,7.51,0,13.61-6.09,13.61-13.61s-6.05-13.56-13.52-13.6Z"/><polygon class="cls-3" points="96.22 59.93 63.91 97.82 102.27 97.82 102.27 69.14 102.27 52.84 96.22 59.93"/><path class="cls-1" d="M97.03,17.46c-18.38,1.1-32.99,18.63-33.12,40.16v40.21l32.31-37.89,6.04-7.09,7.45-8.74,22.77-26.7s-34.85,.02-35.46,.06Z"/></g></g></g></svg>