<?xml version="1.0" encoding="UTF-8"?><svg id="a" xmlns="http://www.w3.org/2000/svg" xmlns:xlink="http://www.w3.org/1999/xlink" viewBox="0 0 125.36 127.62"><defs><style>.d{fill:url(#c);}.e{fill:url(#b);}.f,.g{fill:#fff;}.g{opacity:.62;}</style><linearGradient id="b" x1="4074.01" y1="-1079.08" x2="4163.28" y2="-1079.08" gradientTransform="translate(4178.65 -1015.27) rotate(-180)" gradientUnits="userSpaceOnUse"><stop offset="0" stop-color="#00bf5a"/><stop offset=".3" stop-color="#00d55a"/><stop offset=".68" stop-color="#00ec5a"/><stop offset=".92" stop-color="#00f55a"/></linearGradient><linearGradient id="c" x1="75.05" y1="36.68" x2="52.65" y2="66.59" gradientTransform="translate(0 0)" gradientUnits="userSpaceOnUse"><stop offset=".26" stop-color="#fff"/><stop offset=".43" stop-color="#9ee6c0"/><stop offset=".69" stop-color="#00bf5a"/></linearGradient></defs><circle class="e" cx="60" cy="63.81" r="44.63"/><rect class="d" x="50.86" y="39.99" width="27.15" height="21.74"/><rect class="g" x="42.34" y="66.59" width="27.15" height="21.74"/><path class="f" d="M45.49,69.99l7.94,6.07,5,3.82,11.06,8.45h0l5.47-7.15,1.25-1.64,1.25-1.64c1.56-2.04,2.45-4.36,2.74-6.73,.59-4.75-1.27-9.68-5.35-12.8l-12.94-9.89-11.07-8.46-5.47,7.15h0l-1.25,1.64-1.25,1.64c-4.67,6.11-3.5,14.86,2.61,19.53Z"/></svg>