<?xml version="1.0" encoding="UTF-8"?><svg id="Layer_1" xmlns="http://www.w3.org/2000/svg" xmlns:xlink="http://www.w3.org/1999/xlink" viewBox="0 0 176.2 147.9"><defs><style>.cls-1{fill:url(#linear-gradient);opacity:.9;}.cls-1,.cls-2,.cls-3{isolation:isolate;}.cls-4,.cls-2{fill:#fff;}.cls-2{opacity:.6;}</style><linearGradient id="linear-gradient" x1="130.59" y1="698.75" x2="46.43" y2="634.2" gradientTransform="translate(0 -618)" gradientUnits="userSpaceOnUse"><stop offset=".03" stop-color="#6b2044"/><stop offset=".15" stop-color="#915974"/><stop offset=".31" stop-color="#bfa0af"/><stop offset=".44" stop-color="#e2d3da"/><stop offset=".54" stop-color="#f7f3f5"/><stop offset=".6" stop-color="#fff"/></linearGradient></defs><g class="cls-3"><path class="cls-4" d="M37.22,128.37c-2.59,0-4.56-.74-5.92-2.18-1.35-1.45-2.02-3.5-2.02-6.15,0-1.32,.21-2.49,.63-3.53s.99-1.91,1.71-2.62c.72-.71,1.58-1.25,2.58-1.61s2.08-.55,3.25-.54c.67,0,1.29,.05,1.84,.16,.55,.1,1.04,.22,1.45,.35,.41,.13,.76,.27,1.03,.41,.28,.14,.47,.25,.6,.32l-1.04,2.89c-.49-.26-1.06-.49-1.71-.67-.65-.19-1.39-.28-2.22-.28-.55,0-1.09,.09-1.62,.27-.53,.18-1,.48-1.41,.88-.41,.41-.74,.93-.98,1.57-.25,.64-.37,1.43-.38,2.35,0,.74,.08,1.42,.24,2.06,.16,.64,.42,1.19,.78,1.65,.36,.46,.83,.83,1.41,1.1,.58,.27,1.29,.41,2.12,.41,.52,0,.99-.03,1.4-.09,.41-.06,.78-.13,1.1-.21,.32-.08,.61-.18,.85-.29,.25-.11,.47-.21,.67-.3l.98,2.88c-.51,.3-1.22,.58-2.14,.82s-1.99,.36-3.2,.36Z"/></g><g class="cls-3"><path class="cls-4" d="M54.48,112.16h3.59s-.05,15.95-.05,15.95h-3.59s.02-6.77,.02-6.77l-6.03-.02-.02,6.76h-3.59s.05-15.95,.05-15.95h3.59s-.02,6.11-.02,6.11l6.03,.02,.02-6.1Z"/><path class="cls-4" d="M61.75,112.19h3.59s-.05,15.95-.05,15.95h-3.59s.05-15.95,.05-15.95Z"/></g><g class="cls-3"><path class="cls-4" d="M79.65,125.1v3.08s-10.66-.03-10.66-.03l.05-15.94h3.59s-.04,12.87-.04,12.87l7.06,.02Z"/></g><g class="cls-3"><path class="cls-4" d="M81.91,112.25h3.59s-.05,15.95-.05,15.95h-3.59s.05-15.95,.05-15.95Z"/></g><g class="cls-3"><path class="cls-4" d="M100.08,120.39h2.23s-.02,7.46-.02,7.46c-.18,.06-.45,.13-.79,.21-.35,.08-.75,.15-1.2,.23-.45,.07-.95,.14-1.48,.19s-1.08,.08-1.63,.08c-1.12,0-2.14-.19-3.06-.56-.92-.37-1.71-.91-2.37-1.62-.66-.71-1.16-1.57-1.52-2.6-.36-1.03-.53-2.21-.53-3.54,0-1.33,.21-2.52,.62-3.55,.41-1.03,.96-1.9,1.65-2.61,.69-.7,1.5-1.24,2.43-1.6,.93-.37,1.92-.55,2.98-.54,.72,0,1.36,.05,1.92,.14,.56,.09,1.04,.2,1.44,.33,.4,.12,.72,.25,.98,.37,.25,.12,.42,.22,.52,.28l-.72,1.86c-.44-.29-1.03-.54-1.77-.73s-1.49-.29-2.25-.29c-.81,0-1.55,.14-2.22,.43-.67,.29-1.24,.71-1.71,1.26-.47,.55-.84,1.22-1.1,2.01-.26,.79-.4,1.67-.4,2.65,0,.95,.1,1.82,.33,2.6,.22,.78,.55,1.46,1.01,2.02,.45,.56,1.01,1,1.67,1.3,.67,.31,1.45,.46,2.36,.47,.64,0,1.19-.03,1.64-.1,.45-.07,.78-.13,.98-.19l.02-5.93Z"/></g><g class="cls-3"><path class="cls-4" d="M110.19,116.06c.18,0,.39,.01,.63,.04,.24,.02,.47,.05,.7,.09,.23,.04,.44,.08,.63,.12s.33,.07,.42,.1l-.37,1.86c-.17-.06-.45-.13-.84-.22-.39-.08-.89-.13-1.51-.13-.4,0-.79,.04-1.18,.12s-.65,.14-.77,.17l-.03,10.05h-2.14s.04-11.46,.04-11.46c.51-.18,1.14-.35,1.89-.51,.75-.16,1.6-.24,2.53-.23Z"/></g><g class="cls-3"><path class="cls-4" d="M118.37,116.04c.86,0,1.58,.12,2.17,.34,.59,.22,1.06,.54,1.42,.95,.36,.41,.61,.89,.77,1.45,.15,.56,.23,1.18,.22,1.85l-.02,7.47c-.18,.03-.44,.07-.77,.12-.33,.05-.7,.1-1.12,.15-.41,.04-.86,.09-1.35,.12-.48,.04-.96,.05-1.44,.05-.67,0-1.3-.07-1.86-.21-.57-.14-1.06-.36-1.47-.66-.41-.3-.73-.7-.96-1.19s-.34-1.08-.34-1.77c0-.66,.14-1.23,.41-1.7,.27-.47,.63-.86,1.1-1.15,.46-.29,1-.5,1.61-.64,.61-.14,1.26-.2,1.93-.2,.21,0,.44,.01,.67,.04,.23,.02,.45,.05,.66,.09s.39,.07,.54,.11c.15,.03,.26,.05,.32,.07v-.6c0-.35-.03-.7-.11-1.05-.08-.35-.21-.65-.41-.92-.2-.27-.47-.48-.81-.65-.34-.16-.79-.24-1.34-.25-.71,0-1.32,.05-1.85,.14-.53,.1-.92,.2-1.19,.31l-.25-1.77c.28-.12,.74-.24,1.38-.35,.64-.11,1.34-.17,2.09-.17Zm.15,10.72c.51,0,.95,0,1.35-.03,.39-.02,.72-.06,.98-.12v-3.56c-.14-.08-.39-.14-.74-.2-.34-.05-.76-.08-1.25-.08-.32,0-.66,.02-1.02,.07s-.69,.14-.99,.28-.55,.34-.75,.59c-.2,.25-.3,.59-.3,1,0,.77,.24,1.3,.73,1.6,.49,.3,1.16,.45,2,.45Z"/></g><g class="cls-3"><path class="cls-4" d="M126.61,128.32l.05-15.94,9.61,.03v1.91s-7.39-.02-7.39-.02v4.81s6.54,.02,6.54,.02v1.89s-6.56-.02-6.56-.02l-.02,7.34h-2.23Z"/></g><g class="cls-3"><path class="cls-4" d="M145.26,128.38c-.17-.34-.37-.71-.62-1.13s-.51-.84-.8-1.28c-.29-.44-.59-.87-.89-1.3-.31-.43-.6-.84-.89-1.22-.29,.38-.59,.79-.9,1.23-.31,.44-.61,.87-.89,1.31-.29,.44-.55,.86-.8,1.28-.25,.41-.46,.78-.62,1.1h-2.21c.54-1.05,1.18-2.11,1.93-3.19,.75-1.08,1.49-2.11,2.23-3.09l-3.94-5.69h2.42s2.84,4.2,2.84,4.2l2.89-4.18h2.28s-3.88,5.54-3.88,5.54c.73,1,1.48,2.06,2.25,3.17s1.42,2.2,1.96,3.26h-2.35Z"/></g><g><polygon class="cls-2" points="128.3 58 97.7 58 97.6 58.1 127.7 98.5 128.3 98.5 128.3 58"/><path class="cls-1" d="M126.5,17.9h-37.8c-22.2,0-40.3,18-40.3,40.3,0,15.8,9.1,29.4,22.3,36,2.4-3.2,20.7-27.8,25.6-34.4l.9-1.2,.4-.5,29.8-40.1-.9-.1h0Z"/><path class="cls-4" d="M127.7,98.5l-30.1-40.5s-.1,.2-.3,.5c-.2,.3-.5,.7-.9,1.2l-25.6,34.5h0c3.8,1.8,9,4.3,19.6,4.3h37.3Z"/></g></svg>