<?xml version="1.0" encoding="UTF-8"?><svg xmlns="http://www.w3.org/2000/svg" xmlns:xlink="http://www.w3.org/1999/xlink" viewBox="0 0 176.19 147.95"><defs><style>.cls-1{fill:url(#linear-gradient);}.cls-2{fill:#010068;}.cls-3{fill:#74e5d3;}.cls-4{mix-blend-mode:multiply;}.cls-5{isolation:isolate;}</style><linearGradient id="linear-gradient" x1="65.46" y1="26.94" x2="127.62" y2="73.18" gradientUnits="userSpaceOnUse"><stop offset="0" stop-color="#74e5d3"/><stop offset=".13" stop-color="#6ce0cd"/><stop offset=".32" stop-color="#57d3be"/><stop offset=".55" stop-color="#34bfa6"/><stop offset=".81" stop-color="#05a384"/><stop offset=".84" stop-color="#00a081"/></linearGradient></defs><g class="cls-5"><g id="Layer_1"><g class="cls-4"><path class="cls-2" d="M31.3,115.52c-1.67,0-2.88,.46-3.62,1.39-.74,.93-1.12,2.2-1.12,3.81,0,.78,.09,1.49,.28,2.13,.18,.64,.46,1.18,.83,1.64,.37,.46,.83,.82,1.38,1.07,.55,.25,1.2,.38,1.93,.38,.4,0,.74,0,1.02-.02,.28-.01,.53-.05,.75-.09v-5.54h3.59v7.89c-.43,.17-1.12,.35-2.07,.54-.95,.19-2.12,.29-3.52,.29-1.2,0-2.28-.18-3.25-.55s-1.81-.9-2.5-1.61c-.69-.71-1.22-1.57-1.6-2.6-.38-1.03-.56-2.2-.56-3.52s.21-2.51,.62-3.54c.41-1.03,.98-1.9,1.7-2.61s1.57-1.25,2.54-1.62,2.01-.55,3.12-.55c.75,0,1.43,.05,2.04,.15,.61,.1,1.13,.21,1.56,.34,.44,.13,.8,.26,1.08,.4,.28,.14,.49,.25,.61,.32l-1.04,2.88c-.49-.26-1.05-.49-1.69-.68-.64-.19-1.33-.29-2.08-.29Z"/><path class="cls-2" d="M46.73,119.64c-.31-.08-.67-.16-1.08-.24-.41-.08-.86-.13-1.33-.13-.21,0-.47,.02-.77,.06-.3,.04-.53,.08-.68,.13v9.25h-3.43v-11.45c.61-.21,1.34-.42,2.17-.61s1.77-.29,2.79-.29c.18,0,.41,.01,.67,.03,.26,.02,.52,.05,.78,.09,.26,.04,.52,.08,.78,.14,.26,.05,.48,.12,.67,.2l-.57,2.83Z"/><path class="cls-2" d="M53.26,116.28c1.01,0,1.86,.12,2.53,.34,.67,.23,1.21,.56,1.62,.99,.41,.43,.69,.95,.86,1.56,.17,.61,.25,1.3,.25,2.05v7.13c-.49,.11-1.17,.23-2.05,.38s-1.93,.22-3.17,.22c-.78,0-1.49-.07-2.13-.21-.64-.14-1.18-.36-1.64-.68-.46-.31-.81-.72-1.06-1.23s-.37-1.13-.37-1.86,.14-1.3,.43-1.79c.28-.49,.66-.88,1.14-1.17,.47-.29,1.02-.5,1.63-.63,.61-.13,1.25-.2,1.91-.2,.44,0,.84,.02,1.18,.06,.34,.04,.62,.09,.84,.15v-.32c0-.58-.18-1.05-.53-1.4-.35-.35-.97-.53-1.84-.53-.58,0-1.16,.04-1.73,.13s-1.06,.2-1.47,.36l-.44-2.76c.2-.06,.45-.13,.75-.2,.3-.07,.62-.13,.98-.18,.35-.05,.72-.1,1.12-.14s.79-.06,1.18-.06Zm.28,10.03c.34,0,.66,0,.97-.02,.31-.01,.55-.04,.74-.07v-2.6c-.14-.03-.34-.06-.62-.09-.28-.03-.53-.05-.76-.05-.32,0-.62,.02-.91,.06-.28,.04-.53,.11-.75,.22-.21,.11-.38,.25-.51,.44-.12,.18-.18,.41-.18,.69,0,.54,.18,.91,.54,1.12s.86,.31,1.48,.31Z"/><path class="cls-2" d="M61.86,128.7v-15.94h10.67v3.01h-7.08v3.33h6.3v3.01h-6.3v6.58h-3.59Z"/><path class="cls-2" d="M79.4,119.99l2.4-3.39h3.54l-4.2,5.88c.96,1.11,1.82,2.2,2.56,3.29s1.35,2.07,1.8,2.92h-3.67c-.12-.23-.28-.52-.46-.86-.18-.35-.39-.71-.62-1.08-.23-.38-.47-.69-.72-.96-.25-.26-.5-.5-.74-.71-.23,.2-.47,.42-.71,.66s-.47,.54-.68,.9-.43,.72-.63,1.07c-.21,.35-.39,.68-.55,.99h-3.49c.19-.38,.45-.83,.76-1.35s.66-1.07,1.04-1.62c.38-.56,.79-1.1,1.22-1.63,.44-.53,.87-1.02,1.29-1.48-.75-1.07-1.48-2.1-2.17-3.08-.69-.99-1.38-1.96-2.06-2.92h3.7l2.38,3.39Z"/><path class="cls-2" d="M92.57,127.12c2.33,0,3.5-.8,3.5-2.39,0-.49-.1-.91-.31-1.25s-.49-.64-.84-.9c-.35-.25-.76-.47-1.21-.66-.45-.18-.93-.37-1.44-.55-.58-.2-1.13-.43-1.66-.68s-.97-.55-1.36-.9c-.38-.35-.69-.76-.91-1.23-.22-.48-.33-1.05-.33-1.73,0-1.39,.48-2.48,1.43-3.27,.95-.78,2.26-1.17,3.93-1.17,.97,0,1.84,.1,2.63,.31s1.37,.43,1.74,.68l-.71,1.82c-.32-.2-.8-.39-1.44-.59-.64-.19-1.38-.29-2.22-.29-.43,0-.83,.05-1.2,.14-.37,.09-.69,.23-.97,.41-.28,.18-.5,.42-.66,.7-.16,.28-.24,.62-.24,1,0,.43,.08,.79,.25,1.08s.41,.55,.71,.77c.31,.22,.66,.43,1.07,.61,.41,.18,.85,.37,1.34,.55,.69,.28,1.32,.55,1.9,.83,.58,.28,1.07,.61,1.5,.99,.42,.38,.75,.84,.98,1.37,.23,.53,.34,1.17,.34,1.92,0,1.4-.51,2.47-1.53,3.22-1.02,.75-2.46,1.13-4.31,1.13-.63,0-1.21-.04-1.74-.13-.53-.08-1-.18-1.41-.3-.41-.12-.77-.24-1.07-.37-.3-.13-.53-.24-.7-.33l.67-1.84c.35,.2,.89,.42,1.61,.67s1.6,.37,2.64,.37Z"/><path class="cls-2" d="M102.96,116.74h4.53v1.79h-4.53v5.52c0,.6,.05,1.09,.14,1.48,.09,.39,.23,.7,.41,.92,.18,.22,.41,.38,.69,.47,.28,.09,.6,.14,.97,.14,.64,0,1.16-.07,1.55-.22,.39-.15,.66-.25,.82-.31l.41,1.77c-.21,.11-.59,.24-1.13,.4-.54,.16-1.15,.24-1.84,.24-.81,0-1.48-.1-2.01-.31s-.95-.52-1.28-.93-.55-.92-.68-1.53c-.13-.61-.2-1.31-.2-2.1v-10.67l2.14-.37v3.7Z"/><path class="cls-2" d="M119.73,128.36c-.49,.12-1.14,.25-1.94,.39-.8,.14-1.74,.21-2.79,.21-.92,0-1.69-.13-2.32-.4-.63-.27-1.13-.65-1.52-1.14-.38-.49-.66-1.07-.83-1.74-.17-.67-.25-1.41-.25-2.22v-6.72h2.14v6.26c0,1.46,.23,2.5,.69,3.13,.46,.63,1.23,.94,2.32,.94,.23,0,.47,0,.71-.02,.25-.01,.47-.03,.69-.06,.21-.02,.41-.05,.59-.07,.18-.02,.3-.05,.38-.08v-10.1h2.14v11.62Z"/><path class="cls-2" d="M131.14,111.22l2.14-.37v17.5c-.49,.14-1.12,.28-1.89,.41-.77,.14-1.65,.21-2.65,.21-.92,0-1.75-.15-2.48-.44-.74-.29-1.37-.71-1.89-1.24-.52-.54-.92-1.19-1.21-1.97-.28-.77-.43-1.64-.43-2.61s.12-1.76,.36-2.53,.59-1.43,1.05-1.98c.46-.55,1.02-.98,1.69-1.29,.67-.31,1.43-.46,2.29-.46,.69,0,1.3,.09,1.83,.28,.53,.18,.92,.36,1.18,.53v-6.05Zm0,8.05c-.26-.21-.64-.42-1.13-.62-.49-.2-1.03-.3-1.61-.3-.61,0-1.14,.11-1.58,.33-.44,.22-.79,.53-1.07,.92-.28,.39-.47,.86-.6,1.39-.12,.54-.18,1.11-.18,1.72,0,1.4,.34,2.47,1.03,3.23,.69,.76,1.61,1.14,2.76,1.14,.58,0,1.07-.03,1.46-.08,.39-.05,.69-.11,.91-.17v-7.57Z"/><path class="cls-2" d="M138.01,114.58c-.38,0-.71-.13-.98-.38-.27-.25-.4-.59-.4-1.02s.13-.77,.4-1.02c.27-.25,.59-.38,.98-.38s.71,.13,.98,.38c.27,.25,.4,.59,.4,1.02s-.13,.77-.4,1.02c-.27,.25-.59,.38-.98,.38Zm1.08,14.12h-2.14v-11.96h2.14v11.96Z"/><path class="cls-2" d="M153.33,122.72c0,.95-.14,1.81-.41,2.58-.28,.77-.66,1.43-1.16,1.98s-1.09,.98-1.78,1.28c-.69,.3-1.44,.45-2.25,.45s-1.56-.15-2.25-.45c-.69-.3-1.29-.72-1.78-1.28s-.88-1.21-1.16-1.98c-.28-.77-.41-1.62-.41-2.58s.14-1.79,.41-2.56c.28-.77,.66-1.44,1.16-1.99s1.09-.98,1.78-1.28c.69-.3,1.44-.45,2.25-.45s1.56,.15,2.25,.45c.69,.3,1.28,.72,1.78,1.28s.89,1.22,1.16,1.99c.28,.77,.41,1.63,.41,2.56Zm-2.23,0c0-1.35-.3-2.42-.91-3.21-.61-.79-1.43-1.18-2.47-1.18s-1.87,.39-2.47,1.18-.91,1.86-.91,3.21,.3,2.42,.91,3.21,1.43,1.18,2.47,1.18,1.87-.39,2.47-1.18c.61-.79,.91-1.86,.91-3.21Z"/></g><path class="cls-1" d="M121.82,17.4h-33.44c-19.19,0-34.75,15.56-34.75,34.75,0,13.63,7.85,25.43,19.28,31.12L121.82,17.4Z"/><path class="cls-3" d="M62.18,97.73h33.44c19.19,0,34.75-15.56,34.75-34.75,0-13.63-7.85-25.43-19.28-31.12L62.18,97.73Z"/></g></g></svg>