<?xml version="1.0" encoding="UTF-8"?><svg id="Layer_1" xmlns="http://www.w3.org/2000/svg" xmlns:xlink="http://www.w3.org/1999/xlink" viewBox="0 0 125.36 127.62"><defs><style>.cls-1{fill:url(#linear-gradient);}.cls-2,.cls-3{fill:#fff;}.cls-4{fill:url(#linear-gradient-2);}.cls-3{opacity:.62;}</style><linearGradient id="linear-gradient" x1="1927" y1="5545.78" x2="2016.27" y2="5545.78" gradientTransform="translate(2031.64 5609.59) rotate(-180)" gradientUnits="userSpaceOnUse"><stop offset="0" stop-color="#00bf5a"/><stop offset=".3" stop-color="#00d55a"/><stop offset=".68" stop-color="#00ec5a"/><stop offset=".92" stop-color="#00f55a"/></linearGradient><linearGradient id="linear-gradient-2" x1="75.05" y1="36.68" x2="52.65" y2="66.59" gradientTransform="translate(0 0)" gradientUnits="userSpaceOnUse"><stop offset=".26" stop-color="#fff"/><stop offset=".43" stop-color="#9ee6c0"/><stop offset=".69" stop-color="#00bf5a"/></linearGradient></defs><circle class="cls-1" cx="60" cy="63.81" r="44.63"/><rect class="cls-4" x="50.86" y="39.99" width="27.15" height="21.74"/><rect class="cls-3" x="42.34" y="66.59" width="27.15" height="21.74"/><path class="cls-2" d="M45.49,69.99l7.94,6.07,5,3.82,11.06,8.45h0s5.47-7.15,5.47-7.15l1.25-1.64,1.25-1.64c1.56-2.04,2.45-4.36,2.74-6.73,.59-4.75-1.27-9.68-5.35-12.8l-12.94-9.89-11.07-8.46-5.47,7.15h0s-1.25,1.64-1.25,1.64l-1.25,1.64c-4.67,6.11-3.5,14.86,2.61,19.53Z"/></svg>