<?xml version="1.0" encoding="UTF-8"?><svg id="Layer_1" xmlns="http://www.w3.org/2000/svg" xmlns:xlink="http://www.w3.org/1999/xlink" viewBox="0 0 125.36 127.62"><defs><style>.cls-1{fill:url(#linear-gradient);}.cls-2,.cls-3{fill:#fff;}.cls-4{fill:#befcd1;}.cls-5{fill:url(#linear-gradient-2);opacity:.9;}.cls-3{opacity:.5;}</style><linearGradient id="linear-gradient" x1="5.98" y1="66.6" x2="99.52" y2="79.7" gradientTransform="translate(15 -8.66)" gradientUnits="userSpaceOnUse"><stop offset=".06" stop-color="#917ed9"/><stop offset=".18" stop-color="#8c75d5"/><stop offset=".36" stop-color="#815ecb"/><stop offset=".6" stop-color="#6f38bc"/><stop offset=".86" stop-color="#5504a6"/><stop offset=".87" stop-color="#5503a6"/></linearGradient><linearGradient id="linear-gradient-2" x1="87.98" y1="86.78" x2="47.21" y2="56.52" gradientUnits="userSpaceOnUse"><stop offset="0" stop-color="#010068"/><stop offset=".12" stop-color="#43428f" stop-opacity=".97"/><stop offset=".28" stop-color="#9392be" stop-opacity=".94"/><stop offset=".41" stop-color="#cdcde1" stop-opacity=".92"/><stop offset=".5" stop-color="#f1f1f6" stop-opacity=".91"/><stop offset=".56" stop-color="#fff" stop-opacity=".9"/></linearGradient></defs><circle class="cls-1" cx="62.92" cy="63.81" r="44.63"/><g><path class="cls-2" d="M86.87,55.86l-20.12,28.39h20.48v-25.21c0-.7-.05-1.38-.14-2.05-.05-.38-.13-.76-.21-1.14Z"/><path class="cls-3" d="M62.56,49.48c-2.57-2.97-6.31-4.84-10.49-4.84-7.05,0-12.88,5.32-13.88,12.26-.1,.7-.15,1.41-.15,2.14v25.21l24.53-34.6v-.16Z"/><path class="cls-5" d="M73.18,44.64c-4.2,0-7.97,1.9-10.54,4.9l-.08,.11-24.53,34.6h0s24.53,0,24.53,0h4.18l20.12-28.39c-1.41-6.42-7-11.22-13.69-11.22Z"/></g><path class="cls-4" d="M62.84,48.94v.16l.07-.1s0,0,0,0c-.02-.02-.04-.04-.06-.07Z"/></svg>