<?xml version="1.0" encoding="UTF-8"?><svg xmlns="http://www.w3.org/2000/svg" xmlns:xlink="http://www.w3.org/1999/xlink" viewBox="0 0 176.19 147.95"><defs><style>.cls-1{fill:url(#linear-gradient);}.cls-2{fill:#010068;}.cls-3{fill:#003fff;}.cls-4{mix-blend-mode:multiply;}.cls-5{isolation:isolate;}.cls-6{fill:#007dff;opacity:.67;}</style><linearGradient id="linear-gradient" x1="123.68" y1="25.85" x2="60.51" y2="73.65" gradientUnits="userSpaceOnUse"><stop offset="0" stop-color="blue"/><stop offset=".13" stop-color="#0000f9"/><stop offset=".29" stop-color="#0000e9"/><stop offset=".48" stop-color="#0000cf"/><stop offset=".68" stop-color="#00a"/><stop offset=".89" stop-color="#00007c"/><stop offset="1" stop-color="#010060"/></linearGradient></defs><g class="cls-5"><g id="Layer_1"><g class="cls-4"><path class="cls-2" d="M39,115.42c-1.67,0-2.88,.46-3.62,1.39-.74,.93-1.12,2.2-1.12,3.81,0,.78,.09,1.49,.28,2.13,.18,.64,.46,1.18,.83,1.64,.37,.46,.83,.82,1.38,1.07,.55,.25,1.2,.38,1.93,.38,.4,0,.74,0,1.02-.02,.28-.01,.53-.05,.75-.09v-5.54h3.59v7.89c-.43,.17-1.12,.35-2.07,.54-.95,.19-2.12,.29-3.52,.29-1.2,0-2.28-.18-3.25-.55s-1.81-.9-2.5-1.61c-.69-.71-1.22-1.57-1.6-2.6-.38-1.03-.56-2.2-.56-3.52s.21-2.51,.62-3.54c.41-1.03,.98-1.9,1.7-2.61s1.57-1.25,2.54-1.62,2.01-.55,3.12-.55c.75,0,1.43,.05,2.04,.15,.61,.1,1.13,.21,1.56,.34,.44,.13,.8,.26,1.08,.4,.28,.14,.49,.25,.61,.32l-1.04,2.88c-.49-.26-1.05-.49-1.69-.68-.64-.19-1.33-.29-2.08-.29Z"/><path class="cls-2" d="M54.43,119.53c-.31-.08-.67-.16-1.08-.24-.41-.08-.86-.13-1.33-.13-.21,0-.47,.02-.77,.06-.3,.04-.53,.08-.68,.13v9.25h-3.43v-11.45c.61-.21,1.34-.42,2.17-.61s1.77-.29,2.79-.29c.18,0,.41,.01,.67,.03,.26,.02,.52,.05,.78,.09,.26,.04,.52,.08,.78,.14,.26,.05,.48,.12,.67,.2l-.57,2.83Z"/><path class="cls-2" d="M60.97,116.18c1.01,0,1.86,.12,2.53,.34,.67,.23,1.21,.56,1.62,.99,.41,.43,.69,.95,.86,1.56,.17,.61,.25,1.3,.25,2.05v7.13c-.49,.11-1.17,.23-2.05,.38s-1.93,.22-3.17,.22c-.78,0-1.49-.07-2.13-.21-.64-.14-1.18-.36-1.64-.68-.46-.31-.81-.72-1.06-1.23s-.37-1.13-.37-1.86,.14-1.3,.43-1.79c.28-.49,.66-.88,1.14-1.17,.47-.29,1.02-.5,1.63-.63,.61-.13,1.25-.2,1.91-.2,.44,0,.84,.02,1.18,.06,.34,.04,.62,.09,.84,.15v-.32c0-.58-.18-1.05-.53-1.4-.35-.35-.97-.53-1.84-.53-.58,0-1.16,.04-1.73,.13s-1.06,.2-1.47,.36l-.44-2.76c.2-.06,.45-.13,.75-.2,.3-.07,.62-.13,.98-.18,.35-.05,.72-.1,1.12-.14s.79-.06,1.18-.06Zm.28,10.03c.34,0,.66,0,.97-.02,.31-.01,.55-.04,.74-.07v-2.6c-.14-.03-.34-.06-.62-.09-.28-.03-.53-.05-.76-.05-.32,0-.62,.02-.91,.06-.28,.04-.53,.11-.75,.22-.21,.11-.38,.25-.51,.44-.12,.18-.18,.41-.18,.69,0,.54,.18,.91,.54,1.12s.86,.31,1.48,.31Z"/><path class="cls-2" d="M69.57,128.6v-15.94h10.67v3.01h-7.08v3.33h6.3v3.01h-6.3v6.58h-3.59Z"/><path class="cls-2" d="M87.1,119.89l2.4-3.39h3.54l-4.2,5.88c.96,1.11,1.82,2.2,2.56,3.29s1.35,2.07,1.8,2.92h-3.67c-.12-.23-.28-.52-.46-.86-.18-.35-.39-.71-.62-1.08-.23-.38-.47-.69-.72-.96-.25-.26-.5-.5-.74-.71-.23,.2-.47,.42-.71,.66s-.47,.54-.68,.9-.43,.72-.63,1.07c-.21,.35-.39,.68-.55,.99h-3.49c.19-.38,.45-.83,.76-1.35s.66-1.07,1.04-1.62c.38-.56,.79-1.1,1.22-1.63,.44-.53,.87-1.02,1.29-1.48-.75-1.07-1.48-2.1-2.17-3.08-.69-.99-1.38-1.96-2.06-2.92h3.7l2.38,3.39Z"/><path class="cls-2" d="M109.66,120.61c0,1.38-.21,2.58-.64,3.6-.43,1.02-1.04,1.86-1.82,2.53-.78,.67-1.72,1.17-2.81,1.5s-2.29,.49-3.59,.49c-.64,0-1.35-.03-2.13-.08s-1.48-.16-2.1-.31v-15.46c.63-.15,1.33-.26,2.1-.31s1.48-.08,2.13-.08c1.3,0,2.5,.17,3.59,.49,1.09,.33,2.02,.83,2.81,1.5,.78,.67,1.39,1.51,1.82,2.53,.43,1.02,.64,2.22,.64,3.6Zm-8.67,6.16c2.12,0,3.7-.54,4.74-1.62s1.56-2.59,1.56-4.54-.52-3.46-1.56-4.54-2.62-1.62-4.74-1.62c-.63,0-1.12,0-1.46,.02-.34,.02-.59,.03-.72,.05v12.19c.14,.02,.38,.03,.72,.05s.83,.02,1.46,.02Z"/><path class="cls-2" d="M116.37,116.34c.86,0,1.58,.11,2.17,.33,.59,.22,1.07,.54,1.43,.94,.36,.41,.62,.89,.77,1.45,.15,.56,.23,1.18,.23,1.85v7.47c-.18,.03-.44,.07-.77,.13s-.7,.1-1.12,.15-.86,.09-1.35,.13c-.48,.04-.96,.06-1.44,.06-.67,0-1.3-.07-1.86-.21s-1.06-.36-1.47-.66-.74-.69-.97-1.18c-.23-.49-.34-1.08-.34-1.77s.13-1.23,.4-1.7c.27-.48,.63-.86,1.09-1.15s1-.51,1.61-.64c.61-.14,1.26-.21,1.93-.21,.21,0,.44,.01,.67,.03,.23,.02,.45,.05,.66,.09s.39,.07,.54,.1c.15,.03,.26,.05,.32,.07v-.6c0-.35-.04-.7-.12-1.05-.08-.35-.21-.65-.41-.92s-.47-.48-.82-.64-.79-.24-1.35-.24c-.71,0-1.32,.05-1.85,.15-.53,.1-.92,.2-1.18,.31l-.25-1.77c.28-.12,.74-.24,1.38-.36,.64-.11,1.34-.17,2.09-.17Zm.18,10.72c.51,0,.96-.01,1.35-.03,.39-.02,.72-.07,.98-.13v-3.56c-.15-.08-.4-.14-.75-.2-.35-.05-.76-.08-1.25-.08-.32,0-.66,.02-1.02,.07s-.69,.14-.99,.29-.55,.34-.75,.6-.3,.59-.3,1c0,.77,.25,1.3,.74,1.6,.49,.3,1.16,.45,2,.45Z"/><path class="cls-2" d="M126.52,116.64h4.53v1.79h-4.53v5.52c0,.6,.05,1.09,.14,1.48,.09,.39,.23,.7,.41,.92,.18,.22,.41,.38,.69,.47,.28,.09,.6,.14,.97,.14,.64,0,1.16-.07,1.55-.22,.39-.15,.66-.25,.82-.31l.41,1.77c-.21,.11-.59,.24-1.13,.4-.54,.16-1.15,.24-1.84,.24-.81,0-1.48-.1-2.01-.31s-.95-.52-1.28-.93-.55-.92-.68-1.53c-.13-.61-.2-1.31-.2-2.1v-10.67l2.14-.37v3.7Z"/><path class="cls-2" d="M137.62,116.34c.86,0,1.58,.11,2.17,.33,.59,.22,1.07,.54,1.43,.94,.36,.41,.62,.89,.77,1.45,.15,.56,.23,1.18,.23,1.85v7.47c-.18,.03-.44,.07-.77,.13s-.7,.1-1.12,.15-.86,.09-1.35,.13c-.48,.04-.96,.06-1.44,.06-.67,0-1.3-.07-1.86-.21s-1.06-.36-1.47-.66-.74-.69-.97-1.18c-.23-.49-.34-1.08-.34-1.77s.13-1.23,.4-1.7c.27-.48,.63-.86,1.09-1.15s1-.51,1.61-.64c.61-.14,1.26-.21,1.93-.21,.21,0,.44,.01,.67,.03,.23,.02,.45,.05,.66,.09s.39,.07,.54,.1c.15,.03,.26,.05,.32,.07v-.6c0-.35-.04-.7-.12-1.05-.08-.35-.21-.65-.41-.92s-.47-.48-.82-.64-.79-.24-1.35-.24c-.71,0-1.32,.05-1.85,.15-.53,.1-.92,.2-1.18,.31l-.25-1.77c.28-.12,.74-.24,1.38-.36,.64-.11,1.34-.17,2.09-.17Zm.18,10.72c.51,0,.96-.01,1.35-.03,.39-.02,.72-.07,.98-.13v-3.56c-.15-.08-.4-.14-.75-.2-.35-.05-.76-.08-1.25-.08-.32,0-.66,.02-1.02,.07s-.69,.14-.99,.29-.55,.34-.75,.6-.3,.59-.3,1c0,.77,.25,1.3,.74,1.6,.49,.3,1.16,.45,2,.45Z"/></g><path class="cls-3" d="M86.63,59.61V17.43h-31.37V98.1l30-40.33s.51,.68,1.36,1.83Z"/><path class="cls-6" d="M86.82,59.34c-.86-1.15-1.36-1.83-1.36-1.83l-30,40.33-.19,.26h.19s31.37,0,31.37,0h0c2.25,0,4.28,0,5.93,0,10.66,0,15.83-2.52,19.7-4.35-2.36-3.18-20.49-27.51-25.63-34.41Z"/><path class="cls-1" d="M56.26,17.43c4.37,0,22.3,0,37.88,0,22.31,0,40.4,18.06,40.4,40.35,0,15.83-9.13,29.53-22.41,36.14,0,0,0,0-.01,0L55.26,17.43h1Z"/></g></g></svg>