<?xml version="1.0" encoding="UTF-8"?><svg xmlns="http://www.w3.org/2000/svg" xmlns:xlink="http://www.w3.org/1999/xlink" viewBox="0 0 176.19 147.95"><defs><style>.cls-1{fill:url(#linear-gradient);}.cls-2{fill:#0f5;}.cls-3{fill:#010068;}.cls-4{fill:#abff99;}.cls-5{mix-blend-mode:multiply;}.cls-6{isolation:isolate;}</style><linearGradient id="linear-gradient" x1="85.49" y1="46.56" x2="111.31" y2="9.14" gradientTransform="translate(185.65 71.87) rotate(-180)" gradientUnits="userSpaceOnUse"><stop offset=".09" stop-color="#00bc5a"/><stop offset=".22" stop-color="#00ce58"/><stop offset=".51" stop-color="#00f155"/><stop offset=".66" stop-color="#0f5"/></linearGradient></defs><g class="cls-6"><g id="Layer_1"><g class="cls-5"><path class="cls-3" d="M17.36,114.99c-1.67,0-2.88,.46-3.62,1.39-.74,.93-1.12,2.2-1.12,3.81,0,.78,.09,1.49,.28,2.13,.18,.64,.46,1.18,.83,1.64,.37,.46,.83,.82,1.38,1.07,.55,.25,1.2,.38,1.93,.38,.4,0,.74,0,1.02-.02,.28-.01,.53-.05,.75-.09v-5.54h3.59v7.89c-.43,.17-1.12,.35-2.07,.54-.95,.19-2.12,.29-3.52,.29-1.2,0-2.28-.18-3.25-.55s-1.81-.9-2.5-1.61c-.69-.71-1.22-1.57-1.6-2.6-.38-1.03-.56-2.2-.56-3.52s.21-2.51,.62-3.54c.41-1.03,.98-1.9,1.7-2.61s1.57-1.25,2.54-1.62,2.01-.55,3.12-.55c.75,0,1.43,.05,2.04,.15,.61,.1,1.13,.21,1.56,.34,.44,.13,.8,.26,1.08,.4,.28,.14,.49,.25,.61,.32l-1.04,2.88c-.49-.26-1.05-.49-1.69-.68-.64-.19-1.33-.29-2.08-.29Z"/><path class="cls-3" d="M32.88,119.11c-.31-.08-.67-.16-1.08-.24-.41-.08-.86-.13-1.33-.13-.21,0-.47,.02-.77,.06-.3,.04-.53,.08-.68,.13v9.25h-3.43v-11.45c.61-.21,1.34-.42,2.17-.61s1.77-.29,2.79-.29c.18,0,.41,.01,.67,.03,.26,.02,.52,.05,.78,.09,.26,.04,.52,.08,.78,.14,.26,.05,.48,.12,.67,.2l-.57,2.83Z"/><path class="cls-3" d="M39.51,115.75c1.01,0,1.86,.12,2.53,.34,.67,.23,1.21,.56,1.62,.99,.41,.43,.69,.95,.86,1.56,.17,.61,.25,1.3,.25,2.05v7.13c-.49,.11-1.17,.23-2.05,.38s-1.93,.22-3.17,.22c-.78,0-1.49-.07-2.13-.21-.64-.14-1.18-.36-1.64-.68-.46-.31-.81-.72-1.06-1.23s-.37-1.13-.37-1.86,.14-1.3,.43-1.79c.28-.49,.66-.88,1.14-1.17,.47-.29,1.02-.5,1.63-.63,.61-.13,1.25-.2,1.91-.2,.44,0,.84,.02,1.18,.06,.34,.04,.62,.09,.84,.15v-.32c0-.58-.18-1.05-.53-1.4-.35-.35-.97-.53-1.84-.53-.58,0-1.16,.04-1.73,.13s-1.06,.2-1.47,.36l-.44-2.76c.2-.06,.45-.13,.75-.2,.3-.07,.62-.13,.98-.18,.35-.05,.72-.1,1.12-.14s.79-.06,1.18-.06Zm.28,10.03c.34,0,.66,0,.97-.02,.31-.01,.55-.04,.74-.07v-2.6c-.14-.03-.34-.06-.62-.09-.28-.03-.53-.05-.76-.05-.32,0-.62,.02-.91,.06-.28,.04-.53,.11-.75,.22-.21,.11-.38,.25-.51,.44-.12,.18-.18,.41-.18,.69,0,.54,.18,.91,.54,1.12s.86,.31,1.48,.31Z"/><path class="cls-3" d="M48.12,128.17v-15.94h10.67v3.01h-7.08v3.33h6.3v3.01h-6.3v6.58h-3.59Z"/><path class="cls-3" d="M65.97,119.46l2.4-3.39h3.54l-4.2,5.88c.96,1.11,1.82,2.2,2.56,3.29s1.35,2.07,1.8,2.92h-3.67c-.12-.23-.28-.52-.46-.86-.18-.35-.39-.71-.62-1.08-.23-.38-.47-.69-.72-.96-.25-.26-.5-.5-.74-.71-.23,.2-.47,.42-.71,.66s-.47,.54-.68,.9-.43,.72-.63,1.07c-.21,.35-.39,.68-.55,.99h-3.49c.19-.38,.45-.83,.76-1.35s.66-1.07,1.04-1.62c.38-.56,.79-1.1,1.22-1.63,.44-.53,.87-1.02,1.29-1.48-.75-1.07-1.48-2.1-2.17-3.08-.69-.99-1.38-1.96-2.06-2.92h3.7l2.38,3.39Z"/><path class="cls-3" d="M79.53,126.58c2.33,0,3.5-.8,3.5-2.39,0-.49-.1-.91-.31-1.25s-.49-.64-.84-.9c-.35-.25-.76-.47-1.21-.66-.45-.18-.93-.37-1.44-.55-.58-.2-1.13-.43-1.66-.68s-.97-.55-1.36-.9c-.38-.35-.69-.76-.91-1.23-.22-.48-.33-1.05-.33-1.73,0-1.39,.48-2.48,1.43-3.27,.95-.78,2.26-1.17,3.93-1.17,.97,0,1.84,.1,2.63,.31s1.37,.43,1.74,.68l-.71,1.82c-.32-.2-.8-.39-1.44-.59-.64-.19-1.38-.29-2.22-.29-.43,0-.83,.05-1.2,.14-.37,.09-.69,.23-.97,.41-.28,.18-.5,.42-.66,.7-.16,.28-.24,.62-.24,1,0,.43,.08,.79,.25,1.08s.41,.55,.71,.77c.31,.22,.66,.43,1.07,.61,.41,.18,.85,.37,1.34,.55,.69,.28,1.32,.55,1.9,.83,.58,.28,1.07,.61,1.5,.99,.42,.38,.75,.84,.98,1.37,.23,.53,.34,1.17,.34,1.92,0,1.4-.51,2.47-1.53,3.22-1.02,.75-2.46,1.13-4.31,1.13-.63,0-1.21-.04-1.74-.13-.53-.08-1-.18-1.41-.3-.41-.12-.77-.24-1.07-.37-.3-.13-.53-.24-.7-.33l.67-1.84c.35,.2,.89,.42,1.61,.67s1.6,.37,2.64,.37Z"/><path class="cls-3" d="M89.97,116.21h4.53v1.79h-4.53v5.52c0,.6,.05,1.09,.14,1.48,.09,.39,.23,.7,.41,.92,.18,.22,.41,.38,.69,.47,.28,.09,.6,.14,.97,.14,.64,0,1.16-.07,1.55-.22,.39-.15,.66-.25,.82-.31l.41,1.77c-.21,.11-.59,.24-1.13,.4-.54,.16-1.15,.24-1.84,.24-.81,0-1.48-.1-2.01-.31s-.95-.52-1.28-.93-.55-.92-.68-1.53c-.13-.61-.2-1.31-.2-2.1v-10.67l2.14-.37v3.7Z"/><path class="cls-3" d="M96.28,130.4c.17,.08,.39,.15,.66,.22,.27,.07,.53,.1,.79,.1,.84,0,1.5-.19,1.98-.56,.47-.38,.9-.99,1.29-1.83-.97-1.84-1.87-3.79-2.7-5.85s-1.53-4.15-2.08-6.27h2.3c.17,.69,.37,1.43,.61,2.23,.24,.8,.5,1.62,.79,2.46,.29,.84,.61,1.69,.94,2.53,.34,.84,.69,1.66,1.06,2.44,.58-1.61,1.09-3.21,1.52-4.78,.43-1.58,.84-3.2,1.22-4.88h2.21c-.55,2.25-1.17,4.42-1.84,6.5-.67,2.08-1.4,4.02-2.18,5.83-.31,.69-.62,1.28-.96,1.78-.33,.5-.69,.91-1.09,1.23-.4,.32-.85,.56-1.35,.71-.5,.15-1.06,.23-1.69,.23-.17,0-.34-.01-.53-.04-.18-.02-.36-.05-.54-.09-.18-.04-.34-.08-.48-.13s-.25-.08-.31-.12l.39-1.72Z"/><path class="cls-3" d="M112.69,128.4c-1.32-.03-2.25-.31-2.81-.85-.55-.54-.83-1.37-.83-2.51v-14.35l2.14-.37v14.38c0,.35,.03,.64,.09,.87,.06,.23,.16,.41,.3,.55,.14,.14,.32,.24,.55,.31,.23,.07,.51,.13,.85,.17l-.3,1.79Z"/><path class="cls-3" d="M114.43,122.21c0-1.06,.15-1.98,.46-2.77,.31-.79,.71-1.45,1.22-1.97,.51-.52,1.09-.91,1.75-1.17s1.33-.39,2.02-.39c1.61,0,2.84,.5,3.7,1.51,.86,1,1.29,2.53,1.29,4.59v.36c0,.15,0,.28-.02,.4h-8.19c.09,1.24,.45,2.19,1.08,2.83,.63,.64,1.61,.97,2.94,.97,.75,0,1.38-.06,1.9-.2,.51-.13,.9-.26,1.16-.38l.3,1.79c-.26,.14-.72,.28-1.37,.44-.65,.15-1.39,.23-2.22,.23-1.04,0-1.94-.16-2.7-.47-.76-.31-1.38-.75-1.87-1.3-.49-.55-.86-1.21-1.09-1.97-.24-.76-.36-1.59-.36-2.5Zm8.21-1.17c.02-.97-.23-1.76-.72-2.38s-1.18-.93-2.06-.93c-.49,0-.92,.1-1.3,.29-.38,.19-.69,.44-.96,.75-.26,.31-.46,.66-.61,1.06s-.24,.8-.29,1.22h5.93Z"/><path class="cls-3" d="M132.13,121.59c.46,.35,.95,.79,1.46,1.31s1.02,1.08,1.52,1.69c.5,.61,.97,1.22,1.41,1.84s.82,1.2,1.13,1.74h-2.51c-.32-.54-.69-1.08-1.12-1.64s-.86-1.1-1.32-1.61c-.46-.51-.93-.98-1.4-1.41-.48-.43-.93-.79-1.36-1.08v5.75h-2.14v-17.48l2.14-.37v10.9c.37-.37,.77-.77,1.22-1.22s.88-.9,1.31-1.36c.43-.46,.84-.9,1.22-1.32,.38-.42,.71-.79,.99-1.12h2.51c-.35,.38-.74,.8-1.15,1.26s-.84,.92-1.29,1.39c-.45,.47-.89,.94-1.35,1.4s-.88,.91-1.28,1.32Z"/><path class="cls-3" d="M140.87,114.04c-.38,0-.71-.13-.98-.38-.27-.25-.4-.59-.4-1.02s.13-.77,.4-1.02c.27-.25,.59-.38,.98-.38s.71,.13,.98,.38c.27,.25,.4,.59,.4,1.02s-.13,.77-.4,1.02c-.27,.25-.59,.38-.98,.38Zm1.08,14.12h-2.14v-11.96h2.14v11.96Z"/><path class="cls-3" d="M147.49,116.21h4.53v1.79h-4.53v5.52c0,.6,.05,1.09,.14,1.48,.09,.39,.23,.7,.41,.92,.18,.22,.41,.38,.69,.47,.28,.09,.6,.14,.97,.14,.64,0,1.16-.07,1.55-.22,.39-.15,.66-.25,.82-.31l.41,1.77c-.21,.11-.59,.24-1.13,.4-.54,.16-1.15,.24-1.84,.24-.81,0-1.48-.1-2.01-.31s-.95-.52-1.28-.93-.55-.92-.68-1.53c-.13-.61-.2-1.31-.2-2.1v-10.67l2.14-.37v3.7Z"/><path class="cls-3" d="M157.93,126.63c.87,0,1.52-.12,1.94-.34,.42-.23,.63-.6,.63-1.1s-.21-.93-.62-1.24c-.41-.31-1.1-.65-2.05-1.03-.46-.18-.9-.37-1.32-.56-.42-.19-.79-.42-1.09-.68-.31-.26-.55-.58-.74-.94-.18-.37-.28-.82-.28-1.36,0-1.06,.39-1.9,1.17-2.52,.78-.62,1.85-.93,3.2-.93,.34,0,.67,.02,1.01,.06,.34,.04,.65,.08,.94,.14s.55,.11,.77,.17,.39,.11,.52,.16l-.39,1.84c-.23-.12-.59-.25-1.08-.38-.49-.13-1.08-.2-1.77-.2-.6,0-1.12,.12-1.56,.36-.45,.24-.67,.61-.67,1.12,0,.26,.05,.49,.15,.69s.25,.38,.46,.54,.46,.31,.77,.45c.31,.14,.67,.28,1.1,.44,.57,.21,1.07,.43,1.52,.63,.44,.21,.82,.45,1.14,.72,.31,.28,.56,.61,.72,1,.17,.39,.25,.87,.25,1.44,0,1.1-.41,1.94-1.23,2.51-.82,.57-1.99,.85-3.51,.85-1.06,0-1.89-.09-2.48-.26-.6-.18-1-.31-1.22-.4l.39-1.84c.25,.09,.64,.23,1.17,.41,.54,.18,1.25,.28,2.14,.28Z"/></g><rect class="cls-4" x="55.68" y="62.21" width="45.61" height="36.31" transform="translate(156.96 160.74) rotate(180)"/><rect class="cls-1" x="70.02" y="17.78" width="45.61" height="36.31" transform="translate(185.65 71.87) rotate(180)"/><path class="cls-2" d="M61,67.88l13.33,10.13,8.4,6.38,18.58,14.12h.01s9.19-11.94,9.19-11.94l2.11-2.74,2.11-2.74c2.61-3.4,4.12-7.29,4.61-11.25,.99-7.93-2.14-16.16-8.99-21.37l-21.74-16.51-18.6-14.13-9.19,11.95h0s-2.11,2.74-2.11,2.74l-2.11,2.74c-7.85,10.21-5.89,24.81,4.38,32.62Z"/></g></g></svg>