<?xml version="1.0" encoding="UTF-8"?><svg id="Layer_1" xmlns="http://www.w3.org/2000/svg" xmlns:xlink="http://www.w3.org/1999/xlink" viewBox="0 0 229.02 147.95"><defs><style>.cls-1{fill:url(#linear-gradient);}.cls-2{fill:#f8b6c0;}.cls-3{fill:#010068;}.cls-4{fill:#ff0048;}</style><linearGradient id="linear-gradient" x1="36.49" y1="48.06" x2="95.12" y2="101.19" gradientUnits="userSpaceOnUse"><stop offset="0" stop-color="#fd0048"/><stop offset=".11" stop-color="#f60147"/><stop offset=".25" stop-color="#e50547"/><stop offset=".42" stop-color="#c80b46"/><stop offset=".6" stop-color="#a11445"/><stop offset=".8" stop-color="#6e1f44"/><stop offset=".81" stop-color="#6b2044"/></linearGradient></defs><g><path class="cls-3" d="M126.78,73.12c-4.28-.01-7.54-1.21-9.77-3.6-2.23-2.39-3.34-5.77-3.33-10.16,0-2.18,.35-4.12,1.04-5.83,.69-1.71,1.63-3.15,2.83-4.32s2.62-2.06,4.26-2.67c1.65-.6,3.43-.9,5.36-.9,1.11,0,2.13,.09,3.04,.26,.91,.17,1.71,.36,2.39,.58,.68,.22,1.25,.44,1.71,.67,.46,.23,.78,.41,.99,.54l-1.72,4.78c-.81-.43-1.75-.8-2.83-1.11-1.08-.31-2.3-.46-3.67-.47-.91,0-1.8,.15-2.68,.45-.88,.3-1.65,.79-2.32,1.46-.67,.67-1.21,1.54-1.62,2.6-.41,1.06-.62,2.35-.62,3.87,0,1.22,.12,2.35,.39,3.4,.26,1.05,.69,1.96,1.28,2.72,.59,.76,1.37,1.37,2.33,1.81,.96,.45,2.13,.67,3.49,.68,.86,0,1.63-.05,2.32-.14,.68-.1,1.29-.22,1.83-.36,.53-.14,1-.29,1.41-.47,.41-.18,.77-.34,1.1-.49l1.62,4.76c-.84,.5-2.02,.96-3.54,1.36-1.52,.4-3.28,.6-5.28,.59Z"/><path class="cls-3" d="M155.58,46.34l5.93,.02-.08,26.33-5.93-.02,.04-11.17-9.96-.03-.04,11.17-5.93-.02,.08-26.33,5.93,.02-.03,10.07,9.96,.03,.03-10.07Z"/><path class="cls-3" d="M167.87,46.38l5.93,.02-.08,26.33-5.93-.02,.08-26.33Z"/><path class="cls-3" d="M197.69,67.71l-.02,5.09-17.59-.05,.08-26.33,5.93,.02-.07,21.24,11.67,.04Z"/><path class="cls-3" d="M201.68,46.48l5.93,.02-.08,26.33-5.93-.02,.08-26.33Z"/><path class="cls-3" d="M131.01,94.64h3.69s-.04,12.32-.04,12.32c-.3,.1-.74,.21-1.31,.34-.57,.13-1.23,.25-1.98,.37-.75,.12-1.57,.23-2.45,.32-.89,.09-1.79,.13-2.7,.12-1.85,0-3.53-.31-5.05-.93-1.52-.61-2.82-1.5-3.91-2.67-1.09-1.17-1.92-2.6-2.51-4.3-.59-1.7-.88-3.65-.88-5.85,0-2.2,.35-4.16,1.03-5.87,.68-1.71,1.59-3.14,2.73-4.3,1.14-1.16,2.48-2.04,4.02-2.65,1.54-.6,3.18-.9,4.92-.9,1.19,0,2.25,.08,3.17,.24,.92,.15,1.71,.33,2.37,.54,.66,.21,1.2,.41,1.61,.61,.42,.2,.7,.36,.85,.46l-1.19,3.07c-.73-.48-1.71-.89-2.92-1.21-1.22-.32-2.46-.48-3.72-.49-1.34,0-2.57,.23-3.67,.71-1.1,.48-2.04,1.17-2.82,2.08-.78,.91-1.38,2.02-1.82,3.32-.43,1.3-.65,2.77-.66,4.39,0,1.57,.17,3,.54,4.3,.36,1.29,.92,2.4,1.66,3.33,.74,.93,1.67,1.65,2.77,2.16,1.1,.51,2.4,.77,3.89,.77,1.06,0,1.97-.05,2.72-.16,.75-.11,1.29-.22,1.62-.32l.03-9.8Z"/><path class="cls-3" d="M147.75,87.47c.3,0,.65,.02,1.04,.06,.39,.04,.78,.09,1.16,.16,.38,.06,.73,.13,1.04,.19,.32,.06,.55,.12,.7,.17l-.62,3.08c-.28-.1-.74-.22-1.39-.37-.65-.14-1.47-.21-2.49-.22-.66,0-1.31,.07-1.96,.2-.65,.14-1.07,.23-1.27,.28l-.05,16.61h-3.53s.06-18.94,.06-18.94c.84-.3,1.88-.58,3.12-.85,1.24-.26,2.63-.39,4.18-.39Z"/><path class="cls-3" d="M161.29,87.44c1.42,0,2.61,.19,3.59,.56,.97,.37,1.76,.89,2.35,1.57,.59,.67,1.01,1.47,1.26,2.4,.25,.93,.38,1.95,.37,3.06l-.04,12.35c-.3,.05-.73,.12-1.27,.21-.55,.09-1.16,.17-1.84,.24-.68,.07-1.43,.14-2.22,.2-.8,.06-1.59,.09-2.38,.09-1.11,0-2.14-.12-3.08-.35-.94-.23-1.75-.59-2.43-1.09-.68-.5-1.21-1.15-1.59-1.96-.38-.81-.57-1.79-.56-2.93,0-1.09,.23-2.03,.67-2.81,.45-.78,1.05-1.42,1.81-1.89,.76-.48,1.65-.83,2.66-1.06,1.01-.22,2.08-.34,3.19-.33,.35,0,.72,.02,1.1,.06,.38,.04,.74,.09,1.08,.16,.34,.06,.64,.12,.89,.17,.25,.05,.43,.09,.53,.12v-.99c0-.58-.06-1.16-.18-1.73-.12-.57-.35-1.08-.68-1.52-.33-.44-.78-.8-1.35-1.07-.57-.27-1.31-.4-2.22-.41-1.17,0-2.19,.08-3.06,.24-.87,.16-1.53,.33-1.96,.51l-.41-2.93c.46-.2,1.22-.4,2.28-.58,1.06-.19,2.22-.28,3.46-.27Zm.25,17.71c.84,0,1.58-.01,2.22-.05,.65-.04,1.18-.1,1.62-.2l.02-5.89c-.25-.13-.66-.24-1.23-.33-.57-.09-1.26-.14-2.07-.14-.53,0-1.1,.03-1.69,.11-.6,.07-1.14,.23-1.64,.47-.49,.24-.91,.57-1.24,.98s-.5,.97-.5,1.65c0,1.27,.4,2.15,1.21,2.64,.81,.5,1.91,.75,3.3,.75Z"/><path class="cls-3" d="M182.33,78.27c1.04,0,1.93,.08,2.68,.24,.75,.15,1.27,.3,1.58,.42l-.66,3.04c-.3-.15-.73-.3-1.29-.44-.56-.14-1.24-.21-2.05-.22-1.65,0-2.8,.44-3.46,1.34-.66,.9-.99,2.11-1,3.63v1.71s7.59,.02,7.59,.02v2.96s-7.61-.02-7.61-.02l-.05,16.8h-3.53s.07-21.56,.07-21.56c0-2.53,.63-4.49,1.88-5.87,1.25-1.38,3.2-2.06,5.86-2.05Z"/><path class="cls-3" d="M202.18,107.82c-.28-.56-.62-1.18-1.02-1.87-.4-.69-.84-1.39-1.32-2.11-.48-.72-.97-1.44-1.48-2.15-.5-.71-1-1.38-1.48-2.02-.48,.63-.98,1.31-1.49,2.03-.51,.72-1,1.44-1.47,2.16-.47,.72-.91,1.42-1.32,2.1-.41,.68-.75,1.29-1.03,1.82h-3.65c.89-1.73,1.95-3.48,3.19-5.26,1.23-1.78,2.46-3.48,3.68-5.1l-6.51-9.41h3.99s4.69,6.94,4.69,6.94l4.77-6.9h3.76s-6.41,9.15-6.41,9.15c1.21,1.65,2.45,3.4,3.73,5.24,1.27,1.84,2.35,3.64,3.23,5.39h-3.88Z"/></g><rect class="cls-2" x="66.15" y="77.59" width="30.46" height="40.52"/><path class="cls-1" d="M95.36,37.38H57.56c-22.26,0-40.31,18.05-40.32,40.31,0,15.81,9.11,29.5,22.37,36.1,0,0,0,0,.01,0L96.36,37.38h-1Z"/><path class="cls-4" d="M66.48,77.62l30.12,40.49H59.21c-10.64,0-15.79-2.51-19.65-4.34,2.74-3.7,26.93-36.15,26.93-36.15Z"/></svg>