<?xml version="1.0" encoding="UTF-8"?><svg xmlns="http://www.w3.org/2000/svg" xmlns:xlink="http://www.w3.org/1999/xlink" viewBox="0 0 176.19 147.95"><defs><style>.d{fill:url(#c);}.e{letter-spacing:-.01em;}.f{letter-spacing:.05em;}.g{fill:#003fff;}.h{letter-spacing:-.01em;}.i{font-family:Ubuntu-Bold, Ubuntu;mix-blend-mode:multiply;}.i,.j{fill:#010068;font-size:23px;}.j{font-family:Ubuntu-Regular, Ubuntu;}.k{isolation:isolate;}.l{letter-spacing:0em;}.m{fill:url(#b);opacity:.67;}</style><linearGradient id="b" x1="117.69" y1="66.44" x2="26.62" y2="125.52" gradientTransform="matrix(1, 0, 0, 1, 0, 0)" gradientUnits="userSpaceOnUse"><stop offset="0" stop-color="#003fff"/><stop offset="1" stop-color="#003fff"/></linearGradient><linearGradient id="c" x1="123.8" y1="28.78" x2="60.71" y2="76.52" gradientTransform="matrix(1, 0, 0, 1, 0, 0)" gradientUnits="userSpaceOnUse"><stop offset="0" stop-color="#003fff"/><stop offset=".13" stop-color="#003cf9"/><stop offset=".3" stop-color="#0036e9"/><stop offset=".5" stop-color="#002bcf"/><stop offset=".7" stop-color="#001baa"/><stop offset=".92" stop-color="#00087c"/><stop offset="1" stop-color="#010068"/></linearGradient></defs><g class="k"><g id="a"><g><text class="i" transform="translate(29.39 130.71)"><tspan x="0" y="0">G</tspan><tspan class="l" x="16.15" y="0">r</tspan><tspan x="25.62" y="0">a</tspan><tspan class="e" x="38.34" y="0">F</tspan><tspan class="f" x="51.31" y="0">x</tspan></text><text class="j" transform="translate(94.59 130.71)"><tspan class="h" x="0" y="0">D</tspan><tspan x="16.08" y="0">ata</tspan></text><g><path class="g" d="M86.55,62.68V20.61h-31.29V101.08l29.93-40.23s.51,.68,1.36,1.83Z"/><path class="m" d="M86.74,62.42c-.85-1.15-1.36-1.83-1.36-1.83l-29.93,40.23-.19,.26h37.39c10.64,0,15.79-2.51,19.65-4.34-2.35-3.17-20.44-27.44-25.56-34.32Z"/><path class="d" d="M56.5,20.35h37.8c22.26,0,40.31,18.05,40.32,40.31,0,15.81-9.11,29.5-22.37,36.1h-.01L55.5,20.35h1Z"/></g></g></g></g></svg>