<?xml version="1.0" encoding="UTF-8"?><svg xmlns="http://www.w3.org/2000/svg" xmlns:xlink="http://www.w3.org/1999/xlink" viewBox="0 0 229.02 147.95"><defs><style>.cls-1{fill:url(#linear-gradient);}.cls-2{fill:#010068;}.cls-3,.cls-4{fill:#ff0048;}.cls-5{mix-blend-mode:multiply;}.cls-6{isolation:isolate;}.cls-4{opacity:.23;}</style><linearGradient id="linear-gradient" x1="35.95" y1="48.24" x2="94.58" y2="101.36" gradientUnits="userSpaceOnUse"><stop offset="0" stop-color="#fd0048"/><stop offset=".11" stop-color="#f60147"/><stop offset=".25" stop-color="#e50547"/><stop offset=".42" stop-color="#c80b46"/><stop offset=".6" stop-color="#a11445"/><stop offset=".8" stop-color="#6e1f44"/><stop offset=".81" stop-color="#6b2044"/></linearGradient></defs><g class="cls-6"><g id="Layer_1"><path class="cls-4" d="M16.7,77.86s0,0,0,.01c0,15.82,9.11,29.51,22.37,36.11v-.02s0,0,0,0c-13.26-6.6-22.36-20.29-22.37-36.1Z"/><path class="cls-4" d="M94.82,37.55H57.02c-22.26,0-40.31,18.05-40.32,40.31,0,15.81,9.11,29.5,22.37,36.1,0,0,0,0,.01,0L95.82,37.55h-1Z"/><path class="cls-1" d="M94.82,37.55H57.02c-22.26,0-40.31,18.05-40.32,40.31,0,15.81,9.11,29.5,22.37,36.1,0,0,0,0,.01,0L95.82,37.55h-1Z"/><path class="cls-3" d="M65.94,77.8l30.12,40.49H58.67c-10.64,0-15.79-2.51-19.65-4.34,2.74-3.7,26.93-36.15,26.93-36.15Z"/><g class="cls-5"><path class="cls-2" d="M121.35,74.33c-4.28-.01-7.54-1.21-9.77-3.6-2.23-2.39-3.34-5.77-3.33-10.16,0-2.18,.35-4.12,1.04-5.83,.69-1.71,1.63-3.15,2.83-4.32,1.19-1.17,2.62-2.06,4.26-2.67,1.65-.6,3.43-.9,5.36-.9,1.11,0,2.13,.09,3.04,.26,.91,.17,1.71,.36,2.39,.58,.68,.22,1.25,.44,1.71,.67,.46,.23,.78,.41,.99,.54l-1.72,4.78c-.81-.43-1.75-.8-2.83-1.11s-2.3-.46-3.67-.47c-.91,0-1.8,.15-2.68,.45s-1.65,.79-2.32,1.46c-.67,.67-1.21,1.54-1.62,2.6-.41,1.06-.62,2.35-.62,3.87,0,1.22,.12,2.35,.39,3.4,.26,1.05,.69,1.96,1.28,2.72,.59,.76,1.37,1.37,2.33,1.81,.96,.45,2.13,.67,3.49,.68,.86,0,1.63-.05,2.32-.14,.68-.1,1.29-.22,1.83-.36,.53-.14,1-.29,1.41-.47,.41-.18,.77-.34,1.1-.49l1.62,4.76c-.84,.5-2.02,.96-3.54,1.36-1.52,.4-3.28,.6-5.28,.59Z"/><path class="cls-2" d="M150.15,47.55l5.93,.02-.08,26.33-5.93-.02,.04-11.17-9.96-.03-.04,11.17-5.93-.02,.08-26.33,5.93,.02-.03,10.07,9.96,.03,.03-10.07Z"/><path class="cls-2" d="M162.43,47.59l5.93,.02-.08,26.33-5.93-.02,.08-26.33Z"/><path class="cls-2" d="M192.25,68.93l-.02,5.09-17.59-.05,.08-26.33,5.93,.02-.07,21.24,11.67,.04Z"/><path class="cls-2" d="M196.25,47.7l5.93,.02-.08,26.33-5.93-.02,.08-26.33Z"/><path class="cls-2" d="M122.9,97.78c0,1.22-.17,2.35-.49,3.38-.32,1.03-.8,1.92-1.42,2.66-.62,.74-1.38,1.32-2.28,1.73-.9,.41-1.93,.61-3.09,.61-.93,0-1.75-.13-2.46-.38-.71-.25-1.24-.49-1.59-.72l-.02,6.45h-2.88s.07-21.37,.07-21.37c.68-.16,1.54-.34,2.56-.53,1.02-.19,2.21-.29,3.55-.28,1.24,0,2.36,.2,3.35,.6,.99,.4,1.84,.96,2.54,1.68,.7,.73,1.24,1.61,1.62,2.66,.38,1.05,.57,2.22,.56,3.52Zm-3.01,0c0-1.88-.45-3.33-1.38-4.34-.93-1.02-2.17-1.53-3.71-1.53-.87,0-1.54,.03-2.03,.09-.49,.06-.87,.13-1.16,.21l-.03,10.17c.35,.29,.86,.57,1.52,.84,.66,.27,1.38,.41,2.17,.41,.83,0,1.53-.15,2.12-.44,.59-.3,1.07-.71,1.45-1.24s.64-1.15,.81-1.86c.17-.71,.25-1.48,.25-2.31Z"/><path class="cls-2" d="M139.53,105.39c-.66,.16-1.54,.34-2.62,.52-1.09,.18-2.34,.27-3.77,.27-1.24,0-2.28-.19-3.13-.55-.85-.36-1.53-.88-2.04-1.54-.51-.66-.88-1.44-1.11-2.34-.22-.9-.33-1.9-.33-2.99l.03-9.05h2.88s-.03,8.44-.03,8.44c0,1.96,.3,3.37,.92,4.22,.62,.85,1.66,1.28,3.13,1.28,.31,0,.63,0,.96-.03,.33-.02,.64-.04,.93-.07,.29-.03,.55-.06,.79-.09,.24-.03,.41-.07,.51-.11l.04-13.61h2.88s-.05,15.66-.05,15.66Z"/><path class="cls-2" d="M147.14,90.47c.35-.23,.88-.46,1.6-.71,.71-.25,1.54-.37,2.47-.36,1.16,0,2.18,.21,3.08,.63,.9,.42,1.66,1,2.27,1.74,.62,.75,1.08,1.64,1.4,2.67,.32,1.03,.47,2.17,.47,3.41,0,1.3-.2,2.47-.58,3.52-.39,1.04-.93,1.92-1.64,2.65-.71,.72-1.55,1.28-2.55,1.67-.99,.39-2.11,.58-3.35,.58-1.34,0-2.53-.1-3.57-.29-1.03-.19-1.88-.38-2.54-.57l.07-23.1,2.88-.49-.03,8.65Zm-.04,12.9c.29,.08,.7,.16,1.22,.24,.53,.07,1.18,.11,1.97,.11,1.55,0,2.79-.5,3.72-1.52,.93-1.02,1.4-2.47,1.41-4.35,0-.83-.08-1.6-.24-2.33-.16-.72-.43-1.35-.8-1.88-.37-.53-.85-.94-1.44-1.24-.59-.3-1.3-.45-2.12-.46-.79,0-1.51,.13-2.17,.4-.66,.27-1.17,.54-1.52,.83l-.03,10.2Z"/><path class="cls-2" d="M167.05,106.25c-1.78-.05-3.04-.43-3.78-1.16-.74-.73-1.11-1.85-1.11-3.38l.06-19.34,2.88-.49-.06,19.38c0,.48,.04,.87,.12,1.18,.08,.31,.21,.56,.4,.75,.18,.19,.43,.33,.74,.42,.31,.09,.69,.17,1.15,.24l-.41,2.42Z"/><path class="cls-2" d="M171.93,86.92c-.52,0-.96-.17-1.32-.52-.36-.34-.54-.8-.54-1.38,0-.58,.18-1.04,.55-1.38,.36-.34,.8-.51,1.32-.51,.52,0,.96,.17,1.32,.52,.36,.34,.54,.8,.54,1.38,0,.58-.18,1.04-.55,1.38-.36,.34-.8,.51-1.32,.51Zm1.4,19.04h-2.88s.05-16.13,.05-16.13h2.88s-.05,16.13-.05,16.13Z"/><path class="cls-2" d="M181.82,103.91c1.18,0,2.05-.15,2.62-.46,.57-.31,.85-.8,.86-1.49,0-.7-.28-1.26-.83-1.68-.56-.41-1.48-.88-2.75-1.4-.62-.25-1.21-.5-1.78-.77-.57-.26-1.06-.57-1.47-.92-.41-.35-.74-.78-.99-1.27-.25-.5-.37-1.11-.37-1.83,0-1.43,.54-2.56,1.59-3.39,1.06-.83,2.49-1.25,4.31-1.24,.45,0,.91,.03,1.36,.08,.45,.05,.88,.12,1.27,.19,.39,.07,.74,.15,1.04,.24,.3,.08,.53,.16,.7,.22l-.54,2.48c-.31-.17-.79-.34-1.46-.52-.66-.18-1.46-.27-2.39-.27-.81,0-1.51,.16-2.11,.47-.6,.32-.9,.82-.9,1.5,0,.35,.06,.66,.2,.93,.13,.27,.34,.51,.62,.73,.28,.22,.62,.42,1.04,.61,.41,.19,.91,.39,1.49,.59,.76,.29,1.44,.58,2.04,.86,.6,.28,1.11,.61,1.53,.98,.42,.37,.75,.82,.97,1.35,.23,.53,.34,1.17,.34,1.94,0,1.49-.56,2.61-1.67,3.37-1.11,.76-2.68,1.14-4.73,1.13-1.43,0-2.54-.13-3.35-.37-.81-.24-1.35-.42-1.64-.55l.53-2.48c.33,.12,.86,.31,1.58,.56,.72,.25,1.68,.38,2.88,.38Z"/><path class="cls-2" d="M191.67,106.02l.07-23.56,2.88-.49-.03,8.25c.54-.2,1.11-.36,1.72-.48,.61-.11,1.21-.17,1.81-.16,1.28,0,2.34,.19,3.19,.55,.85,.36,1.52,.87,2.03,1.53,.5,.65,.86,1.43,1.06,2.34,.2,.91,.3,1.91,.3,3.01l-.03,9.05h-2.88s.03-8.44,.03-8.44c0-.99-.06-1.84-.19-2.54-.13-.7-.35-1.27-.66-1.71-.31-.44-.72-.75-1.24-.95-.52-.2-1.16-.3-1.92-.3-.31,0-.63,.02-.96,.06-.33,.04-.65,.09-.95,.14-.3,.05-.57,.11-.81,.17s-.41,.11-.51,.15l-.04,13.39h-2.88Z"/></g></g></g></svg>