<?xml version="1.0" encoding="UTF-8"?><svg xmlns="http://www.w3.org/2000/svg" xmlns:xlink="http://www.w3.org/1999/xlink" viewBox="0 0 176.19 147.95"><defs><style>.c{fill:url(#b);}.d{letter-spacing:-.01em;}.e{letter-spacing:.05em;}.f{fill:#ff8c00;}.g{letter-spacing:-.01em;}.h{font-family:Ubuntu-Bold, Ubuntu;mix-blend-mode:multiply;}.h,.i{fill:#010068;font-size:23px;}.i{font-family:Ubuntu-Regular, Ubuntu;}.j{isolation:isolate;}.k{letter-spacing:0em;}.l{fill:#ff6b1a;opacity:.76;}</style><linearGradient id="b" x1="73.17" y1="39.4" x2="105.52" y2="66.53" gradientTransform="matrix(1, 0, 0, 1, 0, 0)" gradientUnits="userSpaceOnUse"><stop offset=".44" stop-color="#ff8c00"/><stop offset=".53" stop-color="#ff8500"/><stop offset=".65" stop-color="#ff7400"/><stop offset=".79" stop-color="#ff5700"/><stop offset=".94" stop-color="#ff3000"/><stop offset="1" stop-color="#ff1e00"/></linearGradient></defs><g class="j"><g id="a"><g><text class="h" transform="translate(30.11 130.52)"><tspan x="0" y="0">G</tspan><tspan class="k" x="16.15" y="0">r</tspan><tspan x="25.62" y="0">a</tspan><tspan class="d" x="38.34" y="0">F</tspan><tspan class="e" x="51.31" y="0">x</tspan></text><text class="i" transform="translate(95.31 130.52)"><tspan class="g" x="0" y="0">F</tspan><tspan x="12.03" y="0">ont</tspan></text><path class="l" d="M109.72,46.88l-7.45,8.74v16.3c2.12,1.37,4.65,2.18,7.37,2.18,7.51,0,13.61-6.09,13.61-13.61s-6.05-13.56-13.52-13.6Z"/><polygon class="f" points="96.22 62.7 63.91 100.6 102.27 100.6 102.27 71.91 102.27 55.62 96.22 62.7"/><path class="c" d="M97.03,20.23c-18.38,1.1-32.99,18.63-33.12,40.16v40.21l32.31-37.89,6.04-7.09,7.45-8.74,22.77-26.7s-34.85,.02-35.46,.06Z"/></g></g></g></svg>