<?xml version="1.0" encoding="UTF-8"?><svg id="a" xmlns="http://www.w3.org/2000/svg" xmlns:xlink="http://www.w3.org/1999/xlink" viewBox="0 0 125.36 127.62"><defs><style>.e{fill:url(#d);}.f{fill:url(#b);}.g{fill:#fff;}.h{fill:url(#c);opacity:.9;}.i{fill:#010068;opacity:.23;}</style><linearGradient id="b" x1="23.37" y1="84.61" x2="103.26" y2="44.73" gradientTransform="translate(15 -8.66)" gradientUnits="userSpaceOnUse"><stop offset="0" stop-color="#fd0048"/><stop offset=".14" stop-color="#f70147"/><stop offset=".31" stop-color="#e60447"/><stop offset=".51" stop-color="#ca0a46"/><stop offset=".73" stop-color="#a41345"/><stop offset=".96" stop-color="#731e44"/><stop offset="1" stop-color="#6b2044"/></linearGradient><linearGradient id="c" x1="81.38" y1="75.78" x2="40.44" y2="44.38" gradientTransform="matrix(1, 0, 0, 1, 0, 0)" gradientUnits="userSpaceOnUse"><stop offset=".03" stop-color="#6b2044"/><stop offset=".15" stop-color="#915974"/><stop offset=".31" stop-color="#bfa0af"/><stop offset=".44" stop-color="#e2d3da"/><stop offset=".54" stop-color="#f7f3f5"/><stop offset=".6" stop-color="#fff"/></linearGradient><linearGradient id="d" x1="78.19" y1="82.36" x2="50.47" y2="82.36" gradientTransform="matrix(1, 0, 0, 1, 0, 0)" gradientUnits="userSpaceOnUse"><stop offset="0" stop-color="#fd0048"/><stop offset=".15" stop-color="#ef0347"/><stop offset=".42" stop-color="#ca0b46"/><stop offset=".79" stop-color="#8f1844"/><stop offset="1" stop-color="#6b2044"/></linearGradient></defs><circle class="f" cx="62.68" cy="63.81" r="44.63"/><path class="h" d="M79.35,45.23h-18.36c-10.82,0-19.59,8.77-19.59,19.58,0,7.67,4.42,14.32,10.84,17.53,1.16-1.57,10.05-13.5,12.47-16.74l.45-.6,.18-.24,14.5-19.53h-.48Z"/><path class="g" d="M79.95,84.45l-14.63-19.67s-.06,.08-.16,.22c-.1,.14-.26,.34-.45,.6l-12.44,16.75h0c1.87,.89,4.38,2.1,9.52,2.1h18.16Z"/><path class="i" d="M50.5,82.36h0Z"/><path class="e" d="M50.5,82.36h0Z"/></svg>