<?xml version="1.0" encoding="utf-8"?>
<!-- Generator: Adobe Illustrator 27.6.0, SVG Export Plug-In . SVG Version: 6.00 Build 0)  -->
<svg version="1.1" id="a" xmlns="http://www.w3.org/2000/svg" xmlns:xlink="http://www.w3.org/1999/xlink" x="0px" y="0px"
	 viewBox="0 0 125.4 127.6" style="enable-background:new 0 0 125.4 127.6;" xml:space="preserve">
<style type="text/css">
	.st0{fill:url(#SVGID_1_);}
	.st1{opacity:0.23;fill:#010068;enable-background:new    ;}
	.st2{fill:url(#SVGID_00000049904246494032332820000008178251583384773525_);}
	.st3{fill:#FFFFFF;}
</style>
<linearGradient id="SVGID_1_" gradientUnits="userSpaceOnUse" x1="23.3681" y1="42.9529" x2="103.2482" y2="82.8279" gradientTransform="matrix(1 0 0 -1 15 118.8991)">
	<stop  offset="0" style="stop-color:#FD0048"/>
	<stop  offset="0.14" style="stop-color:#F70147"/>
	<stop  offset="0.31" style="stop-color:#E60447"/>
	<stop  offset="0.51" style="stop-color:#CA0A46"/>
	<stop  offset="0.73" style="stop-color:#A41345"/>
	<stop  offset="0.96" style="stop-color:#731E44"/>
	<stop  offset="1" style="stop-color:#6B2044"/>
</linearGradient>
<circle class="st0" cx="62.7" cy="63.8" r="44.6"/>
<path class="st1" d="M50.5,82.4L50.5,82.4z"/>
<linearGradient id="SVGID_00000090272228638259511090000002899097416763314352_" gradientUnits="userSpaceOnUse" x1="50.5" y1="45.1991" x2="50.5" y2="45.1991" gradientTransform="matrix(1 0 0 -1 0 127.5591)">
	<stop  offset="0" style="stop-color:#FD0048"/>
	<stop  offset="0.15" style="stop-color:#EF0347"/>
	<stop  offset="0.42" style="stop-color:#CA0B46"/>
	<stop  offset="0.79" style="stop-color:#8F1844"/>
	<stop  offset="1" style="stop-color:#6B2044"/>
</linearGradient>
<path style="fill:url(#SVGID_00000090272228638259511090000002899097416763314352_);" d="M50.5,82.4L50.5,82.4z"/>
<g>
	<path class="st3" d="M84.7,41.9C67,56,53.9,51.5,36.2,37.3C50.3,55,53,69.8,38.8,87.4c0.7-0.5,1.4-1.1,2.1-1.6l18.4-18.1l-4.6,11.3
		c11.3-2.8,22.2,1.6,34.4,11.3C75.1,72.7,70.5,59.6,84.7,41.9z M64.7,71.3l-2.9-6.2l-6.2-1l12.7-7.9L64.7,71.3z"/>
</g>
</svg>
