<?xml version="1.0" encoding="utf-8"?>
<!-- Generator: Adobe Illustrator 26.5.0, SVG Export Plug-In . SVG Version: 6.00 Build 0)  -->
<svg version="1.1" id="Layer_1" xmlns="http://www.w3.org/2000/svg" xmlns:xlink="http://www.w3.org/1999/xlink" x="0px" y="0px"
	 viewBox="0 0 176.2 147.9" style="enable-background:new 0 0 176.2 147.9;" xml:space="preserve">
<style type="text/css">
	.st0{fill:#FFFFFF;}
	.st1{opacity:0.55;fill:#FFFFFF;enable-background:new    ;}
	.st2{opacity:0.9;fill:url(#SVGID_1_);enable-background:new    ;}
</style>
<g>
	<path class="st0" d="M37.2,128.4c-2.6,0-4.6-0.7-5.9-2.2c-1.4-1.4-2-3.5-2-6.2c0-1.3,0.2-2.5,0.6-3.5s1-1.9,1.7-2.6
		c0.7-0.7,1.6-1.2,2.6-1.6s2.1-0.6,3.2-0.5c0.7,0,1.3,0.1,1.8,0.2c0.5,0.1,1,0.2,1.5,0.3s0.8,0.3,1,0.4c0.3,0.1,0.5,0.2,0.6,0.3
		l-1,2.9c-0.5-0.3-1.1-0.5-1.7-0.7c-0.7-0.2-1.4-0.3-2.2-0.3c-0.5,0-1.1,0.1-1.6,0.3s-1,0.5-1.4,0.9c-0.4,0.4-0.7,0.9-1,1.6
		c-0.2,0.6-0.4,1.4-0.4,2.3c0,0.7,0.1,1.4,0.2,2.1s0.4,1.2,0.8,1.7s0.8,0.8,1.4,1.1c0.6,0.3,1.3,0.4,2.1,0.4c0.5,0,1,0,1.4-0.1
		s0.8-0.1,1.1-0.2s0.6-0.2,0.8-0.3c0.2-0.1,0.5-0.2,0.7-0.3l1,2.9c-0.5,0.3-1.2,0.6-2.1,0.8C39.5,128.3,38.4,128.4,37.2,128.4
		L37.2,128.4z"/>
</g>
<g>
	<path class="st0" d="M54.5,112.2h3.6l0,15.9h-3.6l0-6.8l-6,0l0,6.8h-3.6l0-15.9h3.6l0,6.1l6,0L54.5,112.2z"/>
	<path class="st0" d="M61.8,112.2h3.6l-0.1,15.9h-3.6C61.7,128.1,61.7,112.2,61.8,112.2z"/>
</g>
<g>
	<path class="st0" d="M79.7,125.1v3.1l-10.7,0l0.1-15.9h3.6l0,12.9C72.6,125.1,79.7,125.1,79.7,125.1z"/>
</g>
<g>
	<path class="st0" d="M81.9,112.2h3.6l-0.1,15.9h-3.6L81.9,112.2z"/>
</g>
<g>
	<path class="st0" d="M100.1,120.4h2.2l0,7.5c-0.2,0.1-0.4,0.1-0.8,0.2c-0.3,0.1-0.8,0.1-1.2,0.2c-0.4,0.1-0.9,0.1-1.5,0.2
		s-1.1,0.1-1.6,0.1c-1.1,0-2.1-0.2-3.1-0.6c-0.9-0.4-1.7-0.9-2.4-1.6s-1.2-1.6-1.5-2.6c-0.4-1-0.5-2.2-0.5-3.5s0.2-2.5,0.6-3.6
		c0.4-1,1-1.9,1.7-2.6c0.7-0.7,1.5-1.2,2.4-1.6c0.9-0.4,1.9-0.6,3-0.5c0.7,0,1.4,0.1,1.9,0.1s1,0.2,1.4,0.3c0.4,0.1,0.7,0.2,1,0.4
		c0.2,0.1,0.4,0.2,0.5,0.3l-0.7,1.9c-0.4-0.3-1-0.5-1.8-0.7s-1.5-0.3-2.2-0.3c-0.8,0-1.6,0.1-2.2,0.4s-1.2,0.7-1.7,1.3
		s-0.8,1.2-1.1,2s-0.4,1.7-0.4,2.7c0,0.9,0.1,1.8,0.3,2.6c0.2,0.8,0.6,1.5,1,2c0.4,0.6,1,1,1.7,1.3c0.7,0.3,1.4,0.5,2.4,0.5
		c0.6,0,1.2,0,1.6-0.1s0.8-0.1,1-0.2L100.1,120.4L100.1,120.4z"/>
</g>
<g>
	<path class="st0" d="M110.2,116.1c0.2,0,0.4,0,0.6,0c0.2,0,0.5,0.1,0.7,0.1c0.2,0,0.4,0.1,0.6,0.1s0.3,0.1,0.4,0.1l-0.4,1.9
		c-0.2-0.1-0.4-0.1-0.8-0.2c-0.4-0.1-0.9-0.1-1.5-0.1c-0.4,0-0.8,0-1.2,0.1s-0.7,0.1-0.8,0.2l0,10h-2.1l0-11.5
		c0.5-0.2,1.1-0.3,1.9-0.5S109.3,116,110.2,116.1z"/>
</g>
<g>
	<path class="st0" d="M118.4,116c0.9,0,1.6,0.1,2.2,0.3c0.6,0.2,1.1,0.5,1.4,0.9c0.4,0.4,0.6,0.9,0.8,1.4c0.2,0.6,0.2,1.2,0.2,1.8
		l0,7.5c-0.2,0-0.4,0.1-0.8,0.1c-0.3,0.1-0.7,0.1-1.1,0.1c-0.4,0-0.9,0.1-1.3,0.1c-0.5,0-1,0.1-1.4,0.1c-0.7,0-1.3-0.1-1.9-0.2
		c-0.6-0.1-1.1-0.4-1.5-0.7s-0.7-0.7-1-1.2s-0.3-1.1-0.3-1.8c0-0.7,0.1-1.2,0.4-1.7c0.3-0.5,0.6-0.9,1.1-1.2c0.5-0.3,1-0.5,1.6-0.6
		s1.3-0.2,1.9-0.2c0.2,0,0.4,0,0.7,0c0.2,0,0.4,0.1,0.7,0.1s0.4,0.1,0.5,0.1c0.2,0,0.3,0.1,0.3,0.1v-0.6c0-0.3,0-0.7-0.1-1.1
		c-0.1-0.3-0.2-0.7-0.4-0.9c-0.2-0.3-0.5-0.5-0.8-0.7c-0.3-0.2-0.8-0.2-1.3-0.2c-0.7,0-1.3,0.1-1.8,0.1c-0.5,0.1-0.9,0.2-1.2,0.3
		l-0.2-1.8c0.3-0.1,0.7-0.2,1.4-0.3S117.6,116,118.4,116L118.4,116z M118.5,126.8c0.5,0,0.9,0,1.3,0c0.4,0,0.7-0.1,1-0.1v-3.6
		c-0.1-0.1-0.4-0.1-0.7-0.2c-0.3-0.1-0.8-0.1-1.2-0.1c-0.3,0-0.7,0-1,0.1s-0.7,0.1-1,0.3s-0.6,0.3-0.8,0.6s-0.3,0.6-0.3,1
		c0,0.8,0.2,1.3,0.7,1.6C117,126.6,117.7,126.8,118.5,126.8L118.5,126.8z"/>
</g>
<g>
	<path class="st0" d="M126.6,128.3l0.1-15.9l9.6,0v1.9l-7.4,0v4.8l6.5,0v1.9l-6.6,0l0,7.3L126.6,128.3L126.6,128.3z"/>
</g>
<g>
	<path class="st0" d="M145.3,128.4c-0.2-0.3-0.4-0.7-0.6-1.1s-0.5-0.8-0.8-1.3c-0.3-0.4-0.6-0.9-0.9-1.3c-0.3-0.4-0.6-0.8-0.9-1.2
		c-0.3,0.4-0.6,0.8-0.9,1.2s-0.6,0.9-0.9,1.3c-0.3,0.4-0.6,0.9-0.8,1.3c-0.2,0.4-0.5,0.8-0.6,1.1h-2.2c0.5-1.1,1.2-2.1,1.9-3.2
		s1.5-2.1,2.2-3.1l-3.9-5.7h2.4l2.8,4.2l2.9-4.2h2.3l-3.9,5.5c0.7,1,1.5,2.1,2.2,3.2s1.4,2.2,2,3.3L145.3,128.4L145.3,128.4z"/>
</g>
<polygon class="st1" points="127.5,58.2 97.4,58.2 97.4,58.3 127.5,98.7 "/>
<linearGradient id="SVGID_1_" gradientUnits="userSpaceOnUse" x1="130.4937" y1="68.5439" x2="46.1937" y2="133.1939" gradientTransform="matrix(1 0 0 -1 0 149.2756)">
	<stop  offset="3.000000e-02" style="stop-color:#FFFFFF;stop-opacity:0"/>
	<stop  offset="0.1502" style="stop-color:#FFFFFF;stop-opacity:0.2"/>
	<stop  offset="0.31" style="stop-color:#FFFFFF;stop-opacity:0.6"/>
	<stop  offset="0.44" style="stop-color:#FFFFFF;stop-opacity:0.9"/>
	<stop  offset="0.54" style="stop-color:#FFFFFF"/>
	<stop  offset="0.6" style="stop-color:#FFFFFF"/>
</linearGradient>
<path class="st2" d="M126.4,17.9H88.5c-22.3,0-40.4,18-40.4,40.3c0,15.8,9.1,29.5,22.4,36.1c2.4-3.2,20.7-27.8,25.7-34.4l0.9-1.2
	l0.4-0.5l29.9-40.2L126.4,17.9L126.4,17.9z"/>
<path class="st0" d="M127.7,98.6L97.5,58.1c0,0-0.1,0.2-0.3,0.4c-0.2,0.3-0.5,0.7-0.9,1.2L70.5,94.3l0,0c3.9,1.8,9,4.3,19.6,4.3
	L127.7,98.6L127.7,98.6z"/>
</svg>
