<?xml version="1.0" encoding="UTF-8"?><svg xmlns="http://www.w3.org/2000/svg" xmlns:xlink="http://www.w3.org/1999/xlink" viewBox="0 0 176.19 147.95"><defs><style>.c{letter-spacing:-.01em;}.d{letter-spacing:.05em;}.e{fill:#a09acc;}.f{fill:#725fdd;}.g{font-family:Ubuntu-Bold, Ubuntu;mix-blend-mode:multiply;}.g,.h{fill:#010068;font-size:23px;}.h{font-family:Ubuntu-Regular, Ubuntu;}.i{isolation:isolate;}.j{letter-spacing:0em;}.k{fill:url(#b);opacity:.9;}</style><linearGradient id="b" x1="140.58" y1="109.11" x2="56.76" y2="49.14" gradientTransform="matrix(1, 0, 0, 1, 0, 0)" gradientUnits="userSpaceOnUse"><stop offset=".26" stop-color="#010068"/><stop offset=".31" stop-color="#241e83" stop-opacity=".98"/><stop offset=".37" stop-color="#453c9d" stop-opacity=".95"/><stop offset=".43" stop-color="#6154b3" stop-opacity=".93"/><stop offset=".51" stop-color="#7666c4" stop-opacity=".92"/><stop offset=".59" stop-color="#8574d0" stop-opacity=".91"/><stop offset=".7" stop-color="#8e7bd6" stop-opacity=".9"/><stop offset=".9" stop-color="#917ed9" stop-opacity=".9"/></linearGradient></defs><g class="i"><g id="a"><text class="g" transform="translate(22.93 135.12)"><tspan x="0" y="0">G</tspan><tspan class="j" x="16.15" y="0">r</tspan><tspan x="25.62" y="0">a</tspan><tspan class="c" x="38.34" y="0">F</tspan><tspan class="d" x="51.31" y="0">x</tspan></text><text class="h" transform="translate(88.13 135.12)"><tspan x="0" y="0">Media</tspan></text><path class="e" d="M137.66,47.39l-40.85,57.63h41.57V53.86c0-1.41-.1-2.8-.29-4.16-.11-.78-.26-1.55-.43-2.3Z"/><path class="f" d="M88.33,34.45c-5.22-6.02-12.82-9.82-21.29-9.82-14.3,0-26.14,10.81-28.18,24.89-.21,1.42-.31,2.87-.31,4.34v51.17L88.33,34.78v-.33Z"/><path class="k" d="M109.88,24.62c-8.53,0-16.18,3.85-21.4,9.94l-.15,.21L38.54,105.02h58.27l40.85-57.63c-2.87-13.03-14.21-22.77-27.78-22.77Z"/></g></g></svg>