<?xml version="1.0" encoding="UTF-8"?><svg xmlns="http://www.w3.org/2000/svg" xmlns:xlink="http://www.w3.org/1999/xlink" viewBox="0 0 176.19 147.95"><defs><style>.cls-1{fill:url(#linear-gradient);opacity:.9;}.cls-2{fill:#010068;}.cls-3{fill:#a09acc;}.cls-4{fill:#725fdd;}.cls-5{mix-blend-mode:multiply;}.cls-6{isolation:isolate;}</style><linearGradient id="linear-gradient" x1="140.58" y1="101.9" x2="56.76" y2="41.92" gradientUnits="userSpaceOnUse"><stop offset=".26" stop-color="#010068"/><stop offset=".31" stop-color="#241e83" stop-opacity=".98"/><stop offset=".37" stop-color="#453c9d" stop-opacity=".95"/><stop offset=".43" stop-color="#6154b3" stop-opacity=".93"/><stop offset=".51" stop-color="#7666c4" stop-opacity=".92"/><stop offset=".59" stop-color="#8574d0" stop-opacity=".91"/><stop offset=".7" stop-color="#8e7bd6" stop-opacity=".9"/><stop offset=".9" stop-color="#917ed9" stop-opacity=".9"/></linearGradient></defs><g class="cls-6"><g id="Layer_1"><g class="cls-5"><path class="cls-2" d="M32.54,115.55c-1.67,0-2.88,.46-3.62,1.39-.74,.93-1.12,2.2-1.12,3.81,0,.78,.09,1.49,.28,2.13,.18,.64,.46,1.18,.83,1.64,.37,.46,.83,.82,1.38,1.07,.55,.25,1.2,.38,1.93,.38,.4,0,.74,0,1.02-.02,.28-.01,.53-.05,.75-.09v-5.54h3.59v7.89c-.43,.17-1.12,.35-2.07,.54-.95,.19-2.12,.29-3.52,.29-1.2,0-2.28-.18-3.25-.55s-1.81-.9-2.5-1.61c-.69-.71-1.22-1.57-1.6-2.6-.38-1.03-.56-2.2-.56-3.52s.21-2.51,.62-3.54c.41-1.03,.98-1.9,1.7-2.61s1.57-1.25,2.54-1.62,2.01-.55,3.12-.55c.75,0,1.43,.05,2.04,.15,.61,.1,1.13,.21,1.56,.34,.44,.13,.8,.26,1.08,.4,.28,.14,.49,.25,.61,.32l-1.04,2.88c-.49-.26-1.05-.49-1.69-.68-.64-.19-1.33-.29-2.08-.29Z"/><path class="cls-2" d="M47.97,119.66c-.31-.08-.67-.16-1.08-.24-.41-.08-.86-.13-1.33-.13-.21,0-.47,.02-.77,.06-.3,.04-.53,.08-.68,.13v9.25h-3.43v-11.45c.61-.21,1.34-.42,2.17-.61s1.77-.29,2.79-.29c.18,0,.41,.01,.67,.03,.26,.02,.52,.05,.78,.09,.26,.04,.52,.08,.78,.14,.26,.05,.48,.12,.67,.2l-.57,2.83Z"/><path class="cls-2" d="M54.51,116.3c1.01,0,1.86,.12,2.53,.34,.67,.23,1.21,.56,1.62,.99,.41,.43,.69,.95,.86,1.56,.17,.61,.25,1.3,.25,2.05v7.13c-.49,.11-1.17,.23-2.05,.38s-1.93,.22-3.17,.22c-.78,0-1.49-.07-2.13-.21-.64-.14-1.18-.36-1.64-.68-.46-.31-.81-.72-1.06-1.23s-.37-1.13-.37-1.86,.14-1.3,.43-1.79c.28-.49,.66-.88,1.14-1.17,.47-.29,1.02-.5,1.63-.63,.61-.13,1.25-.2,1.91-.2,.44,0,.84,.02,1.18,.06,.34,.04,.62,.09,.84,.15v-.32c0-.58-.18-1.05-.53-1.4-.35-.35-.97-.53-1.84-.53-.58,0-1.16,.04-1.73,.13s-1.06,.2-1.47,.36l-.44-2.76c.2-.06,.45-.13,.75-.2,.3-.07,.62-.13,.98-.18,.35-.05,.72-.1,1.12-.14s.79-.06,1.18-.06Zm.28,10.03c.34,0,.66,0,.97-.02,.31-.01,.55-.04,.74-.07v-2.6c-.14-.03-.34-.06-.62-.09-.28-.03-.53-.05-.76-.05-.32,0-.62,.02-.91,.06-.28,.04-.53,.11-.75,.22-.21,.11-.38,.25-.51,.44-.12,.18-.18,.41-.18,.69,0,.54,.18,.91,.54,1.12s.86,.31,1.48,.31Z"/><path class="cls-2" d="M63.11,128.72v-15.94h10.67v3.01h-7.08v3.33h6.3v3.01h-6.3v6.58h-3.59Z"/><path class="cls-2" d="M80.64,120.02l2.4-3.39h3.54l-4.2,5.88c.96,1.11,1.82,2.2,2.56,3.29s1.35,2.07,1.8,2.92h-3.67c-.12-.23-.28-.52-.46-.86-.18-.35-.39-.71-.62-1.08-.23-.38-.47-.69-.72-.96-.25-.26-.5-.5-.74-.71-.23,.2-.47,.42-.71,.66s-.47,.54-.68,.9-.43,.72-.63,1.07c-.21,.35-.39,.68-.55,.99h-3.49c.19-.38,.45-.83,.76-1.35s.66-1.07,1.04-1.62c.38-.56,.79-1.1,1.22-1.63,.44-.53,.87-1.02,1.29-1.48-.75-1.07-1.48-2.1-2.17-3.08-.69-.99-1.38-1.96-2.06-2.92h3.7l2.38,3.39Z"/><path class="cls-2" d="M97.26,126.52c-.15-.37-.36-.84-.61-1.4-.25-.57-.53-1.18-.82-1.84-.29-.66-.6-1.34-.93-2.04-.33-.7-.64-1.36-.93-1.98s-.56-1.18-.82-1.67c-.25-.49-.46-.87-.61-1.13-.17,1.81-.31,3.77-.41,5.88-.11,2.11-.2,4.24-.28,6.38h-2.18c.06-1.38,.13-2.77,.21-4.17,.08-1.4,.16-2.78,.26-4.14,.1-1.36,.21-2.68,.32-3.97,.11-1.29,.24-2.51,.38-3.66h1.96c.41,.68,.86,1.47,1.33,2.39s.95,1.88,1.43,2.89c.48,1,.94,2.01,1.38,3.01,.45,1,.85,1.92,1.22,2.75,.37-.83,.77-1.74,1.22-2.75,.44-1,.9-2.01,1.38-3.01,.47-1,.95-1.97,1.43-2.89s.92-1.72,1.33-2.39h1.96c.52,5.14,.91,10.45,1.17,15.94h-2.18c-.08-2.15-.17-4.27-.28-6.38-.11-2.11-.25-4.07-.41-5.88-.15,.26-.36,.64-.61,1.13-.25,.49-.53,1.05-.82,1.67s-.6,1.28-.93,1.98-.64,1.38-.93,2.04-.56,1.27-.82,1.84c-.25,.57-.46,1.04-.61,1.4h-1.79Z"/><path class="cls-2" d="M109.34,122.77c0-1.06,.15-1.98,.46-2.77,.31-.79,.71-1.45,1.22-1.97,.51-.52,1.09-.91,1.75-1.17s1.33-.39,2.02-.39c1.61,0,2.84,.5,3.7,1.51,.86,1,1.29,2.53,1.29,4.59v.36c0,.15,0,.28-.02,.4h-8.19c.09,1.24,.45,2.19,1.08,2.83,.63,.64,1.61,.97,2.94,.97,.75,0,1.38-.06,1.9-.2,.51-.13,.9-.26,1.16-.38l.3,1.79c-.26,.14-.72,.28-1.37,.44-.65,.15-1.39,.23-2.22,.23-1.04,0-1.94-.16-2.7-.47-.76-.31-1.38-.75-1.87-1.3-.49-.55-.86-1.21-1.09-1.97-.24-.76-.36-1.59-.36-2.5Zm8.21-1.17c.02-.97-.23-1.76-.72-2.38s-1.18-.93-2.06-.93c-.49,0-.92,.1-1.3,.29-.38,.19-.69,.44-.96,.75-.26,.31-.46,.66-.61,1.06s-.24,.8-.29,1.22h5.93Z"/><path class="cls-2" d="M130.59,111.24l2.14-.37v17.5c-.49,.14-1.12,.28-1.89,.41-.77,.14-1.65,.21-2.65,.21-.92,0-1.75-.15-2.48-.44-.74-.29-1.37-.71-1.89-1.24-.52-.54-.92-1.19-1.21-1.97-.28-.77-.43-1.64-.43-2.61s.12-1.76,.36-2.53,.59-1.43,1.05-1.98c.46-.55,1.02-.98,1.69-1.29,.67-.31,1.43-.46,2.29-.46,.69,0,1.3,.09,1.83,.28,.53,.18,.92,.36,1.18,.53v-6.05Zm0,8.05c-.26-.21-.64-.42-1.13-.62-.49-.2-1.03-.3-1.61-.3-.61,0-1.14,.11-1.58,.33-.44,.22-.79,.53-1.07,.92-.28,.39-.47,.86-.6,1.39-.12,.54-.18,1.11-.18,1.72,0,1.4,.34,2.47,1.03,3.23,.69,.76,1.61,1.14,2.76,1.14,.58,0,1.07-.03,1.46-.08,.39-.05,.69-.11,.91-.17v-7.57Z"/><path class="cls-2" d="M137.47,114.6c-.38,0-.71-.13-.98-.38-.27-.25-.4-.59-.4-1.02s.13-.77,.4-1.02c.27-.25,.59-.38,.98-.38s.71,.13,.98,.38c.27,.25,.4,.59,.4,1.02s-.13,.77-.4,1.02c-.27,.25-.59,.38-.98,.38Zm1.08,14.12h-2.14v-11.96h2.14v11.96Z"/><path class="cls-2" d="M146.09,116.47c.86,0,1.58,.11,2.17,.33,.59,.22,1.07,.54,1.43,.94,.36,.41,.62,.89,.77,1.45,.15,.56,.23,1.18,.23,1.85v7.47c-.18,.03-.44,.07-.77,.13s-.7,.1-1.12,.15-.86,.09-1.35,.13c-.48,.04-.96,.06-1.44,.06-.67,0-1.3-.07-1.86-.21s-1.06-.36-1.47-.66-.74-.69-.97-1.18c-.23-.49-.34-1.08-.34-1.77s.13-1.23,.4-1.7c.27-.48,.63-.86,1.09-1.15s1-.51,1.61-.64c.61-.14,1.26-.21,1.93-.21,.21,0,.44,.01,.67,.03,.23,.02,.45,.05,.66,.09s.39,.07,.54,.1c.15,.03,.26,.05,.32,.07v-.6c0-.35-.04-.7-.12-1.05-.08-.35-.21-.65-.41-.92s-.47-.48-.82-.64-.79-.24-1.35-.24c-.71,0-1.32,.05-1.85,.15-.53,.1-.92,.2-1.18,.31l-.25-1.77c.28-.12,.74-.24,1.38-.36,.64-.11,1.34-.17,2.09-.17Zm.18,10.72c.51,0,.96-.01,1.35-.03,.39-.02,.72-.07,.98-.13v-3.56c-.15-.08-.4-.14-.75-.2-.35-.05-.76-.08-1.25-.08-.32,0-.66,.02-1.02,.07s-.69,.14-.99,.29-.55,.34-.75,.6-.3,.59-.3,1c0,.77,.25,1.3,.74,1.6,.49,.3,1.16,.45,2,.45Z"/></g><path class="cls-3" d="M137.66,40.18l-40.85,57.63h41.57V46.65c0-1.41-.1-2.8-.29-4.16-.11-.78-.26-1.55-.43-2.3Z"/><path class="cls-4" d="M88.33,27.24c-5.22-6.02-12.82-9.82-21.29-9.82-14.3,0-26.14,10.81-28.18,24.89-.21,1.42-.31,2.87-.31,4.34v51.17L88.33,27.57v-.33Z"/><path class="cls-1" d="M109.88,17.41c-8.53,0-16.18,3.85-21.4,9.94l-.15,.21L38.54,97.81h0s49.79,0,49.79,0h8.49l40.85-57.63c-2.87-13.03-14.21-22.77-27.78-22.77Z"/></g></g></svg>