<?xml version="1.0" encoding="utf-8"?>
<!-- Generator: Adobe Illustrator 26.5.0, SVG Export Plug-In . SVG Version: 6.00 Build 0)  -->
<svg version="1.1" id="Layer_1" xmlns="http://www.w3.org/2000/svg" xmlns:xlink="http://www.w3.org/1999/xlink" x="0px" y="0px"
	 viewBox="0 0 229 147.9" style="enable-background:new 0 0 229 147.9;" xml:space="preserve">
<style type="text/css">
	.st0{opacity:0.23;fill:#FF0048;enable-background:new    ;}
	.st1{fill:#FFFFFF;}
	.st2{opacity:0.9;fill:url(#SVGID_1_);enable-background:new    ;}
</style>
<path class="st0" d="M16.7,77.9C16.7,77.9,16.7,77.9,16.7,77.9c0,15.8,9.1,29.5,22.4,36.1v0l0,0C25.8,107.4,16.7,93.7,16.7,77.9z"/>
<g>
	<path class="st1" d="M121.4,74.3c-4.3,0-7.5-1.2-9.8-3.6s-3.3-5.8-3.3-10.2c0-2.2,0.4-4.1,1-5.8c0.7-1.7,1.6-3.2,2.8-4.3
		c1.2-1.2,2.6-2.1,4.3-2.7c1.7-0.6,3.4-0.9,5.4-0.9c1.1,0,2.1,0.1,3,0.3s1.7,0.4,2.4,0.6s1.2,0.4,1.7,0.7s0.8,0.4,1,0.5l-1.7,4.8
		c-0.8-0.4-1.8-0.8-2.8-1.1s-2.3-0.5-3.7-0.5c-0.9,0-1.8,0.2-2.7,0.5s-1.7,0.8-2.3,1.5s-1.2,1.5-1.6,2.6c-0.4,1.1-0.6,2.3-0.6,3.9
		c0,1.2,0.1,2.3,0.4,3.4c0.3,1,0.7,2,1.3,2.7c0.6,0.8,1.4,1.4,2.3,1.8c1,0.4,2.1,0.7,3.5,0.7c0.9,0,1.6-0.1,2.3-0.2
		c0.7-0.1,1.3-0.2,1.8-0.4s1-0.3,1.4-0.5c0.4-0.2,0.8-0.3,1.1-0.5l1.6,4.8c-0.8,0.5-2,1-3.5,1.4S123.4,74.3,121.4,74.3L121.4,74.3z"
		/>
	<path class="st1" d="M150.2,47.5l5.9,0l-0.1,26.3l-5.9,0l0-11.2l-10,0l0,11.2l-5.9,0l0.1-26.3l5.9,0l0,10.1l10,0
		C150.2,57.6,150.2,47.6,150.2,47.5z"/>
	<path class="st1" d="M162.5,47.6l5.9,0l-0.1,26.3l-5.9,0C162.4,73.9,162.5,47.6,162.5,47.6z"/>
	<path class="st1" d="M192.3,68.9l0,5.1L174.7,74l0.1-26.3l5.9,0l-0.1,21.2L192.3,68.9L192.3,68.9z"/>
	<path class="st1" d="M196.3,47.7l5.9,0L202.2,74l-5.9,0C196.2,74,196.3,47.7,196.3,47.7z"/>
	<path class="st1" d="M123,97.8c0,1.2-0.2,2.3-0.5,3.4s-0.8,1.9-1.4,2.7c-0.6,0.7-1.4,1.3-2.3,1.7s-1.9,0.6-3.1,0.6
		c-0.9,0-1.8-0.1-2.5-0.4s-1.2-0.5-1.6-0.7l0,6.4h-2.9l0.1-21.4c0.7-0.2,1.5-0.3,2.6-0.5c1-0.2,2.2-0.3,3.6-0.3
		c1.2,0,2.4,0.2,3.3,0.6s1.8,1,2.5,1.7c0.7,0.7,1.2,1.6,1.6,2.7C122.8,95.3,123,96.5,123,97.8L123,97.8z M120,97.8
		c0-1.9-0.5-3.3-1.4-4.3c-0.9-1-2.2-1.5-3.7-1.5c-0.9,0-1.5,0-2,0.1s-0.9,0.1-1.2,0.2l0,10.2c0.3,0.3,0.9,0.6,1.5,0.8
		c0.7,0.3,1.4,0.4,2.2,0.4c0.8,0,1.5-0.1,2.1-0.4c0.6-0.3,1.1-0.7,1.4-1.2c0.4-0.5,0.6-1.2,0.8-1.9S120,98.6,120,97.8L120,97.8z"/>
	<path class="st1" d="M139.6,105.4c-0.7,0.2-1.5,0.3-2.6,0.5c-1.1,0.2-2.3,0.3-3.8,0.3c-1.2,0-2.3-0.2-3.1-0.6s-1.5-0.9-2-1.5
		c-0.5-0.7-0.9-1.4-1.1-2.3c-0.2-0.9-0.3-1.9-0.3-3l0-9.1h2.9l0,8.4c0,2,0.3,3.4,0.9,4.2s1.7,1.3,3.1,1.3c0.3,0,0.6,0,1,0
		c0.3,0,0.6,0,0.9-0.1s0.6-0.1,0.8-0.1c0.2,0,0.4-0.1,0.5-0.1l0-13.6h2.9L139.6,105.4L139.6,105.4z"/>
	<path class="st1" d="M147.2,90.5c0.4-0.2,0.9-0.5,1.6-0.7c0.7-0.2,1.5-0.4,2.5-0.4c1.2,0,2.2,0.2,3.1,0.6c0.9,0.4,1.7,1,2.3,1.7
		c0.6,0.8,1.1,1.6,1.4,2.7c0.3,1,0.5,2.2,0.5,3.4c0,1.3-0.2,2.5-0.6,3.5c-0.4,1-0.9,1.9-1.6,2.7c-0.7,0.7-1.6,1.3-2.6,1.7
		c-1,0.4-2.1,0.6-3.4,0.6c-1.3,0-2.5-0.1-3.6-0.3c-1-0.2-1.9-0.4-2.5-0.6l0.1-23.1l2.9-0.5L147.2,90.5L147.2,90.5z M147.2,103.4
		c0.3,0.1,0.7,0.2,1.2,0.2c0.5,0.1,1.2,0.1,2,0.1c1.6,0,2.8-0.5,3.7-1.5c0.9-1,1.4-2.5,1.4-4.3c0-0.8-0.1-1.6-0.2-2.3
		c-0.2-0.7-0.4-1.3-0.8-1.9c-0.4-0.5-0.9-0.9-1.4-1.2c-0.6-0.3-1.3-0.4-2.1-0.5c-0.8,0-1.5,0.1-2.2,0.4c-0.7,0.3-1.2,0.5-1.5,0.8
		C147.2,93.2,147.2,103.4,147.2,103.4z"/>
	<path class="st1" d="M167.1,106.2c-1.8-0.1-3-0.4-3.8-1.2s-1.1-1.8-1.1-3.4l0.1-19.3l2.9-0.5l-0.1,19.4c0,0.5,0,0.9,0.1,1.2
		s0.2,0.6,0.4,0.8c0.2,0.2,0.4,0.3,0.7,0.4c0.3,0.1,0.7,0.2,1.1,0.2L167.1,106.2L167.1,106.2z"/>
	<path class="st1" d="M172,86.9c-0.5,0-1-0.2-1.3-0.5c-0.4-0.3-0.5-0.8-0.5-1.4c0-0.6,0.2-1,0.6-1.4c0.4-0.3,0.8-0.5,1.3-0.5
		s1,0.2,1.3,0.5s0.5,0.8,0.5,1.4c0,0.6-0.2,1-0.5,1.4S172.5,86.9,172,86.9L172,86.9z M173.4,106h-2.9l0.1-16.1h2.9L173.4,106z"/>
	<path class="st1" d="M181.9,103.9c1.2,0,2.1-0.2,2.6-0.5c0.6-0.3,0.9-0.8,0.9-1.5c0-0.7-0.3-1.3-0.8-1.7c-0.6-0.4-1.5-0.9-2.8-1.4
		c-0.6-0.2-1.2-0.5-1.8-0.8c-0.6-0.3-1.1-0.6-1.5-0.9s-0.7-0.8-1-1.3c-0.2-0.5-0.4-1.1-0.4-1.8c0-1.4,0.5-2.6,1.6-3.4
		c1.1-0.8,2.5-1.2,4.3-1.2c0.4,0,0.9,0,1.4,0.1c0.5,0.1,0.9,0.1,1.3,0.2s0.7,0.2,1,0.2s0.5,0.2,0.7,0.2l-0.5,2.5
		c-0.3-0.2-0.8-0.3-1.5-0.5c-0.7-0.2-1.5-0.3-2.4-0.3c-0.8,0-1.5,0.2-2.1,0.5c-0.6,0.3-0.9,0.8-0.9,1.5c0,0.3,0.1,0.7,0.2,0.9
		c0.1,0.3,0.3,0.5,0.6,0.7s0.6,0.4,1,0.6c0.4,0.2,0.9,0.4,1.5,0.6c0.8,0.3,1.4,0.6,2,0.9c0.6,0.3,1.1,0.6,1.5,1s0.8,0.8,1,1.3
		s0.3,1.2,0.3,1.9c0,1.5-0.6,2.6-1.7,3.4s-2.7,1.1-4.7,1.1c-1.4,0-2.5-0.1-3.4-0.4s-1.4-0.4-1.6-0.6l0.5-2.5
		c0.3,0.1,0.9,0.3,1.6,0.6S180.7,103.9,181.9,103.9L181.9,103.9z"/>
	<path class="st1" d="M191.7,106l0.1-23.6l2.9-0.5l0,8.2c0.5-0.2,1.1-0.4,1.7-0.5c0.6-0.1,1.2-0.2,1.8-0.2c1.3,0,2.4,0.2,3.2,0.6
		c0.9,0.4,1.5,0.9,2,1.5c0.5,0.7,0.9,1.4,1.1,2.3c0.2,0.9,0.3,1.9,0.3,3l0,9.1h-2.9l0-8.4c0-1-0.1-1.8-0.2-2.5
		c-0.1-0.7-0.4-1.3-0.7-1.7s-0.7-0.8-1.2-0.9s-1.2-0.3-1.9-0.3c-0.3,0-0.6,0-1,0.1s-0.6,0.1-0.9,0.1s-0.6,0.1-0.8,0.2
		c-0.2,0.1-0.4,0.1-0.5,0.2l0,13.4H191.7L191.7,106z"/>
</g>
<path class="st1" d="M96.3,118.3L66.1,77.8c0,0-0.1,0.2-0.3,0.4c-0.2,0.3-0.5,0.7-0.9,1.2L39.1,114l0,0c3.9,1.8,9,4.3,19.7,4.3
	L96.3,118.3L96.3,118.3z"/>
<linearGradient id="SVGID_1_" gradientUnits="userSpaceOnUse" x1="99.0787" y1="48.8839" x2="14.7787" y2="113.5339" gradientTransform="matrix(1 0 0 -1 0 149.2756)">
	<stop  offset="3.000000e-02" style="stop-color:#FFFFFF;stop-opacity:0"/>
	<stop  offset="0.1502" style="stop-color:#FFFFFF;stop-opacity:0.2"/>
	<stop  offset="0.31" style="stop-color:#FFFFFF;stop-opacity:0.6"/>
	<stop  offset="0.44" style="stop-color:#FFFFFF;stop-opacity:0.9"/>
	<stop  offset="0.54" style="stop-color:#FFFFFF"/>
	<stop  offset="0.6" style="stop-color:#FFFFFF"/>
</linearGradient>
<path class="st2" d="M95,37.6H57.1c-22.3,0-40.4,18-40.4,40.3c0,15.8,9.1,29.5,22.4,36.1c2.4-3.2,20.7-27.8,25.7-34.4l0.9-1.2
	l0.4-0.5L96,37.6L95,37.6L95,37.6z"/>
</svg>
