<?xml version="1.0" encoding="UTF-8"?><svg id="a" xmlns="http://www.w3.org/2000/svg" xmlns:xlink="http://www.w3.org/1999/xlink" viewBox="0 0 125.36 127.62"><defs><style>.d{fill:url(#b);}.e,.f{fill:#fff;}.g{fill:url(#c);opacity:.9;}.f{opacity:.6;}</style><linearGradient id="b" x1="5.29" y1="63.72" x2="92.31" y2="83.72" gradientTransform="translate(15 -8.66)" gradientUnits="userSpaceOnUse"><stop offset="0" stop-color="#003fff"/><stop offset=".14" stop-color="#003cf9"/><stop offset=".31" stop-color="#0036e9"/><stop offset=".5" stop-color="#002bcf"/><stop offset=".7" stop-color="#001baa"/><stop offset=".92" stop-color="#00087c"/><stop offset="1" stop-color="#010068"/></linearGradient><linearGradient id="c" x1="46.95" y1="76.06" x2="88.8" y2="43.94" gradientTransform="matrix(1, 0, 0, 1, 0, 0)" gradientUnits="userSpaceOnUse"><stop offset="0" stop-color="#010068"/><stop offset=".26" stop-color="#8b8bba" stop-opacity=".95"/><stop offset=".48" stop-color="#fff" stop-opacity=".9"/></linearGradient></defs><circle class="d" cx="62.68" cy="64.8" r="44.63"/><path class="g" d="M66.4,46.21h-18.88l15.2,20.48,12.41,16.71h0c6.45-3.22,10.88-9.88,10.89-17.57,0-10.83-8.79-19.62-19.62-19.62Z"/><path class="f" d="M62.68,66.64l-15.17-20.43h-.03v39.17l14.57-19.58s.23,.31,.63,.84Z"/><path class="e" d="M62.68,66.64c-.39-.53-.63-.84-.63-.84l-14.57,19.58v.13h18.1c5.18,0,7.68-1.22,9.57-2.11-1.15-1.55-10.03-13.47-12.48-16.75Z"/></svg>