<?xml version="1.0" encoding="utf-8"?>
<!-- Generator: Adobe Illustrator 26.5.0, SVG Export Plug-In . SVG Version: 6.00 Build 0)  -->
<svg version="1.1" id="Layer_1" xmlns="http://www.w3.org/2000/svg" xmlns:xlink="http://www.w3.org/1999/xlink" x="0px" y="0px"
	 viewBox="0 0 176.2 147.9" style="enable-background:new 0 0 176.2 147.9;" xml:space="preserve">
<style type="text/css">
	.st0{fill:#FFFFFF;}
	.st1{opacity:0.9;fill:url(#SVGID_1_);enable-background:new    ;}
</style>
<g>
	<path class="st0" d="M29.1,129c-2.6,0-4.6-0.7-5.9-2.2s-2-3.5-2-6.2c0-1.3,0.2-2.5,0.6-3.5s1-1.9,1.7-2.6s1.6-1.2,2.6-1.6
		s2.1-0.5,3.2-0.5c0.7,0,1.3,0.1,1.8,0.2c0.5,0.1,1,0.2,1.4,0.3s0.8,0.3,1,0.4c0.3,0.1,0.5,0.2,0.6,0.3l-1,2.9
		c-0.5-0.3-1.1-0.5-1.7-0.7c-0.6-0.2-1.4-0.3-2.2-0.3c-0.5,0-1.1,0.1-1.6,0.3s-1,0.5-1.4,0.9c-0.4,0.4-0.7,0.9-1,1.6
		c-0.2,0.6-0.4,1.4-0.4,2.3c0,0.7,0.1,1.4,0.2,2.1s0.4,1.2,0.8,1.7s0.8,0.8,1.4,1.1s1.3,0.4,2.1,0.4c0.5,0,1,0,1.4-0.1
		s0.8-0.1,1.1-0.2s0.6-0.2,0.8-0.3c0.2-0.1,0.5-0.2,0.7-0.3l1,2.9c-0.5,0.3-1.2,0.6-2.1,0.8C31.3,128.9,30.3,129,29.1,129L29.1,129z
		"/>
	<path class="st0" d="M46.4,112.8H50l0,16h-3.6l0-6.8l-6,0l0,6.8h-3.6l0-15.9h3.6l0,6.1l6,0C46.3,118.9,46.4,112.8,46.4,112.8z"/>
	<path class="st0" d="M53.6,112.8h3.6l0,15.9h-3.6L53.6,112.8z"/>
	<path class="st0" d="M71.5,125.7v3.1l-10.7,0l0-15.9h3.6l0,12.9C64.5,125.7,71.5,125.7,71.5,125.7z"/>
	<path class="st0" d="M73.9,112.8h3.6l-0.1,16h-3.6C73.8,128.8,73.9,112.9,73.9,112.8z"/>
	<path class="st0" d="M92.8,122.9c0,0.9-0.1,1.7-0.4,2.5c-0.2,0.8-0.6,1.4-1.1,2s-1,1-1.7,1.3c-0.7,0.3-1.4,0.5-2.3,0.4
		c-0.7,0-1.3-0.1-1.8-0.3c-0.5-0.2-0.9-0.4-1.2-0.5v4.8h-2.2l0.1-15.8c0.5-0.1,1.1-0.2,1.9-0.4c0.8-0.1,1.6-0.2,2.6-0.2
		c0.9,0,1.8,0.2,2.5,0.4s1.4,0.7,1.9,1.2s0.9,1.2,1.2,2C92.6,121.1,92.8,121.9,92.8,122.9L92.8,122.9z M90.5,122.9
		c0-1.4-0.3-2.5-1-3.2s-1.6-1.1-2.8-1.1c-0.6,0-1.2,0-1.5,0.1s-0.7,0.1-0.9,0.2l0,7.5c0.3,0.2,0.6,0.4,1.1,0.6
		c0.5,0.2,1,0.3,1.6,0.3c0.6,0,1.1-0.1,1.6-0.3s0.8-0.5,1.1-0.9c0.3-0.4,0.5-0.8,0.6-1.4C90.5,124.1,90.6,123.5,90.5,122.9
		L90.5,122.9z"/>
	<path class="st0" d="M105.3,128.5c-0.5,0.1-1.1,0.2-1.9,0.4s-1.7,0.2-2.8,0.2c-0.9,0-1.7-0.1-2.3-0.4s-1.1-0.6-1.5-1.1
		c-0.4-0.5-0.7-1.1-0.8-1.7c-0.2-0.7-0.2-1.4-0.2-2.2l0-6.7h2.1l0,6.3c0,1.5,0.2,2.5,0.7,3.1s1.2,0.9,2.3,0.9c0.2,0,0.5,0,0.7,0
		c0.2,0,0.5,0,0.7-0.1c0.2,0,0.4,0,0.6-0.1c0.2,0,0.3-0.1,0.4-0.1l0-10.1h2.1L105.3,128.5L105.3,128.5z"/>
	<path class="st0" d="M111.2,117.5c0.3-0.2,0.7-0.3,1.2-0.5c0.5-0.2,1.1-0.3,1.8-0.3c0.9,0,1.6,0.2,2.3,0.5s1.2,0.7,1.7,1.3
		s0.8,1.2,1,2s0.3,1.6,0.3,2.5c0,1-0.2,1.8-0.4,2.6c-0.3,0.8-0.7,1.4-1.2,2c-0.5,0.5-1.2,0.9-1.9,1.2c-0.7,0.3-1.6,0.4-2.5,0.4
		c-1,0-1.9-0.1-2.6-0.2c-0.8-0.1-1.4-0.3-1.9-0.4l0.1-17.1l2.1-0.4L111.2,117.5L111.2,117.5z M111.1,127c0.2,0.1,0.5,0.1,0.9,0.2
		c0.4,0.1,0.9,0.1,1.5,0.1c1.2,0,2.1-0.4,2.8-1.1c0.7-0.8,1-1.8,1-3.2c0-0.6-0.1-1.2-0.2-1.7s-0.3-1-0.6-1.4
		c-0.3-0.4-0.6-0.7-1.1-0.9s-1-0.3-1.6-0.3c-0.6,0-1.1,0.1-1.6,0.3c-0.5,0.2-0.9,0.4-1.1,0.6L111.1,127L111.1,127z"/>
	<path class="st0" d="M126.1,129.2c-1.3,0-2.2-0.3-2.8-0.9c-0.6-0.5-0.8-1.4-0.8-2.5l0-14.3l2.1-0.4l0,14.4c0,0.3,0,0.6,0.1,0.9
		s0.2,0.4,0.3,0.6c0.1,0.1,0.3,0.2,0.6,0.3s0.5,0.1,0.8,0.2L126.1,129.2L126.1,129.2z"/>
	<path class="st0" d="M129.9,114.8c-0.4,0-0.7-0.1-1-0.4c-0.3-0.2-0.4-0.6-0.4-1s0.1-0.8,0.4-1s0.6-0.4,1-0.4c0.4,0,0.7,0.1,1,0.4
		c0.3,0.2,0.4,0.6,0.4,1c0,0.4-0.1,0.8-0.4,1S130.3,114.8,129.9,114.8L129.9,114.8z M130.9,129h-2.1l0-12h2.1L130.9,129z"/>
	<path class="st0" d="M137.4,127.4c0.9,0,1.5-0.1,1.9-0.3c0.4-0.2,0.6-0.6,0.6-1.1c0-0.5-0.2-0.9-0.6-1.2c-0.4-0.3-1.1-0.7-2-1
		c-0.5-0.2-0.9-0.4-1.3-0.6c-0.4-0.2-0.8-0.4-1.1-0.7c-0.3-0.3-0.6-0.6-0.7-0.9c-0.2-0.4-0.3-0.8-0.3-1.4c0-1.1,0.4-1.9,1.2-2.5
		c0.8-0.6,1.9-0.9,3.2-0.9c0.3,0,0.7,0,1,0.1s0.6,0.1,0.9,0.1c0.3,0.1,0.6,0.1,0.8,0.2c0.2,0.1,0.4,0.1,0.5,0.2l-0.4,1.8
		c-0.2-0.1-0.6-0.2-1.1-0.4s-1.1-0.2-1.8-0.2c-0.6,0-1.1,0.1-1.6,0.3c-0.4,0.2-0.7,0.6-0.7,1.1c0,0.3,0.1,0.5,0.1,0.7
		c0.1,0.2,0.2,0.4,0.5,0.5s0.5,0.3,0.8,0.4s0.7,0.3,1.1,0.4c0.6,0.2,1.1,0.4,1.5,0.6c0.4,0.2,0.8,0.4,1.1,0.7c0.3,0.3,0.6,0.6,0.7,1
		s0.2,0.9,0.2,1.4c0,1.1-0.4,1.9-1.2,2.5c-0.8,0.6-2,0.9-3.5,0.8c-1.1,0-1.9-0.1-2.5-0.3c-0.6-0.2-1-0.3-1.2-0.4l0.4-1.8
		c0.2,0.1,0.6,0.2,1.2,0.4S136.5,127.4,137.4,127.4L137.4,127.4z"/>
	<path class="st0" d="M144.9,129l0.1-17.5l2.1-0.4l0,6.1c0.4-0.2,0.8-0.3,1.3-0.3s0.9-0.1,1.4-0.1c0.9,0,1.7,0.1,2.4,0.4
		c0.6,0.3,1.1,0.7,1.5,1.1c0.4,0.5,0.6,1.1,0.8,1.7c0.1,0.7,0.2,1.4,0.2,2.2l0,6.7h-2.1l0-6.3c0-0.7-0.1-1.4-0.1-1.9
		c-0.1-0.5-0.3-0.9-0.5-1.3c-0.2-0.3-0.5-0.6-0.9-0.7s-0.9-0.2-1.4-0.2c-0.2,0-0.5,0-0.7,0c-0.2,0-0.5,0.1-0.7,0.1s-0.4,0.1-0.6,0.1
		c-0.2,0-0.3,0.1-0.4,0.1l0,9.9L144.9,129L144.9,129z"/>
</g>
<path class="st0" d="M127.8,98.2L97.7,57.7c0,0-0.1,0.2-0.3,0.5c-0.2,0.3-0.5,0.7-0.9,1.2L70.8,93.8l0,0c3.9,1.8,9,4.3,19.6,4.3
	L127.8,98.2L127.8,98.2z"/>
<linearGradient id="SVGID_1_" gradientUnits="userSpaceOnUse" x1="130.6837" y1="69.0039" x2="46.3837" y2="133.6539" gradientTransform="matrix(1 0 0 -1 0 149.2756)">
	<stop  offset="3.000000e-02" style="stop-color:#FFFFFF;stop-opacity:0"/>
	<stop  offset="0.1502" style="stop-color:#FFFFFF;stop-opacity:0.2"/>
	<stop  offset="0.31" style="stop-color:#FFFFFF;stop-opacity:0.6"/>
	<stop  offset="0.44" style="stop-color:#FFFFFF;stop-opacity:0.9"/>
	<stop  offset="0.54" style="stop-color:#FFFFFF"/>
	<stop  offset="0.6" style="stop-color:#FFFFFF"/>
</linearGradient>
<path class="st1" d="M126.6,17.4H88.7c-22.3,0-40.4,18-40.4,40.3c0,15.8,9.1,29.5,22.4,36.1c2.4-3.2,20.7-27.8,25.7-34.4l0.9-1.2
	l0.4-0.5l29.9-40.2L126.6,17.4L126.6,17.4z"/>
</svg>
