<svg xmlns="http://www.w3.org/2000/svg" xmlns:xlink="http://www.w3.org/1999/xlink" width="16" height="16" viewBox="0 0 16 16">
  <defs>
    <linearGradient id="linear-gradient" y1="0.5" x2="1" y2="0.5" gradientUnits="objectBoundingBox">
      <stop offset="0.26" stop-color="#51eaff"/>
      <stop offset="1" stop-color="#2fabdb"/>
    </linearGradient>
  </defs>
  <path id="sparkles-regular" d="M10.234,2.662a.36.36,0,0,0,0,.675L12,4l.662,1.766a.36.36,0,0,0,.675,0L14,4l1.766-.663a.36.36,0,0,0,0-.675L14,2,13.338.234a.36.36,0,0,0-.675,0L12,2ZM.291,7.5a.5.5,0,0,0,0,.909l.531.247.253.116.019.009,2.759,1.275,1.275,2.756.009.019.116.253.247.534a.5.5,0,0,0,.906,0l.247-.534.116-.253.009-.019,1.275-2.759,2.759-1.272.019-.009.253-.116.534-.247a.5.5,0,0,0,0-.906l-.534-.247-.253-.116-.019-.009L8.053,5.856,6.781,3.1l-.009-.019-.116-.256-.247-.534a.5.5,0,0,0-.906,0l-.247.534-.116.253-.009.019L3.856,5.853,1.1,7.128l-.019.009-.253.116L.291,7.5Zm2.594.453,1.6-.738a1.5,1.5,0,0,0,.734-.734l.738-1.6.738,1.6a1.5,1.5,0,0,0,.734.734l1.6.738-1.6.738a1.5,1.5,0,0,0-.734.734l-.738,1.6-.738-1.6a1.5,1.5,0,0,0-.734-.734l-1.6-.734v0ZM12,12l-1.766.663a.36.36,0,0,0,0,.675L12,14l.662,1.766a.36.36,0,0,0,.675,0L14,14l1.766-.663a.36.36,0,0,0,0-.675L14,12l-.663-1.766a.36.36,0,0,0-.675,0Z" fill="url(#linear-gradient)"/>
</svg>
