<svg width="54" height="54" viewBox="0 0 54 54" fill="none" xmlns="http://www.w3.org/2000/svg">
<path d="M15.8379 19.3574L10.7656 20.7031L9.41992 25.7754C9.21289 26.1895 8.79883 26.5 8.28125 26.5C7.86719 26.5 7.45312 26.1895 7.24609 25.7754L5.79687 20.7031L0.828124 19.3574C0.414061 19.1504 -1.49771e-06 18.7363 -1.52034e-06 18.2188C-1.53844e-06 17.8047 0.414061 17.3906 0.828123 17.1836L5.79687 15.7344L7.24609 10.7656C7.45312 10.3516 7.86719 9.9375 8.28125 9.9375C8.79883 9.9375 9.21289 10.3516 9.41992 10.7656L10.7656 15.7344L15.8379 17.1836C16.252 17.3906 16.5625 17.8047 16.5625 18.2187C16.5625 18.7363 16.252 19.1504 15.8379 19.3574ZM35.9199 41.0957C37.0586 39.8535 38.6113 39.3359 40.2676 39.6465L45.9609 40.5781L43.2695 35.5059C42.5449 34.0566 42.5449 32.2969 43.2695 30.8477L45.9609 25.7754L40.2676 26.707C38.7148 27.0176 37.0586 26.5 35.9199 25.2578L31.7793 21.1172L30.9512 26.9141C30.7441 28.4668 29.709 29.916 28.2598 30.6406L23.084 33.2285L28.2598 35.7129C29.709 36.4375 30.7441 37.8867 30.9512 39.4395L31.7793 45.2363L35.9199 41.0957ZM16.3555 35.4023C14.4922 34.4707 14.4922 31.8828 16.3555 30.9512L26.0859 26.1895L27.6387 15.4238C27.9492 13.457 30.4336 12.6289 31.8828 14.0781L39.4395 21.8418L50.1016 19.9785C52.1719 19.668 53.7246 21.7383 52.793 23.6016L47.7207 33.2285L52.793 42.752C53.7246 44.6152 52.1719 46.6855 50.1016 46.375L39.4395 44.5117L31.8828 52.2754C30.4336 53.7246 27.9492 53 27.6387 50.9297L26.0859 40.1641L16.3555 35.4023ZM25.2578 8.69531L24.1191 12.6289C24.0156 13.043 23.6016 13.25 23.1875 13.25C22.877 13.25 22.4629 13.043 22.3594 12.6289L21.2207 8.69531L17.2871 7.55664C16.873 7.45312 16.5625 7.03906 16.5625 6.625C16.5625 6.31445 16.873 5.90039 17.2871 5.79687L21.2207 4.6582L22.3594 0.724608C22.4629 0.310546 22.877 -9.83592e-07 23.1875 -9.97166e-07C23.6016 -1.01527e-06 24.0156 0.310546 24.1191 0.724608L25.2578 4.6582L29.1914 5.79687C29.6055 5.90039 29.8125 6.31445 29.8125 6.625C29.8125 7.03906 29.6055 7.45312 29.1914 7.55664L25.2578 8.69531Z" fill="url(#paint0_linear_18192_5748)"/>
<defs>
<linearGradient id="paint0_linear_18192_5748" x1="8.65625" y1="6.71969" x2="60.3262" y2="51.0283" gradientUnits="userSpaceOnUse">
<stop stop-color="#40E9FD"/>
<stop offset="1" stop-color="#22B3FD"/>
</linearGradient>
</defs>
</svg>
