<?xml version="1.0" encoding="UTF-8"?>
<svg id="Layer_1" xmlns="http://www.w3.org/2000/svg" xmlns:xlink="http://www.w3.org/1999/xlink" version="1.1" viewBox="0 0 1080 1080">
  <!-- Generator: Adobe Illustrator 29.5.1, SVG Export Plug-In . SVG Version: 2.1.0 Build 141)  -->
  <defs>
    <style>
      .st0 {
        fill: url(#linear-gradient1);
      }

      .st1 {
        fill: #000068;
      }

      .st2 {
        fill: url(#linear-gradient);
      }

      .st3 {
        fill: #ec1696;
      }

      .st4, .st5 {
        isolation: isolate;
      }

      .st6 {
        fill: #ff61c0;
      }

      .st5 {
        fill: #0b1926;
        opacity: 0;
      }
    </style>
    <linearGradient id="linear-gradient" x1="-93.1" y1="-1373.9" x2="64.5" y2="-1186" gradientTransform="translate(521.1 1608)" gradientUnits="userSpaceOnUse">
      <stop offset=".3" stop-color="#51eaff"/>
      <stop offset="1" stop-color="#2fabdb"/>
    </linearGradient>
    <linearGradient id="linear-gradient1" x1="629.9" y1="842.1" x2="452.4" y2="633.9" gradientTransform="translate(0 1030.6) scale(1 -1)" gradientUnits="userSpaceOnUse">
      <stop offset=".2" stop-color="#ff2aaa"/>
      <stop offset=".3" stop-color="#f228a1"/>
      <stop offset=".5" stop-color="#d0218a"/>
      <stop offset=".7" stop-color="#991665"/>
      <stop offset=".9" stop-color="#4d0832"/>
      <stop offset="1" stop-color="#260017"/>
    </linearGradient>
  </defs>
  <g class="st4">
    <g class="st4">
      <path class="st1" d="M69.3,812.6c-10.7,0-18.4,3-23.1,8.9-4.8,5.9-7.1,14-7.1,24.3s.6,9.5,1.8,13.6c1.2,4.1,2.9,7.6,5.3,10.5,2.4,2.9,5.3,5.2,8.8,6.8,3.5,1.6,7.6,2.4,12.3,2.4s4.7,0,6.5-.1c1.8,0,3.4-.3,4.8-.6v-35.4h22.9v50.4c-2.7,1.1-7.1,2.2-13.2,3.5-6.1,1.2-13.6,1.8-22.5,1.8s-14.6-1.2-20.8-3.5c-6.2-2.3-11.5-5.8-15.9-10.3-4.4-4.5-7.8-10-10.2-16.6-2.4-6.6-3.6-14.1-3.6-22.5s1.3-16.1,4-22.6c2.6-6.6,6.3-12.1,10.9-16.7,4.6-4.6,10-8,16.2-10.4,6.2-2.4,12.9-3.5,19.9-3.5s9.1.3,13,1c3.9.6,7.2,1.4,10,2.2,2.8.8,5.1,1.7,6.9,2.6,1.8.9,3.1,1.6,3.9,2.1l-6.6,18.4c-3.1-1.7-6.7-3.1-10.8-4.3-4.1-1.2-8.5-1.8-13.3-1.8Z"/>
      <path class="st1" d="M167.9,838.9c-2-.5-4.3-1-6.9-1.5-2.6-.5-5.5-.8-8.5-.8s-3,.1-4.9.4c-1.9.2-3.4.5-4.3.8v59.1h-21.9v-73.2c3.9-1.4,8.5-2.7,13.9-3.9,5.3-1.2,11.3-1.8,17.8-1.8s2.6,0,4.3.2c1.7.1,3.3.3,5,.6,1.7.2,3.3.5,5,.9,1.7.3,3.1.8,4.3,1.2l-3.7,18.1Z"/>
      <path class="st1" d="M209.6,817.5c6.5,0,11.8.7,16.2,2.2,4.3,1.5,7.8,3.6,10.4,6.3,2.6,2.7,4.4,6.1,5.5,10,1.1,3.9,1.6,8.3,1.6,13.1v45.5c-3.1.7-7.5,1.5-13.1,2.4s-12.3,1.4-20.3,1.4-9.5-.4-13.6-1.3c-4.1-.9-7.6-2.3-10.5-4.3-2.9-2-5.2-4.6-6.8-7.9-1.6-3.2-2.4-7.2-2.4-11.9s.9-8.3,2.7-11.5c1.8-3.1,4.2-5.6,7.3-7.5,3-1.9,6.5-3.2,10.4-4,3.9-.8,8-1.2,12.2-1.2s5.4.1,7.6.4c2.2.2,4,.6,5.4,1v-2.1c0-3.7-1.1-6.7-3.4-9-2.3-2.3-6.2-3.4-11.8-3.4s-7.4.3-11,.8c-3.6.5-6.8,1.3-9.4,2.3l-2.8-17.6c1.3-.4,2.9-.8,4.8-1.2,1.9-.4,4-.8,6.2-1.2,2.3-.3,4.6-.6,7.1-.9,2.5-.2,5-.4,7.6-.4ZM211.4,881.5c2.2,0,4.2,0,6.2-.1,2,0,3.5-.2,4.7-.4v-16.6c-.9-.2-2.2-.4-4-.6-1.8-.2-3.4-.3-4.8-.3s-4,.1-5.8.4c-1.8.2-3.4.7-4.8,1.4-1.4.7-2.4,1.6-3.2,2.8-.8,1.2-1.2,2.6-1.2,4.4,0,3.4,1.1,5.8,3.5,7.1,2.3,1.3,5.5,2,9.5,2Z"/>
      <path class="st1" d="M264.5,896.8v-101.8h68.2v19.2h-45.2v21.3h40.3v19.2h-40.3v42h-22.9Z"/>
      <path class="st1" d="M376.5,841.2l15.4-21.7h22.6l-26.8,37.6c6.1,7.1,11.6,14.1,16.4,21,4.8,7,8.6,13.2,11.5,18.6h-23.5c-.8-1.5-1.8-3.3-3-5.5-1.2-2.2-2.5-4.5-4-6.9-1.5-2.4-3-4.4-4.6-6.1s-3.2-3.2-4.7-4.5c-1.5,1.3-3,2.7-4.5,4.2-1.5,1.5-3,3.5-4.4,5.7-1.4,2.3-2.7,4.6-4.1,6.8-1.3,2.2-2.5,4.3-3.5,6.3h-22.3c1.2-2.4,2.9-5.3,4.9-8.6,2-3.4,4.2-6.8,6.6-10.4,2.4-3.6,5-7,7.8-10.4s5.6-6.5,8.3-9.5c-4.8-6.8-9.4-13.4-13.9-19.7-4.4-6.3-8.8-12.5-13.1-18.7h23.7l15.2,21.7Z"/>
    </g>
    <g class="st4">
      <path class="st1" d="M460,897.7c-2.1,0-4.3,0-6.7-.1-2.4,0-4.8-.2-7.2-.4-2.4-.2-4.8-.4-7.1-.7-2.4-.3-4.5-.7-6.5-1.2v-98.7c2-.5,4.1-.9,6.5-1.2,2.4-.3,4.7-.5,7.1-.7,2.4-.2,4.8-.3,7.1-.4,2.4,0,4.6-.1,6.6-.1,5.9,0,11.4.4,16.5,1.3,5.1.9,9.6,2.4,13.4,4.5,3.8,2.1,6.7,4.9,8.9,8.3,2.2,3.4,3.2,7.6,3.2,12.6s-1.3,10.2-4,13.7c-2.6,3.6-6.2,6.2-10.6,8,6,1.8,10.7,4.6,14.2,8.4,3.5,3.8,5.3,9.2,5.3,16.2,0,10.2-3.7,17.8-11.2,23-7.5,5.1-19.4,7.7-35.6,7.7ZM446.6,837.9h15c3.5,0,6.9-.2,10-.7,3.1-.5,5.9-1.4,8.2-2.6,2.3-1.3,4.1-2.9,5.4-5,1.3-2.1,2-4.7,2-7.8s-.7-5.4-2.1-7.4c-1.4-2-3.3-3.6-5.7-4.8-2.4-1.2-5.2-2.1-8.4-2.7s-6.7-.9-10.3-.9-6.5,0-8.5.1c-2.1,0-3.9.2-5.6.4v31.4ZM446.6,849.4v35.8c1.1,0,2.4.2,3.8.3,1.3,0,2.8.2,4.5.2,1.7,0,3.7,0,5.9,0,4.2,0,8.2-.3,12-.8,3.8-.5,7.1-1.5,9.9-2.9,2.8-1.4,5.1-3.3,6.8-5.7,1.7-2.4,2.6-5.5,2.6-9.3s-.6-6.1-1.9-8.4c-1.3-2.3-3.1-4.1-5.5-5.5-2.4-1.4-5.3-2.4-8.6-2.9-3.3-.6-7.1-.9-11.2-.9h-18.4Z"/>
      <path class="st1" d="M554.3,818.8c1.2,0,2.5,0,4,.2,1.5.1,3,.3,4.5.6,1.5.2,2.8.5,4,.7,1.2.2,2.1.5,2.7.7l-2.4,11.9c-1.1-.4-2.9-.9-5.4-1.4-2.5-.5-5.7-.8-9.6-.8s-5.1.3-7.6.8c-2.5.5-4.1.9-4.9,1.1v64.2h-13.7v-73.2c3.2-1.2,7.2-2.3,12-3.3,4.8-1,10.2-1.5,16.2-1.5Z"/>
      <path class="st1" d="M607.5,818.5c5.5,0,10.1.7,13.9,2.1,3.8,1.4,6.8,3.4,9.1,6,2.3,2.6,3.9,5.7,4.9,9.3,1,3.6,1.5,7.5,1.5,11.8v47.7c-1.2.2-2.8.5-4.9.8-2.1.3-4.5.7-7.1,1-2.6.3-5.5.6-8.6.8-3.1.2-6.1.4-9.2.4-4.3,0-8.3-.4-11.9-1.3-3.6-.9-6.8-2.3-9.4-4.2-2.6-1.9-4.7-4.4-6.2-7.6-1.5-3.1-2.2-6.9-2.2-11.3s.9-7.8,2.6-10.9c1.7-3,4-5.5,7-7.3,2.9-1.9,6.4-3.2,10.3-4.1,3.9-.9,8-1.3,12.3-1.3s2.8,0,4.3.2c1.5.1,2.9.3,4.2.6,1.3.2,2.5.5,3.5.7,1,.2,1.7.3,2.1.4v-3.8c0-2.3-.2-4.5-.7-6.7-.5-2.2-1.4-4.2-2.6-5.9-1.3-1.7-3-3.1-5.2-4.1s-5.1-1.5-8.6-1.5-8.4.3-11.8,1c-3.4.6-5.9,1.3-7.6,2l-1.6-11.3c1.8-.8,4.7-1.5,8.8-2.3s8.6-1.1,13.4-1.1ZM608.7,887c3.2,0,6.1,0,8.6-.2,2.5-.1,4.6-.4,6.2-.8v-22.8c-1-.5-2.6-.9-4.8-1.2-2.2-.3-4.9-.5-8-.5s-4.2.1-6.5.4c-2.3.3-4.4.9-6.3,1.8-1.9.9-3.5,2.2-4.8,3.8-1.3,1.6-1.9,3.7-1.9,6.4,0,4.9,1.6,8.3,4.7,10.2,3.1,1.9,7.4,2.9,12.8,2.9Z"/>
      <path class="st1" d="M659.5,822.6c3.1-.8,7.3-1.6,12.5-2.5,5.2-.9,11.2-1.3,17.9-1.3s11.1.9,15.1,2.6c4,1.7,7.2,4.1,9.6,7.2,2.4,3.1,4.1,6.8,5.1,11.1,1,4.3,1.5,9.1,1.5,14.2v42.9h-13.7v-40c0-4.7-.3-8.7-1-12-.6-3.3-1.7-6-3.2-8.1-1.5-2.1-3.4-3.5-5.9-4.5-2.4-.9-5.5-1.4-9.1-1.4s-3,0-4.6.1c-1.6,0-3.1.2-4.5.4-1.4.1-2.7.3-3.8.5-1.1.2-1.9.3-2.4.4v64.5h-13.7v-74.2Z"/>
      <path class="st1" d="M793.2,785.2l13.7-2.4v111.8c-3.1.9-7.2,1.8-12,2.6-4.9.9-10.5,1.3-16.9,1.3s-11.2-.9-15.9-2.8c-4.7-1.9-8.7-4.5-12-7.9-3.3-3.4-5.9-7.6-7.7-12.6-1.8-4.9-2.7-10.5-2.7-16.7s.8-11.3,2.3-16.2c1.5-4.9,3.7-9.1,6.7-12.6,2.9-3.5,6.5-6.3,10.8-8.2,4.3-2,9.1-2.9,14.6-2.9s8.3.6,11.7,1.8c3.4,1.2,5.9,2.3,7.6,3.4v-38.6ZM793.2,836.6c-1.7-1.4-4.1-2.7-7.2-4-3.1-1.3-6.6-1.9-10.3-1.9s-7.3.7-10.1,2.1c-2.8,1.4-5.1,3.4-6.8,5.9-1.8,2.5-3,5.5-3.8,8.9-.8,3.4-1.2,7.1-1.2,11,0,8.9,2.2,15.8,6.6,20.6s10.3,7.3,17.6,7.3,6.8-.2,9.3-.5c2.5-.3,4.4-.7,5.8-1.1v-48.3Z"/>
      <path class="st1" d="M906.6,795c-3,3.3-6.5,7-10.3,11.1-3.8,4.1-7.8,8.2-12,12.5-4.2,4.3-8.3,8.4-12.4,12.6-4.1,4.1-8,7.9-11.6,11.5,4.2,2.9,8.7,6.6,13.4,10.9,4.7,4.3,9.3,8.9,13.8,13.8,4.5,4.9,8.7,9.9,12.7,15,4,5.1,7.3,9.9,9.9,14.5h-16.7c-2.9-4.6-6.3-9.2-10.1-13.9-3.8-4.7-7.9-9.1-12.1-13.4s-8.6-8.2-12.9-11.8c-4.4-3.6-8.6-6.7-12.7-9.3v48.3h-14.2v-101.8h14.2v45c3.4-3.2,7.2-6.9,11.3-10.9,4.1-4.1,8.2-8.2,12.2-12.3,4-4.1,7.8-8.1,11.4-11.8,3.6-3.8,6.6-7.1,9-9.9h17.2Z"/>
      <path class="st1" d="M929.5,806.6c-2.4,0-4.5-.8-6.2-2.4-1.7-1.6-2.6-3.8-2.6-6.5s.9-4.9,2.6-6.5c1.7-1.6,3.8-2.4,6.2-2.4s4.5.8,6.2,2.4c1.7,1.6,2.6,3.8,2.6,6.5s-.9,4.9-2.6,6.5c-1.7,1.6-3.8,2.4-6.2,2.4ZM936.4,896.8h-13.7v-76.4h13.7v76.4Z"/>
      <path class="st1" d="M972.7,820.4h28.9v11.5h-28.9v35.3c0,3.8.3,7,.9,9.5.6,2.5,1.5,4.5,2.6,5.9,1.2,1.4,2.6,2.4,4.4,3,1.8.6,3.8.9,6.2.9,4.1,0,7.4-.5,9.9-1.4,2.5-.9,4.2-1.6,5.2-2l2.6,11.3c-1.4.7-3.8,1.5-7.2,2.6-3.4,1-7.3,1.5-11.8,1.5s-9.5-.7-12.9-2-6.1-3.3-8.2-5.9c-2.1-2.6-3.5-5.9-4.3-9.8-.8-3.9-1.2-8.3-1.2-13.4v-68.2l13.7-2.4v23.7Z"/>
      <path class="st1" d="M1036.7,887c5.6,0,9.7-.7,12.4-2.2,2.7-1.5,4-3.8,4-7.1s-1.3-6-4-7.9c-2.6-2-7-4.2-13.1-6.6-2.9-1.2-5.8-2.4-8.4-3.6-2.7-1.2-5-2.7-7-4.3-2-1.7-3.5-3.7-4.7-6-1.2-2.4-1.8-5.2-1.8-8.7,0-6.8,2.5-12.1,7.5-16.1,5-4,11.8-5.9,20.4-5.9s4.3.1,6.5.4c2.2.2,4.2.5,6,.9,1.9.3,3.5.7,4.9,1.1,1.4.4,2.5.7,3.3,1l-2.5,11.8c-1.5-.8-3.8-1.6-6.9-2.4-3.1-.8-6.9-1.2-11.3-1.2s-7.1.8-10,2.3c-2.8,1.5-4.3,3.9-4.3,7.1s.3,3.1,1,4.4c.6,1.3,1.6,2.4,2.9,3.5s3,2,4.9,2.9c2,.9,4.3,1.8,7.1,2.8,3.6,1.4,6.9,2.7,9.7,4,2.8,1.3,5.3,2.9,7.3,4.6,2,1.8,3.5,3.9,4.6,6.4,1.1,2.5,1.6,5.6,1.6,9.2,0,7.1-2.6,12.4-7.9,16-5.2,3.6-12.7,5.4-22.4,5.4s-12-.6-15.9-1.7c-3.8-1.1-6.4-2-7.8-2.6l2.5-11.8c1.6.6,4.1,1.5,7.5,2.6,3.4,1.2,8,1.8,13.7,1.8Z"/>
    </g>
  </g>
  <path class="st2" d="M413.8,566.2c-88.1-88.1-88.1-230.9,0-319s230.9-88.1,319,0l-319,319h0Z"/>
  <g id="Layer_1-2">
    <g>
      <path class="st3" d="M707.1,441.9c-60.9-43-121.9-86.2-183.1-129.7-61.3-43.6-122.3-87.3-183.1-130.8v519.5c122-86.3,244.1-172.6,366.1-258.9h0Z"/>
      <path class="st0" d="M758.8,330.1c-1.1-76.6-69.7-135.5-129.7-146.6-8.9-1.7-16.6-2.1-22.2-2.1h-265.9c60.7,43.6,121.8,87.2,183.1,130.8,61.2,43.5,122.1,86.8,183.1,129.7,9.3-8.6,52.6-50.4,51.7-111.8h0Z"/>
      <path class="st5" d="M758.8,330.1c-1.1-76.6-69.7-135.5-129.7-146.6-8.9-1.7-16.6-2.1-22.2-2.1h-265.9c60.7,43.6,121.8,87.2,183.1,130.8,61.2,43.5,122.1,86.8,183.1,129.7,9.3-8.6,52.6-50.4,51.7-111.8h0Z"/>
      <path class="st6" d="M758.8,551.6c.7-27.7-8.3-50.1-11.3-56.8-12.1-28-30.4-44.9-40.4-53-122,86.3-244.1,172.6-366.1,258.9,74.3,0,148.6,0,222.8,0,14.7,0,29.1-.2,43.1-.3,3.4,0,12.1,0,23.2-2.3,64.6-12.6,127-76.8,128.7-146.4h0Z"/>
    </g>
  </g>
</svg>