<?xml version="1.0" encoding="UTF-8"?><svg id="Layer_1" xmlns="http://www.w3.org/2000/svg" xmlns:xlink="http://www.w3.org/1999/xlink" viewBox="0 0 1080 1080"><defs><style>.cls-1{fill:url(#linear-gradient);}.cls-2{fill:#000068;}.cls-3{fill:#51eaff;}</style><linearGradient id="linear-gradient" x1="-93.1" y1="-423.79" x2="64.51" y2="-235.95" gradientTransform="translate(521.1 658)" gradientUnits="userSpaceOnUse"><stop offset=".26" stop-color="#51eaff"/><stop offset="1" stop-color="#2fabdb"/></linearGradient></defs><path class="cls-2" d="m214.98,812.44c-10.7,0-18.42,2.97-23.18,8.9-4.76,5.94-7.14,14.05-7.14,24.35,0,5,.59,9.54,1.77,13.61,1.18,4.07,2.94,7.58,5.3,10.52s5.3,5.23,8.83,6.84c3.53,1.62,7.65,2.43,12.36,2.43,2.55,0,4.73-.05,6.55-.15,1.81-.1,3.41-.29,4.78-.59v-35.47h22.96v50.48c-2.75,1.08-7.16,2.23-13.24,3.46-6.08,1.23-13.59,1.84-22.52,1.84-7.65,0-14.6-1.18-20.82-3.53-6.23-2.35-11.55-5.79-15.97-10.3-4.41-4.51-7.82-10.05-10.23-16.63-2.41-6.57-3.6-14.08-3.6-22.52s1.32-16.09,3.97-22.66c2.65-6.57,6.28-12.14,10.89-16.7,4.61-4.56,10.03-8.02,16.26-10.38,6.23-2.36,12.88-3.53,19.94-3.53,4.81,0,9.15.32,13.02.96,3.88.64,7.21,1.38,10.01,2.21,2.8.83,5.1,1.69,6.92,2.58,1.82.88,3.11,1.57,3.9,2.06l-6.62,18.39c-3.14-1.67-6.75-3.11-10.82-4.34-4.07-1.23-8.51-1.84-13.32-1.84Z"/><path class="cls-2" d="m312.06,838.78c-1.96-.49-4.27-1-6.92-1.55-2.65-.54-5.49-.81-8.54-.81-1.38,0-3.02.12-4.93.37-1.91.25-3.36.51-4.34.81v59.16h-21.93v-73.29c3.92-1.37,8.56-2.67,13.91-3.9,5.35-1.23,11.31-1.84,17.88-1.84,1.18,0,2.6.07,4.27.22s3.33.34,5,.59c1.67.25,3.33.54,5,.88,1.67.34,3.09.76,4.27,1.25l-3.68,18.1Z"/><path class="cls-2" d="m352.22,817.3c6.48,0,11.87.74,16.19,2.21,4.32,1.47,7.77,3.58,10.38,6.33,2.6,2.75,4.44,6.08,5.52,10.01,1.08,3.92,1.62,8.29,1.62,13.1v45.62c-3.14.69-7.5,1.5-13.1,2.43s-12.36,1.4-20.31,1.4c-5,0-9.54-.44-13.61-1.33-4.07-.88-7.58-2.33-10.52-4.34-2.94-2.01-5.2-4.64-6.77-7.87-1.57-3.24-2.36-7.21-2.36-11.92s.91-8.34,2.72-11.48c1.81-3.14,4.24-5.64,7.28-7.51,3.04-1.86,6.52-3.21,10.45-4.05,3.92-.83,8-1.25,12.21-1.25,2.84,0,5.37.12,7.58.37,2.21.25,4,.57,5.37.96v-2.06c0-3.73-1.13-6.72-3.38-8.98-2.26-2.25-6.18-3.38-11.77-3.38-3.73,0-7.41.27-11.04.81-3.63.54-6.77,1.3-9.42,2.28l-2.8-17.66c1.27-.39,2.87-.81,4.78-1.25s4-.83,6.25-1.18c2.26-.34,4.64-.64,7.14-.88,2.5-.24,5.03-.37,7.58-.37Zm1.77,64.16c2.16,0,4.22-.05,6.18-.15,1.96-.1,3.53-.25,4.71-.44v-16.63c-.88-.19-2.21-.39-3.97-.59-1.76-.2-3.38-.29-4.86-.29-2.06,0-4,.12-5.81.37-1.82.25-3.41.71-4.78,1.4-1.37.69-2.45,1.62-3.24,2.8-.79,1.18-1.18,2.65-1.18,4.41,0,3.44,1.15,5.81,3.46,7.14,2.3,1.32,5.47,1.99,9.49,1.99Z"/><path class="cls-2" d="m405.05,896.77v-101.99h68.28v19.28h-45.33v21.34h40.32v19.28h-40.32v42.09h-22.96Z"/><path class="cls-2" d="m517.03,841.06l15.39-21.7h22.66l-26.87,37.64c6.16,7.07,11.62,14.1,16.41,21.08,4.78,6.99,8.61,13.21,11.49,18.68h-23.52c-.8-1.48-1.79-3.32-2.96-5.53s-2.5-4.52-3.97-6.92c-1.47-2.41-3.01-4.44-4.61-6.11s-3.18-3.19-4.73-4.55c-1.48,1.27-2.99,2.67-4.52,4.21-1.53,1.54-2.99,3.46-4.37,5.76-1.38,2.3-2.73,4.58-4.06,6.83-1.33,2.25-2.51,4.36-3.54,6.31h-22.31c1.23-2.41,2.86-5.3,4.88-8.66,2.02-3.36,4.24-6.83,6.65-10.4,2.42-3.57,5.03-7.05,7.83-10.42,2.81-3.37,5.56-6.53,8.27-9.49-4.81-6.84-9.44-13.41-13.88-19.72-4.44-6.31-8.83-12.55-13.17-18.71h23.69l15.22,21.7Z"/><path class="cls-2" d="m628.86,846.59h14.28v47.68c-1.18.39-2.87.83-5.08,1.32-2.21.49-4.76.98-7.65,1.47-2.9.49-6.06.91-9.49,1.25-3.43.34-6.92.51-10.45.51-7.16,0-13.69-1.18-19.57-3.53s-10.94-5.79-15.16-10.3c-4.22-4.51-7.48-10.05-9.79-16.63-2.31-6.57-3.46-14.13-3.46-22.66s1.3-16.11,3.9-22.74c2.6-6.62,6.11-12.19,10.52-16.7s9.59-7.95,15.53-10.3c5.94-2.36,12.29-3.53,19.06-3.53,4.61,0,8.71.29,12.29.88,3.58.59,6.64,1.28,9.2,2.06,2.55.79,4.64,1.57,6.25,2.35,1.62.79,2.72,1.38,3.31,1.77l-4.56,11.92c-2.85-1.86-6.62-3.41-11.33-4.64-4.71-1.23-9.52-1.84-14.42-1.84-5.2,0-9.93.93-14.2,2.8-4.27,1.87-7.9,4.56-10.89,8.09-2.99,3.53-5.32,7.82-6.99,12.88-1.67,5.06-2.5,10.72-2.5,17s.71,11.63,2.13,16.63c1.42,5,3.58,9.3,6.48,12.88,2.89,3.58,6.48,6.35,10.74,8.31s9.29,2.94,15.08,2.94c4.12,0,7.63-.22,10.52-.66,2.89-.44,4.98-.86,6.25-1.25v-37.97Z"/><path class="cls-2" d="m658.55,858.65c0-6.77.98-12.68,2.94-17.73,1.96-5.05,4.56-9.25,7.8-12.58,3.24-3.33,6.97-5.84,11.18-7.5,4.22-1.67,8.54-2.5,12.95-2.5,10.3,0,18.2,3.22,23.69,9.64,5.49,6.43,8.24,16.21,8.24,29.36v2.28c0,.93-.05,1.79-.15,2.57h-52.39c.59,7.95,2.89,13.98,6.92,18.1,4.02,4.12,10.3,6.18,18.84,6.18,4.81,0,8.85-.42,12.14-1.25,3.29-.83,5.76-1.64,7.43-2.43l1.91,11.48c-1.67.88-4.59,1.82-8.76,2.8-4.17.98-8.9,1.47-14.2,1.47-6.67,0-12.44-1.01-17.29-3.02-4.86-2.01-8.86-4.78-11.99-8.31-3.14-3.53-5.47-7.72-6.99-12.58-1.52-4.86-2.28-10.18-2.28-15.97Zm52.54-7.51c.1-6.18-1.45-11.26-4.64-15.23-3.19-3.97-7.58-5.96-13.17-5.96-3.14,0-5.91.61-8.31,1.84-2.41,1.23-4.44,2.82-6.11,4.78-1.67,1.96-2.97,4.22-3.9,6.77-.93,2.55-1.54,5.15-1.84,7.8h37.97Z"/><path class="cls-2" d="m741.66,822.45c3.14-.78,7.31-1.62,12.51-2.5,5.2-.88,11.18-1.33,17.95-1.33,6.08,0,11.13.86,15.16,2.58,4.02,1.72,7.23,4.12,9.64,7.21,2.4,3.09,4.1,6.8,5.08,11.11.98,4.32,1.47,9.07,1.47,14.27v42.97h-13.69v-40.03c0-4.71-.32-8.73-.96-12.07-.64-3.33-1.69-6.03-3.16-8.09-1.47-2.06-3.44-3.56-5.89-4.49-2.45-.93-5.5-1.4-9.12-1.4-1.47,0-3,.05-4.56.15-1.57.1-3.07.22-4.49.37-1.42.15-2.7.32-3.83.51-1.13.2-1.94.34-2.43.44v64.61h-13.69v-74.32Z"/><path class="cls-2" d="m829.47,806.41c-2.45,0-4.54-.81-6.25-2.43-1.72-1.62-2.57-3.8-2.57-6.55s.86-4.93,2.57-6.55c1.72-1.62,3.8-2.43,6.25-2.43s4.54.81,6.25,2.43c1.72,1.62,2.57,3.8,2.57,6.55s-.86,4.93-2.57,6.55c-1.72,1.62-3.8,2.43-6.25,2.43Zm6.92,90.36h-13.69v-76.53h13.69v76.53Z"/><path class="cls-2" d="m852.37,858.65c0-6.77.98-12.68,2.94-17.73,1.96-5.05,4.56-9.25,7.8-12.58,3.24-3.33,6.97-5.84,11.18-7.5,4.22-1.67,8.54-2.5,12.95-2.5,10.3,0,18.2,3.22,23.69,9.64,5.49,6.43,8.24,16.21,8.24,29.36v2.28c0,.93-.05,1.79-.15,2.57h-52.39c.59,7.95,2.89,13.98,6.92,18.1,4.02,4.12,10.3,6.18,18.84,6.18,4.81,0,8.85-.42,12.14-1.25,3.29-.83,5.76-1.64,7.43-2.43l1.91,11.48c-1.67.88-4.59,1.82-8.76,2.8-4.17.98-8.9,1.47-14.2,1.47-6.67,0-12.44-1.01-17.29-3.02-4.86-2.01-8.86-4.78-11.99-8.31-3.14-3.53-5.47-7.72-6.99-12.58-1.52-4.86-2.28-10.18-2.28-15.97Zm52.54-7.51c.1-6.18-1.45-11.26-4.64-15.23-3.19-3.97-7.58-5.96-13.17-5.96-3.14,0-5.91.61-8.31,1.84-2.41,1.23-4.44,2.82-6.11,4.78-1.67,1.96-2.97,4.22-3.9,6.77-.93,2.55-1.54,5.15-1.84,7.8h37.97Z"/><path class="cls-1" d="m413.84,566.18c-88.08-88.08-88.08-230.88,0-318.95,88.08-88.08,230.88-88.08,318.95,0l-318.95,318.95Z"/><path class="cls-3" d="m555.06,700.86h-275.9l453.63-453.63v275.9c0,98.16-79.57,177.73-177.73,177.73Z"/></svg>