<?xml version="1.0" encoding="UTF-8"?>
<svg id="Layer_1" xmlns="http://www.w3.org/2000/svg" xmlns:xlink="http://www.w3.org/1999/xlink" version="1.1" viewBox="0 0 127.6 127.6">
  <!-- Generator: Adobe Illustrator 29.5.1, SVG Export Plug-In . SVG Version: 2.1.0 Build 141)  -->
  <defs>
    <style>
      .st0 {
        fill: url(#linear-gradient1);
      }

      .st1 {
        fill: url(#linear-gradient);
      }

      .st2, .st3 {
        fill: #fff;
      }

      .st3 {
        isolation: isolate;
        opacity: .6;
      }
    </style>
    <linearGradient id="linear-gradient" x1="1211.7" y1="5078.4" x2="1300.9" y2="5078.4" gradientTransform="translate(1319.6 5141.9) rotate(-180)" gradientUnits="userSpaceOnUse">
      <stop offset="0" stop-color="#e72790"/>
      <stop offset=".9" stop-color="#e769a8"/>
    </linearGradient>
    <linearGradient id="linear-gradient1" x1="73" y1="41.5" x2="45" y2="8.6" gradientTransform="translate(0 80.6) scale(1 -1)" gradientUnits="userSpaceOnUse">
      <stop offset=".2" stop-color="#fff"/>
      <stop offset="1" stop-color="#e63594"/>
    </linearGradient>
  </defs>
  <circle class="st1" cx="63.3" cy="63.5" r="44.6"/>
  <g id="Layer_1-2">
    <g>
      <path class="st2" d="M80.6,63.9c-6-4.2-11.9-8.4-17.9-12.7-6-4.3-12-8.5-17.9-12.8v50.7c11.9-8.4,23.9-16.9,35.7-25.3Z"/>
      <path class="st0" d="M85.6,52.9c0-7.5-6.8-13.2-12.7-14.3-.9-.2-1.6-.2-2.1-.2h-26c5.9,4.3,11.9,8.5,17.9,12.8,6,4.3,12,8.5,17.9,12.7.9-.8,5.2-4.9,5.1-10.9h0Z"/>
      <path class="st3" d="M85.6,74.6c0-2.7-.8-4.9-1.1-5.5-1.2-2.8-2.9-4.4-3.9-5.2-11.9,8.4-23.9,16.9-35.7,25.3h26c.4,0,1.2,0,2.2-.3,6.3-1.3,12.4-7.5,12.6-14.3h0Z"/>
    </g>
  </g>
</svg>