<?xml version="1.0" encoding="UTF-8"?>
<svg id="a" xmlns="http://www.w3.org/2000/svg" xmlns:xlink="http://www.w3.org/1999/xlink" version="1.1" viewBox="0 0 89.26 89.26">
  <!-- Generator: Adobe Illustrator 30.6.0, SVG Export Plug-In . SVG Version: 2.1.4 Build 109)  -->
  <defs>
    <style>
      .st0 {
        fill: url(#linear-gradient2);
      }

      .st1 {
        fill: url(#linear-gradient);
      }

      .st2, .st3 {
        fill: #fff;
      }

      .st4 {
        fill: #010068;
        opacity: .23;
      }

      .st4, .st5, .st3 {
        isolation: isolate;
      }

      .st5 {
        fill: url(#linear-gradient1);
        opacity: .9;
      }

      .st3 {
        opacity: .6;
      }
    </style>
    <linearGradient id="linear-gradient" x1="5.32" y1="23.68" x2="85.2" y2="63.55" gradientTransform="translate(15 80.44) scale(1 -1)" gradientUnits="userSpaceOnUse">
      <stop offset="0" stop-color="#fd0048"/>
      <stop offset=".14" stop-color="#f70147"/>
      <stop offset=".31" stop-color="#e60447"/>
      <stop offset=".51" stop-color="#ca0a46"/>
      <stop offset=".73" stop-color="#a41345"/>
      <stop offset=".96" stop-color="#731e44"/>
      <stop offset="1" stop-color="#6b2044"/>
    </linearGradient>
    <linearGradient id="linear-gradient1" x1="63.33" y1="32.51" x2="22.39" y2="63.91" gradientTransform="translate(0 89.1) scale(1 -1)" gradientUnits="userSpaceOnUse">
      <stop offset=".03" stop-color="#6b2044"/>
      <stop offset=".15" stop-color="#915974"/>
      <stop offset=".31" stop-color="#bfa0af"/>
      <stop offset=".44" stop-color="#e2d3da"/>
      <stop offset=".54" stop-color="#f7f3f5"/>
      <stop offset=".6" stop-color="#fff"/>
    </linearGradient>
    <linearGradient id="linear-gradient2" x1="32.45" y1="25.92" x2="32.45" y2="25.92" gradientTransform="translate(0 89.1) scale(1 -1)" gradientUnits="userSpaceOnUse">
      <stop offset="0" stop-color="#fd0048"/>
      <stop offset=".15" stop-color="#ef0347"/>
      <stop offset=".42" stop-color="#ca0b46"/>
      <stop offset=".79" stop-color="#8f1844"/>
      <stop offset="1" stop-color="#6b2044"/>
    </linearGradient>
  </defs>
  <circle class="st1" cx="44.63" cy="44.63" r="44.63"/>
  <polygon class="st3" points="62.17 45.59 47.28 45.59 47.27 45.61 61.9 65.27 62.17 65.27 62.17 45.59"/>
  <path class="st5" d="M61.3,26.05h-18.36c-10.82,0-19.59,8.77-19.59,19.58,0,7.67,4.42,14.32,10.84,17.53,1.16-1.57,10.05-13.5,12.47-16.74l.45-.6.18-.24,14.5-19.53h-.49Z"/>
  <path class="st2" d="M61.9,65.27l-14.63-19.67s-.06.08-.16.22c-.1.14-.26.34-.45.6l-12.44,16.75h0c1.87.89,4.38,2.1,9.52,2.1h18.16Z"/>
  <path class="st4" d="M32.45,63.18h0Z"/>
  <path class="st0" d="M32.45,63.18h0Z"/>
</svg>