<?xml version="1.0" encoding="UTF-8"?>
<svg id="Layer_1" xmlns="http://www.w3.org/2000/svg" xmlns:xlink="http://www.w3.org/1999/xlink" version="1.1" viewBox="0 0 89.2 89.2">
  <!-- Generator: Adobe Illustrator 30.6.0, SVG Export Plug-In . SVG Version: 2.1.4 Build 109)  -->
  <defs>
    <style>
      .st0 {
        fill: url(#linear-gradient);
      }

      .st1 {
        fill: url(#linear-gradient1);
      }

      .st1, .st2, .st3 {
        isolation: isolate;
      }

      .st2, .st3 {
        fill: #fff;
      }

      .st3 {
        opacity: .6;
      }
    </style>
    <linearGradient id="linear-gradient" x1="-6417.1" y1="3608.46" x2="-6282.6" y2="3608.46" gradientTransform="translate(-6285.5999 3653.0646) rotate(-180)" gradientUnits="userSpaceOnUse">
      <stop offset="0" stop-color="#740347"/>
      <stop offset=".2" stop-color="#a50063"/>
      <stop offset=".5" stop-color="#dd0085"/>
      <stop offset=".8" stop-color="#e71191"/>
      <stop offset="1" stop-color="#ff2aaa"/>
    </linearGradient>
    <linearGradient id="linear-gradient1" x1="36.79" y1="48.77" x2="60.19" y2="81.97" gradientTransform="translate(0 89.06) scale(1 -1)" gradientUnits="userSpaceOnUse">
      <stop offset="0" stop-color="#fff" stop-opacity="0"/>
      <stop offset="0" stop-color="#fff" stop-opacity=".2"/>
      <stop offset=".3" stop-color="#fff" stop-opacity=".8"/>
      <stop offset=".4" stop-color="#fff" stop-opacity=".9"/>
      <stop offset=".5" stop-color="#fff"/>
      <stop offset=".7" stop-color="#fff"/>
    </linearGradient>
  </defs>
  <circle class="st0" cx="44.6" cy="44.6" r="44.6"/>
  <g>
    <path class="st2" d="M59.5,44.7c-5.8-4.1-11.6-8.2-17.3-12.3-5.8-4.1-11.6-8.3-17.4-12.4v49.2c11.6-8.2,23.1-16.4,34.7-24.5Z"/>
    <path class="st1" d="M64.5,34.1c0-7.3-6.7-12.8-12.4-13.9-.8-.2-1.6-.2-2.1-.2h-25.2c5.8,4.1,11.5,8.3,17.4,12.4,5.8,4.1,11.5,8.2,17.3,12.3.9-.8,5.1-4.8,5-10.6h0Z"/>
    <path class="st3" d="M64.4,55.1c0-2.6-.8-4.8-1.1-5.4-1.1-2.7-2.9-4.3-3.8-5-12.4,7.1-23.1,16.4-34.7,24.5h25.2c.3,0,1.1,0,2.2-.2,6.1-1.2,12-7.3,12.2-13.9Z"/>
  </g>
</svg>