<?xml version="1.0" encoding="UTF-8"?>
<svg id="a" xmlns="http://www.w3.org/2000/svg" xmlns:xlink="http://www.w3.org/1999/xlink" version="1.1" viewBox="0 0 89.2 89.2">
  <!-- Generator: Adobe Illustrator 30.6.0, SVG Export Plug-In . SVG Version: 2.1.4 Build 109)  -->
  <defs>
    <style>
      .st0 {
        fill: url(#linear-gradient1);
      }

      .st1 {
        fill: url(#linear-gradient);
      }

      .st2 {
        fill: #fff;
      }

      .st3 {
        fill: #010068;
        isolation: isolate;
        opacity: .23;
      }
    </style>
    <linearGradient id="linear-gradient" x1="5.27" y1="221.31" x2="85.09" y2="181.46" gradientTransform="translate(15 -164.57)" gradientUnits="userSpaceOnUse">
      <stop offset="0" stop-color="#fd0048"/>
      <stop offset=".14" stop-color="#f70147"/>
      <stop offset=".31" stop-color="#e60447"/>
      <stop offset=".51" stop-color="#ca0a46"/>
      <stop offset=".73" stop-color="#a41345"/>
      <stop offset=".96" stop-color="#731e44"/>
      <stop offset="1" stop-color="#6b2044"/>
    </linearGradient>
    <linearGradient id="linear-gradient1" x1="32.4" y1="219.11" x2="32.4" y2="219.11" gradientTransform="translate(0 -155.91)" gradientUnits="userSpaceOnUse">
      <stop offset="0" stop-color="#fd0048"/>
      <stop offset=".15" stop-color="#ef0347"/>
      <stop offset=".42" stop-color="#ca0b46"/>
      <stop offset=".79" stop-color="#8f1844"/>
      <stop offset="1" stop-color="#6b2044"/>
    </linearGradient>
  </defs>
  <circle class="st1" cx="44.6" cy="44.6" r="44.6"/>
  <path class="st3" d="M32.4,63.2h0Z"/>
  <path class="st0" d="M32.4,63.2h0Z"/>
  <path class="st2" d="M66.6,22.7c-17.7,14.1-30.8,9.6-48.5-4.6,14.1,17.7,16.8,32.5,2.6,50.1.7-.5,1.4-1.1,2.1-1.6l18.4-18.1-4.6,11.3c11.3-2.8,22.2,1.6,34.4,11.3-14-17.6-18.6-30.7-4.4-48.4ZM46.6,52.1l-2.9-6.2-6.2-1,12.7-7.9-3.6,15.1Z"/>
</svg>