<?xml version="1.0" encoding="UTF-8"?>
<svg id="Layer_1" xmlns="http://www.w3.org/2000/svg" xmlns:xlink="http://www.w3.org/1999/xlink" version="1.1" viewBox="0 0 89.26 89.26">
  <!-- Generator: Adobe Illustrator 30.6.0, SVG Export Plug-In . SVG Version: 2.1.4 Build 109)  -->
  <defs>
    <style>
      .st0 {
        fill: #befcd1;
      }

      .st1 {
        fill: url(#linear-gradient);
      }

      .st2, .st3 {
        fill: #fff;
      }

      .st4 {
        fill: url(#linear-gradient1);
        opacity: .9;
      }

      .st4, .st3 {
        isolation: isolate;
      }

      .st3 {
        opacity: .5;
      }
    </style>
    <linearGradient id="linear-gradient" x1="-12.31" y1="41.69" x2="81.23" y2="28.59" gradientTransform="translate(15 80.44) scale(1 -1)" gradientUnits="userSpaceOnUse">
      <stop offset=".06" stop-color="#917ed9"/>
      <stop offset=".18" stop-color="#8c75d5"/>
      <stop offset=".36" stop-color="#815ecb"/>
      <stop offset=".6" stop-color="#6f38bc"/>
      <stop offset=".86" stop-color="#5504a6"/>
      <stop offset=".87" stop-color="#5503a6"/>
    </linearGradient>
    <linearGradient id="linear-gradient1" x1="69.68" y1="21.5" x2="28.91" y2="51.76" gradientTransform="translate(0 89.1) scale(1 -1)" gradientUnits="userSpaceOnUse">
      <stop offset="0" stop-color="#010068"/>
      <stop offset=".12" stop-color="#43428f" stop-opacity=".97"/>
      <stop offset=".28" stop-color="#9392be" stop-opacity=".94"/>
      <stop offset=".41" stop-color="#cdcde1" stop-opacity=".92"/>
      <stop offset=".5" stop-color="#f1f1f6" stop-opacity=".91"/>
      <stop offset=".56" stop-color="#fff" stop-opacity=".9"/>
    </linearGradient>
  </defs>
  <circle class="st1" cx="44.63" cy="44.63" r="44.63"/>
  <g>
    <path class="st2" d="M68.58,36.68l-20.12,28.39h20.48v-25.21c0-.7-.05-1.38-.14-2.05-.05-.38-.13-.76-.21-1.14h0Z"/>
    <path class="st3" d="M44.27,30.3c-2.57-2.97-6.31-4.84-10.49-4.84-7.05,0-12.88,5.32-13.88,12.26-.1.7-.15,1.41-.15,2.14v25.21l24.53-34.6v-.16h0Z"/>
    <path class="st4" d="M54.89,25.46c-4.2,0-7.97,1.9-10.54,4.9l-.08.11-24.53,34.6h28.71l20.12-28.39c-1.41-6.42-7-11.22-13.69-11.22h.01Z"/>
  </g>
  <path class="st0" d="M44.55,29.76v.16l.07-.1h0s-.04-.04-.06-.07h0Z"/>
</svg>