<?xml version="1.0" encoding="UTF-8"?><svg xmlns="http://www.w3.org/2000/svg" xmlns:xlink="http://www.w3.org/1999/xlink" viewBox="0 0 176.19 147.95"><defs><style>.cls-1{fill:url(#linear-gradient);}.cls-2{fill:#010068;}.cls-3,.cls-4{fill:#ff0048;}.cls-5{mix-blend-mode:multiply;}.cls-6{isolation:isolate;}.cls-4{opacity:.23;}</style><linearGradient id="linear-gradient" x1="67.66" y1="28.11" x2="126.29" y2="81.24" gradientUnits="userSpaceOnUse"><stop offset="0" stop-color="#fd0048"/><stop offset=".11" stop-color="#f60147"/><stop offset=".25" stop-color="#e50547"/><stop offset=".42" stop-color="#c80b46"/><stop offset=".6" stop-color="#a11445"/><stop offset=".8" stop-color="#6e1f44"/><stop offset=".81" stop-color="#6b2044"/></linearGradient></defs><g class="cls-6"><g id="Layer_1"><g class="cls-5"><path class="cls-2" d="M29.07,128.97c-2.59,0-4.56-.74-5.92-2.18-1.35-1.45-2.02-3.49-2.02-6.15,0-1.32,.21-2.5,.63-3.53,.42-1.03,.99-1.91,1.71-2.62s1.58-1.25,2.58-1.61,2.08-.54,3.25-.54c.67,0,1.29,.05,1.84,.16,.55,.1,1.04,.22,1.45,.35s.76,.27,1.03,.41,.47,.25,.6,.32l-1.04,2.89c-.49-.26-1.06-.49-1.71-.67-.65-.19-1.39-.28-2.22-.28-.55,0-1.09,.09-1.62,.27-.53,.18-1,.48-1.4,.88-.41,.4-.74,.93-.98,1.57-.25,.64-.37,1.42-.38,2.34,0,.74,.07,1.42,.23,2.06,.16,.64,.42,1.19,.78,1.65,.36,.46,.83,.83,1.41,1.1,.58,.27,1.29,.41,2.12,.41,.52,0,.99-.03,1.4-.09,.41-.06,.78-.13,1.1-.21,.32-.08,.61-.18,.85-.29,.25-.11,.47-.21,.67-.3l.98,2.88c-.51,.3-1.22,.58-2.14,.82-.92,.24-1.99,.36-3.2,.36Z"/><path class="cls-2" d="M46.37,112.76h3.59s-.05,15.95-.05,15.95h-3.59s.02-6.77,.02-6.77l-6.03-.02-.02,6.76h-3.59s.05-15.95,.05-15.95h3.59s-.02,6.11-.02,6.11l6.03,.02,.02-6.1Z"/><path class="cls-2" d="M53.64,112.78h3.59s-.05,15.95-.05,15.95h-3.59s.05-15.95,.05-15.95Z"/><path class="cls-2" d="M71.52,125.69v3.08s-10.66-.03-10.66-.03l.05-15.94h3.59s-.04,12.87-.04,12.87l7.06,.02Z"/><path class="cls-2" d="M73.86,112.84h3.59s-.05,15.95-.05,15.95h-3.59s.05-15.95,.05-15.95Z"/><path class="cls-2" d="M92.78,122.59c0,.91-.12,1.74-.36,2.5-.24,.77-.59,1.42-1.05,1.98-.46,.55-1.03,.98-1.7,1.28-.67,.3-1.43,.46-2.29,.45-.69,0-1.3-.1-1.83-.28-.53-.19-.92-.36-1.18-.53v4.78s-2.15,0-2.15,0l.05-15.85c.51-.12,1.14-.25,1.9-.4,.76-.14,1.64-.21,2.63-.21,.92,0,1.75,.15,2.48,.44,.73,.29,1.36,.71,1.88,1.25,.52,.54,.92,1.2,1.2,1.97,.28,.78,.42,1.65,.42,2.61Zm-2.23,0c0-1.4-.34-2.47-1.03-3.22s-1.61-1.13-2.76-1.13c-.64,0-1.15,.02-1.51,.06-.36,.04-.65,.1-.87,.16l-.02,7.54c.26,.22,.64,.42,1.13,.62,.49,.2,1.03,.3,1.61,.3,.61,0,1.14-.11,1.58-.33,.44-.22,.8-.53,1.07-.92,.28-.39,.48-.85,.6-1.38,.12-.53,.19-1.1,.19-1.71Z"/><path class="cls-2" d="M105.3,128.24c-.49,.12-1.14,.25-1.94,.38-.81,.13-1.74,.2-2.79,.2-.92,0-1.7-.14-2.32-.41-.63-.27-1.13-.65-1.52-1.14-.38-.49-.65-1.07-.82-1.74-.17-.67-.25-1.41-.25-2.22l.02-6.72h2.14s-.02,6.26-.02,6.26c0,1.46,.22,2.5,.68,3.13,.46,.63,1.23,.95,2.32,.95,.23,0,.47,0,.71-.02,.24-.01,.47-.03,.69-.06,.21-.02,.41-.04,.59-.07s.3-.05,.38-.08l.03-10.1h2.14s-.04,11.62-.04,11.62Z"/><path class="cls-2" d="M111.15,117.17c.26-.17,.66-.34,1.19-.53,.53-.18,1.14-.27,1.83-.27,.86,0,1.62,.16,2.29,.47,.67,.31,1.23,.74,1.69,1.29,.46,.55,.81,1.21,1.04,1.98,.24,.77,.35,1.61,.35,2.53,0,.97-.15,1.84-.43,2.61-.29,.77-.69,1.43-1.21,1.96-.52,.54-1.15,.95-1.89,1.24s-1.57,.43-2.49,.43c-1,0-1.88-.08-2.64-.21-.77-.14-1.39-.28-1.88-.42l.05-17.14,2.14-.36-.02,6.42Zm-.03,9.57c.21,.06,.52,.12,.91,.18,.39,.06,.88,.08,1.46,.08,1.15,0,2.07-.37,2.77-1.13,.69-.76,1.04-1.83,1.04-3.23,0-.61-.06-1.19-.18-1.73-.12-.54-.32-1-.59-1.39-.28-.39-.63-.7-1.07-.92-.44-.22-.96-.34-1.57-.34-.58,0-1.12,.1-1.61,.29s-.87,.4-1.13,.62l-.02,7.57Z"/><path class="cls-2" d="M126.11,128.88c-1.32-.04-2.25-.32-2.8-.86-.55-.54-.82-1.38-.82-2.51l.04-14.35,2.14-.36-.04,14.38c0,.35,.03,.64,.09,.87s.16,.42,.3,.55c.14,.14,.32,.24,.55,.31,.23,.07,.51,.13,.85,.17l-.3,1.79Z"/><path class="cls-2" d="M129.9,114.53c-.38,0-.71-.13-.98-.38s-.4-.6-.4-1.03c0-.43,.14-.77,.41-1.02,.27-.25,.59-.38,.98-.38,.38,0,.71,.13,.98,.38,.27,.25,.4,.6,.4,1.02,0,.43-.14,.77-.41,1.02-.27,.25-.6,.38-.98,.38Zm1.04,14.12h-2.14s.04-11.97,.04-11.97h2.14s-.04,11.97-.04,11.97Z"/><path class="cls-2" d="M137.41,127.14c.88,0,1.52-.11,1.95-.34,.42-.23,.63-.6,.64-1.1,0-.52-.21-.94-.62-1.24-.41-.31-1.1-.66-2.04-1.04-.46-.19-.9-.38-1.32-.57-.42-.19-.79-.42-1.09-.68-.31-.26-.55-.58-.73-.95-.18-.37-.27-.82-.27-1.36,0-1.06,.4-1.9,1.18-2.51,.78-.62,1.85-.93,3.2-.92,.34,0,.67,.02,1.01,.06s.65,.09,.94,.14c.29,.05,.55,.11,.77,.18,.22,.06,.39,.12,.52,.16l-.4,1.84c-.23-.12-.59-.25-1.08-.38-.49-.13-1.08-.2-1.77-.2-.6,0-1.12,.12-1.56,.35-.45,.24-.67,.61-.67,1.11,0,.26,.05,.49,.15,.69,.1,.2,.25,.38,.46,.54,.21,.16,.46,.31,.77,.45,.31,.14,.67,.29,1.1,.44,.57,.22,1.07,.43,1.52,.64,.44,.21,.82,.45,1.14,.73,.31,.28,.55,.61,.72,1,.17,.39,.25,.87,.25,1.44,0,1.1-.42,1.94-1.24,2.5-.82,.57-1.99,.85-3.51,.84-1.06,0-1.88-.09-2.48-.27-.6-.18-1-.31-1.22-.41l.39-1.84c.25,.09,.64,.23,1.17,.42,.54,.19,1.25,.28,2.14,.28Z"/><path class="cls-2" d="M144.88,128.7l.05-17.48,2.14-.36-.02,6.12c.4-.15,.83-.27,1.28-.35s.9-.12,1.35-.12c.95,0,1.74,.14,2.37,.41,.63,.27,1.13,.65,1.5,1.13,.37,.48,.64,1.06,.79,1.74s.23,1.42,.22,2.23l-.02,6.72h-2.14s.02-6.26,.02-6.26c0-.74-.05-1.36-.14-1.89-.1-.52-.26-.94-.49-1.27s-.54-.56-.92-.7-.86-.22-1.43-.22c-.23,0-.47,.01-.71,.04-.25,.03-.48,.06-.7,.1-.22,.04-.42,.08-.6,.12-.18,.04-.3,.08-.38,.11l-.03,9.94h-2.14Z"/></g><g><path class="cls-4" d="M48.41,57.74s0,0,0,.01c0,15.82,9.11,29.51,22.37,36.11v-.02s0,0,0,0c-13.26-6.6-22.36-20.29-22.37-36.1Z"/><path class="cls-4" d="M126.53,17.43h-37.8c-22.26,0-40.31,18.05-40.32,40.31,0,15.81,9.11,29.5,22.37,36.1,0,0,0,0,.01,0L127.53,17.43h-1Z"/><path class="cls-1" d="M126.53,17.43h-37.8c-22.26,0-40.31,18.05-40.32,40.31,0,15.81,9.11,29.5,22.37,36.1,0,0,0,0,.01,0L127.53,17.43h-1Z"/><path class="cls-3" d="M97.65,57.67l30.12,40.49h-37.39c-10.64,0-15.79-2.51-19.65-4.34,2.74-3.7,26.93-36.15,26.93-36.15Z"/></g></g></g></svg>