<?xml version="1.0" encoding="UTF-8"?>
<svg id="Layer_1" data-name="Layer 1" xmlns="http://www.w3.org/2000/svg" xmlns:xlink="http://www.w3.org/1999/xlink" viewBox="0 0 171.55 137.67">
  <defs>
    <style>
      .cls-1 {
        fill: url(#linear-gradient-2);
      }

      .cls-2 {
        fill: url(#linear-gradient);
      }

      .cls-3 {
        fill: #010068;
      }

      .cls-4 {
        fill: #ffc91f;
      }
    </style>
    <linearGradient id="linear-gradient" x1="66.42" y1="162.03" x2="94.62" y2="121.52" gradientTransform="translate(0 161.52) scale(1 -1)" gradientUnits="userSpaceOnUse">
      <stop offset="0" stop-color="#ffc91f"/>
      <stop offset="1" stop-color="#f87000"/>
    </linearGradient>
    <linearGradient id="linear-gradient-2" x1="103.91" y1="60.94" x2="75.89" y2="101.94" xlink:href="#linear-gradient"/>
  </defs>
  <g>
    <path class="cls-3" d="M8.31,120.99c-1.64,0-2.82.45-3.55,1.36-.73.91-1.09,2.15-1.09,3.73,0,.77.09,1.46.27,2.08.18.62.45,1.16.81,1.61.36.45.81.8,1.35,1.05s1.17.37,1.89.37c.39,0,.72,0,1-.02.28-.01.52-.04.73-.09v-5.43h3.51v7.73c-.42.17-1.1.34-2.03.53-.93.19-2.08.28-3.45.28-1.17,0-2.23-.18-3.19-.54-.95-.36-1.77-.89-2.44-1.58-.67-.69-1.2-1.54-1.57-2.54-.37-1.01-.55-2.15-.55-3.45s.2-2.46.61-3.47c.41-1.01.96-1.86,1.67-2.56.71-.7,1.54-1.23,2.49-1.59.95-.36,1.97-.54,3.05-.54.74,0,1.4.05,1.99.15.59.1,1.1.21,1.53.34s.78.26,1.06.39c.28.13.48.24.6.31l-1.01,2.82c-.48-.25-1.03-.48-1.66-.66-.63-.18-1.3-.28-2.04-.28h.02Z"/>
    <path class="cls-3" d="M23.42,125.03c-.3-.08-.65-.15-1.06-.24-.41-.08-.84-.12-1.31-.12-.21,0-.46.02-.75.06-.29.04-.51.08-.66.12v9.05h-3.36v-11.22c.6-.21,1.31-.41,2.13-.6.82-.19,1.73-.28,2.74-.28.18,0,.4.01.65.03.25.02.51.05.77.09s.51.08.77.13c.26.05.47.12.65.19l-.56,2.77v.02Z"/>
    <path class="cls-3" d="M29.82,121.74c.99,0,1.82.11,2.48.34.66.22,1.19.55,1.59.97.4.42.68.93.84,1.53.16.6.25,1.27.25,2v6.98c-.48.11-1.15.23-2,.37-.86.14-1.89.21-3.11.21-.77,0-1.46-.07-2.08-.2-.62-.13-1.16-.36-1.61-.66-.45-.31-.8-.71-1.04-1.21s-.36-1.1-.36-1.82.14-1.28.42-1.76c.28-.48.65-.86,1.11-1.15.46-.29,1-.49,1.6-.62s1.22-.19,1.87-.19c.44,0,.82.02,1.16.06s.61.09.82.15v-.32c0-.57-.17-1.03-.52-1.37s-.95-.52-1.8-.52c-.57,0-1.13.04-1.69.12s-1.04.2-1.44.35l-.43-2.7c.19-.06.44-.12.73-.19.29-.07.61-.13.96-.18.35-.05.71-.1,1.09-.14.38-.04.77-.06,1.16-.06h0ZM30.09,131.56c.33,0,.65,0,.95-.02.3-.01.54-.04.72-.07v-2.54c-.14-.03-.34-.06-.61-.09-.27-.03-.52-.04-.74-.04-.32,0-.61.02-.89.06-.28.04-.52.11-.73.21-.21.11-.38.25-.5.43-.12.18-.18.41-.18.67,0,.53.18.89.53,1.09.35.2.84.3,1.45.3Z"/>
    <path class="cls-3" d="M38.24,133.9v-15.61h10.45v2.95h-6.94v3.27h6.17v2.95h-6.17v6.44h-3.51Z"/>
    <path class="cls-3" d="M55.41,125.37l2.35-3.32h3.47l-4.11,5.76c.94,1.08,1.78,2.16,2.51,3.23s1.32,2.02,1.76,2.86h-3.6c-.12-.23-.27-.51-.45-.85s-.38-.69-.61-1.06c-.23-.37-.46-.68-.71-.93-.25-.26-.49-.49-.72-.7-.23.19-.46.41-.69.64-.23.23-.46.53-.67.88-.21.35-.42.7-.62,1.04s-.38.67-.54.97h-3.41c.19-.37.44-.81.75-1.33.31-.52.65-1.04,1.02-1.59.37-.55.77-1.08,1.2-1.59.43-.52.85-1,1.27-1.45-.74-1.05-1.44-2.05-2.12-3.02-.68-.96-1.35-1.92-2.02-2.86h3.63l2.33,3.32h-.02Z"/>
    <path class="cls-3" d="M63.89,133.6v-15.25h9.31v1.83h-7.17v4.53h6.38v1.78h-6.38v5.28h7.72v1.83h-9.86ZM83.36,133.6c-.16-.32-.36-.68-.59-1.08-.23-.4-.49-.8-.77-1.21-.28-.43-.56-.84-.86-1.25-.29-.41-.58-.8-.86-1.17-.28.37-.56.76-.86,1.19-.29.41-.58.83-.86,1.25-.26.41-.51.81-.75,1.21-.23.4-.43.75-.59,1.06h-2.11c.51-1,1.12-2.01,1.83-3.04.72-1.04,1.43-2.03,2.13-2.97l-3.78-5.43h2.31l2.73,4,2.75-4h2.18l-3.7,5.3c.7.95,1.42,1.97,2.16,3.04.75,1.06,1.38,2.09,1.89,3.1h-2.24ZM95.7,127.9c0-1.33-.33-2.36-.99-3.08-.66-.72-1.54-1.08-2.64-1.08-.62,0-1.1.02-1.45.07-.34.04-.61.1-.81.15v7.22c.25.21.61.4,1.08.59.47.19.98.29,1.54.29.59,0,1.09-.1,1.5-.31.43-.22.77-.51,1.03-.88.26-.38.45-.82.57-1.32.12-.51.18-1.06.18-1.65ZM97.83,127.9c0,.87-.12,1.66-.35,2.4-.22.73-.55,1.36-.99,1.89-.44.53-.98.94-1.63,1.23-.63.29-1.36.44-2.18.44-.66,0-1.25-.09-1.76-.26-.5-.18-.87-.34-1.12-.51v4.58h-2.05v-15.16c.48-.12,1.09-.24,1.8-.37.73-.15,1.58-.22,2.53-.22.88,0,1.67.14,2.38.42.7.28,1.31.67,1.8,1.19.5.51.88,1.14,1.14,1.89.28.73.42,1.56.42,2.49ZM100.07,127.9c0-1.01.15-1.89.44-2.64.29-.76.68-1.39,1.17-1.89.48-.5,1.04-.87,1.67-1.12.63-.25,1.28-.37,1.94-.37,1.54,0,2.72.48,3.54,1.45.82.95,1.23,2.41,1.23,4.38v.35c0,.13,0,.26-.02.37h-7.83c.09,1.19.43,2.09,1.03,2.71.6.62,1.54.92,2.82.92.72,0,1.32-.06,1.8-.18.5-.13.87-.26,1.12-.37l.29,1.72c-.25.13-.69.27-1.32.42-.62.15-1.32.22-2.11.22-1,0-1.86-.15-2.6-.44-.72-.31-1.31-.73-1.78-1.25s-.82-1.15-1.06-1.87c-.22-.73-.33-1.53-.33-2.4ZM107.93,126.78c.01-.92-.22-1.68-.7-2.27-.47-.6-1.12-.9-1.96-.9-.47,0-.89.1-1.25.29-.35.18-.65.41-.9.7s-.45.63-.59,1.01c-.13.38-.22.77-.26,1.17h5.68ZM117.23,121.92c.18,0,.37.01.59.04.24.01.46.04.68.09.22.03.42.07.59.11.19.03.33.06.42.09l-.35,1.78c-.16-.06-.43-.12-.81-.2-.37-.09-.84-.13-1.43-.13-.38,0-.76.04-1.14.13-.37.07-.61.12-.73.15v9.61h-2.05v-10.96c.48-.18,1.09-.34,1.8-.48.72-.16,1.53-.24,2.42-.24ZM123.54,133.6h-2.05v-11.44h2.05v11.44ZM122.5,120.09c-.37,0-.68-.12-.95-.35-.25-.25-.37-.58-.37-.99s.12-.73.37-.97c.26-.25.58-.37.95-.37s.67.12.92.37c.26.23.4.56.4.97s-.13.74-.4.99c-.25.23-.56.35-.92.35ZM126.42,127.9c0-1.01.15-1.89.44-2.64.29-.76.68-1.39,1.17-1.89.48-.5,1.04-.87,1.67-1.12.63-.25,1.28-.37,1.94-.37,1.54,0,2.72.48,3.54,1.45.82.95,1.23,2.41,1.23,4.38v.35c0,.13,0,.26-.02.37h-7.83c.09,1.19.43,2.09,1.03,2.71.6.62,1.54.92,2.82.92.72,0,1.32-.06,1.8-.18.5-.13.87-.26,1.12-.37l.29,1.72c-.25.13-.69.27-1.32.42-.62.15-1.32.22-2.11.22-1,0-1.86-.15-2.6-.44-.72-.31-1.31-.73-1.78-1.25s-.82-1.15-1.06-1.87c-.22-.73-.33-1.53-.33-2.4ZM134.27,126.78c.01-.92-.22-1.68-.7-2.27-.47-.6-1.12-.9-1.96-.9-.47,0-.89.1-1.25.29-.35.18-.65.41-.9.7-.25.29-.45.63-.59,1.01-.13.38-.22.77-.26,1.17h5.68ZM139.34,122.49c.47-.12,1.09-.24,1.87-.37.78-.13,1.67-.2,2.68-.2.91,0,1.67.13,2.27.4.6.25,1.08.61,1.43,1.08.37.45.62,1,.77,1.65.15.65.22,1.36.22,2.13v6.42h-2.05v-5.98c0-.7-.05-1.31-.15-1.8-.09-.5-.24-.9-.46-1.21-.22-.31-.51-.53-.88-.66-.37-.15-.82-.22-1.36-.22-.22,0-.45,0-.68.02s-.46.04-.68.07c-.21.01-.4.04-.57.07-.16.03-.28.05-.35.07v9.66h-2.05v-11.11ZM156.95,133.86c-.92,0-1.74-.15-2.44-.44-.69-.29-1.28-.7-1.76-1.23-.47-.53-.82-1.15-1.06-1.87-.24-.73-.35-1.54-.35-2.42s.12-1.69.37-2.42c.26-.73.63-1.36,1.1-1.89.47-.54,1.04-.96,1.72-1.25.69-.31,1.45-.46,2.29-.46.51,0,1.03.04,1.54.13s1.01.23,1.47.42l-.46,1.74c-.31-.15-.67-.26-1.08-.35-.4-.09-.82-.13-1.28-.13-1.14,0-2.02.36-2.64,1.08-.6.72-.9,1.77-.9,3.15,0,.62.07,1.18.2,1.69.15.51.37.95.66,1.32.31.37.7.65,1.17.86.47.19,1.04.29,1.72.29.54,0,1.03-.05,1.47-.15.44-.1.79-.21,1.03-.33l.29,1.72c-.12.07-.29.15-.51.22-.22.06-.47.11-.75.15-.28.06-.58.1-.9.13-.31.04-.61.07-.9.07ZM161.56,127.9c0-1.01.15-1.89.44-2.64.29-.76.68-1.39,1.17-1.89.48-.5,1.04-.87,1.67-1.12.63-.25,1.28-.37,1.94-.37,1.54,0,2.72.48,3.54,1.45.82.95,1.23,2.41,1.23,4.38v.35c0,.13,0,.26-.02.37h-7.83c.09,1.19.43,2.09,1.03,2.71.6.62,1.54.92,2.82.92.72,0,1.32-.06,1.8-.18.5-.13.87-.26,1.12-.37l.29,1.72c-.25.13-.69.27-1.32.42-.62.15-1.32.22-2.11.22-1,0-1.86-.15-2.6-.44-.72-.31-1.31-.73-1.78-1.25-.47-.53-.82-1.15-1.06-1.87-.22-.73-.33-1.53-.33-2.4ZM169.42,126.78c.01-.92-.22-1.68-.7-2.27-.47-.6-1.12-.9-1.96-.9-.47,0-.89.1-1.25.29-.35.18-.65.41-.9.7-.25.29-.45.63-.59,1.01-.13.38-.22.77-.26,1.17h5.68Z"/>
  </g>
  <g>
    <path class="cls-2" d="M70.84,0H31.38l12.33,17.96,23.3,32.04h35.36V0h-31.53Z"/>
    <path class="cls-1" d="M100.23,99.88l39.43.12-12.33-17.96-22.37-32.04h-37.6v50h16.3l16.57-.12Z"/>
    <path class="cls-4" d="M70.59,100H31.37l35.63-50L99.93,0h39.44l-68.78,100Z"/>
  </g>
</svg>