<?xml version="1.0" encoding="UTF-8"?>
<svg id="Layer_1" xmlns="http://www.w3.org/2000/svg" xmlns:xlink="http://www.w3.org/1999/xlink" version="1.1" viewBox="0 0 176.2 147.9">
  <!-- Generator: Adobe Illustrator 29.4.0, SVG Export Plug-In . SVG Version: 2.1.0 Build 152)  -->
  <defs>
    <style>
      .st0 {
        fill: url(#linear-gradient);
      }

      .st1 {
        fill: #ec1696;
      }

      .st2 {
        fill: #010068;
      }

      .st3 {
        fill: #0b1926;
        isolation: isolate;
        opacity: 0;
      }

      .st4 {
        fill: #ff61c0;
      }
    </style>
    <linearGradient id="linear-gradient" x1="100.5" y1="97.4" x2="73" y2="65.1" gradientTransform="translate(0 116.4) scale(1 -1)" gradientUnits="userSpaceOnUse">
      <stop offset=".2" stop-color="#ff2aaa"/>
      <stop offset=".3" stop-color="#f228a1"/>
      <stop offset=".5" stop-color="#d0218a"/>
      <stop offset=".6" stop-color="#991665"/>
      <stop offset=".9" stop-color="#4d0832"/>
      <stop offset="1" stop-color="#260017"/>
    </linearGradient>
  </defs>
  <g>
    <path class="st1" d="M112.5,58.3c-9.4-6.7-18.9-13.4-28.4-20.1-9.5-6.8-19-13.5-28.4-20.3v80.6c18.9-13.4,37.9-26.8,56.8-40.2Z"/>
    <path class="st0" d="M120.5,41c-.2-11.9-10.8-21-20.1-22.8-1.4-.3-2.6-.3-3.4-.3h-41.2c9.4,6.8,18.9,13.5,28.4,20.3,9.5,6.8,19,13.5,28.4,20.1,1.4-1.3,8.2-7.8,8-17.4Z"/>
    <path class="st3" d="M120.5,41c-.2-11.9-10.8-21-20.1-22.8-1.4-.3-2.6-.3-3.4-.3h-41.2c9.4,6.8,18.9,13.5,28.4,20.3,9.5,6.8,19,13.5,28.4,20.1,1.4-1.3,8.2-7.8,8-17.4Z"/>
    <path class="st4" d="M120.5,75.3c.1-4.3-1.3-7.8-1.8-8.8-1.9-4.3-4.7-7-6.3-8.2-18.9,13.4-37.9,26.8-56.8,40.2,11.5,0,23,0,34.6,0,2.3,0,4.5,0,6.7,0,.5,0,1.9,0,3.6-.4,10-1.9,19.7-11.9,20-22.7Z"/>
  </g>
  <g>
    <g>
      <path class="st2" d="M16.8,115.3c-1.6,0-2.8.5-3.5,1.4-.7.9-1.1,2.2-1.1,3.7s0,1.5.3,2.1c.2.6.5,1.2.8,1.6.4.5.8.8,1.4,1,.5.2,1.2.4,1.9.4s.7,0,1,0c.3,0,.5,0,.7,0v-5.4h3.5v7.7c-.4.2-1.1.3-2,.5-.9.2-2.1.3-3.4.3s-2.2-.2-3.2-.5c-1-.4-1.8-.9-2.4-1.6s-1.2-1.5-1.6-2.5c-.4-1-.6-2.2-.6-3.4s.2-2.5.6-3.5c.4-1,1-1.9,1.7-2.6.7-.7,1.5-1.2,2.5-1.6s2-.5,3.1-.5,1.4,0,2,.1,1.1.2,1.5.3c.4.1.8.3,1.1.4.3.1.5.2.6.3l-1,2.8c-.5-.3-1-.5-1.7-.7s-1.3-.3-2-.3Z"/>
      <path class="st2" d="M31.9,119.3c-.3,0-.7-.2-1.1-.2-.4,0-.8-.1-1.3-.1s-.5,0-.8,0c-.3,0-.5,0-.7.1v9.1h-3.4v-11.2c.6-.2,1.3-.4,2.1-.6.8-.2,1.7-.3,2.7-.3s.4,0,.7,0c.3,0,.5,0,.8,0s.5,0,.8.1c.3,0,.5.1.7.2l-.6,2.8Z"/>
      <path class="st2" d="M38.3,116c1,0,1.8.1,2.5.3.7.2,1.2.5,1.6,1,.4.4.7.9.8,1.5s.2,1.3.2,2v7c-.5.1-1.1.2-2,.4-.9.1-1.9.2-3.1.2s-1.5,0-2.1-.2c-.6-.1-1.2-.4-1.6-.7-.5-.3-.8-.7-1-1.2-.2-.5-.4-1.1-.4-1.8s.1-1.3.4-1.8c.3-.5.6-.9,1.1-1.1s1-.5,1.6-.6c.6-.1,1.2-.2,1.9-.2s.8,0,1.2,0c.3,0,.6,0,.8.1v-.3c0-.6-.2-1-.5-1.4-.3-.3-.9-.5-1.8-.5s-1.1,0-1.7.1c-.6,0-1,.2-1.4.3l-.4-2.7c.2,0,.4-.1.7-.2.3,0,.6-.1,1-.2.3,0,.7,0,1.1-.1.4,0,.8,0,1.2,0ZM38.6,125.9c.3,0,.6,0,.9,0,.3,0,.5,0,.7,0v-2.5c-.1,0-.3,0-.6,0-.3,0-.5,0-.7,0s-.6,0-.9,0c-.3,0-.5.1-.7.2-.2.1-.4.2-.5.4-.1.2-.2.4-.2.7,0,.5.2.9.5,1.1.4.2.8.3,1.5.3Z"/>
      <path class="st2" d="M46.7,128.2v-15.6h10.5v3h-6.9v3.3h6.2v3h-6.2v6.4h-3.5Z"/>
      <path class="st2" d="M63.9,119.7l2.4-3.3h3.5l-4.1,5.8c.9,1.1,1.8,2.2,2.5,3.2.7,1.1,1.3,2,1.8,2.9h-3.6c-.1-.2-.3-.5-.5-.8-.2-.3-.4-.7-.6-1.1-.2-.4-.5-.7-.7-.9-.2-.3-.5-.5-.7-.7-.2.2-.5.4-.7.6s-.5.5-.7.9c-.2.4-.4.7-.6,1-.2.3-.4.7-.5,1h-3.4c.2-.4.4-.8.7-1.3s.6-1,1-1.6.8-1.1,1.2-1.6c.4-.5.9-1,1.3-1.5-.7-1-1.4-2.1-2.1-3-.7-1-1.4-1.9-2-2.9h3.6l2.3,3.3Z"/>
    </g>
    <g>
      <path class="st2" d="M77,128.3c-.3,0-.7,0-1,0-.4,0-.7,0-1.1,0-.4,0-.7,0-1.1-.1s-.7-.1-1-.2v-15.1c.3,0,.6-.1,1-.2s.7,0,1.1-.1c.4,0,.7,0,1.1,0s.7,0,1,0c.9,0,1.7,0,2.5.2.8.1,1.5.4,2,.7s1,.7,1.4,1.3c.3.5.5,1.2.5,1.9s-.2,1.6-.6,2.1c-.4.5-.9,1-1.6,1.2.9.3,1.6.7,2.2,1.3.5.6.8,1.4.8,2.5,0,1.6-.6,2.7-1.7,3.5-1.1.8-3,1.2-5.5,1.2ZM75,119.2h2.3c.5,0,1.1,0,1.5-.1.5,0,.9-.2,1.2-.4.4-.2.6-.5.8-.8s.3-.7.3-1.2-.1-.8-.3-1.1c-.2-.3-.5-.6-.9-.7s-.8-.3-1.3-.4-1-.1-1.6-.1-1,0-1.3,0-.6,0-.9,0v4.8ZM75,120.9v5.5c.2,0,.4,0,.6,0,.2,0,.4,0,.7,0s.6,0,.9,0c.6,0,1.3,0,1.8-.1.6,0,1.1-.2,1.5-.4s.8-.5,1-.9c.3-.4.4-.8.4-1.4s0-.9-.3-1.3c-.2-.4-.5-.6-.8-.8-.4-.2-.8-.4-1.3-.5-.5,0-1.1-.1-1.7-.1h-2.8Z"/>
      <path class="st2" d="M91.5,116.2c.2,0,.4,0,.6,0,.2,0,.5,0,.7,0,.2,0,.4,0,.6.1.2,0,.3,0,.4.1l-.4,1.8c-.2,0-.4-.1-.8-.2-.4,0-.9-.1-1.5-.1s-.8,0-1.2.1c-.4,0-.6.1-.8.2v9.8h-2.1v-11.2c.5-.2,1.1-.3,1.8-.5.7-.2,1.6-.2,2.5-.2Z"/>
      <path class="st2" d="M99.7,116.2c.8,0,1.5.1,2.1.3s1,.5,1.4.9c.4.4.6.9.8,1.4.1.5.2,1.2.2,1.8v7.3c-.2,0-.4,0-.8.1-.3,0-.7.1-1.1.1s-.8,0-1.3.1c-.5,0-.9,0-1.4,0-.7,0-1.3,0-1.8-.2-.6-.1-1-.3-1.4-.6s-.7-.7-.9-1.2c-.2-.5-.3-1.1-.3-1.7s.1-1.2.4-1.7c.3-.5.6-.8,1.1-1.1.5-.3,1-.5,1.6-.6.6-.1,1.2-.2,1.9-.2s.4,0,.7,0c.2,0,.4,0,.6,0,.2,0,.4,0,.5.1.1,0,.3,0,.3,0v-.6c0-.3,0-.7-.1-1s-.2-.6-.4-.9-.5-.5-.8-.6c-.3-.2-.8-.2-1.3-.2s-1.3,0-1.8.1c-.5,0-.9.2-1.2.3l-.2-1.7c.3-.1.7-.2,1.4-.3.6-.1,1.3-.2,2-.2ZM99.8,126.7c.5,0,.9,0,1.3,0s.7,0,1-.1v-3.5c-.2,0-.4-.1-.7-.2-.3,0-.7,0-1.2,0s-.6,0-1,0c-.4,0-.7.1-1,.3-.3.1-.5.3-.7.6s-.3.6-.3,1c0,.8.2,1.3.7,1.6.5.3,1.1.4,2,.4Z"/>
      <path class="st2" d="M107.6,116.8c.5-.1,1.1-.2,1.9-.4s1.7-.2,2.7-.2,1.7.1,2.3.4c.6.3,1.1.6,1.5,1.1s.6,1,.8,1.7c.2.7.2,1.4.2,2.2v6.6h-2.1v-6.1c0-.7,0-1.3-.1-1.8,0-.5-.3-.9-.5-1.2s-.5-.5-.9-.7c-.4-.1-.8-.2-1.4-.2s-.5,0-.7,0c-.2,0-.5,0-.7,0s-.4,0-.6,0c-.2,0-.3,0-.4,0v9.9h-2.1v-11.4Z"/>
      <path class="st2" d="M128.1,111.1l2.1-.4v17.1c-.5.1-1.1.3-1.8.4-.8.1-1.6.2-2.6.2s-1.7-.1-2.4-.4c-.7-.3-1.3-.7-1.8-1.2-.5-.5-.9-1.2-1.2-1.9-.3-.8-.4-1.6-.4-2.6s.1-1.7.3-2.5c.2-.8.6-1.4,1-1.9.5-.5,1-1,1.7-1.3.7-.3,1.4-.5,2.2-.5s1.3,0,1.8.3c.5.2.9.4,1.2.5v-5.9ZM128.1,119c-.3-.2-.6-.4-1.1-.6-.5-.2-1-.3-1.6-.3s-1.1.1-1.5.3-.8.5-1,.9c-.3.4-.5.8-.6,1.4s-.2,1.1-.2,1.7c0,1.4.3,2.4,1,3.2s1.6,1.1,2.7,1.1,1,0,1.4,0,.7-.1.9-.2v-7.4Z"/>
      <path class="st2" d="M138.1,121.8c.5.3.9.8,1.4,1.3.5.5,1,1.1,1.5,1.7.5.6.9,1.2,1.4,1.8.4.6.8,1.2,1.1,1.7h-2.5c-.3-.5-.7-1.1-1.1-1.6-.4-.5-.8-1.1-1.3-1.6-.5-.5-.9-1-1.4-1.4-.5-.4-.9-.8-1.3-1.1v5.6h-2.1v-17.1l2.1-.4v10.7l1.2-1.2c.4-.4.9-.9,1.3-1.3.4-.5.8-.9,1.2-1.3s.7-.8,1-1.1h2.5c-.3.4-.7.8-1.1,1.2-.4.5-.8.9-1.3,1.4s-.9.9-1.3,1.4c-.4.5-.9.9-1.2,1.3Z"/>
      <path class="st2" d="M146.6,114.4c-.4,0-.7-.1-1-.4-.3-.2-.4-.6-.4-1s.1-.8.4-1,.6-.4,1-.4.7.1,1,.4.4.6.4,1-.1.8-.4,1c-.3.2-.6.4-1,.4ZM147.7,128.2h-2.1v-11.7h2.1v11.7Z"/>
      <path class="st2" d="M153.2,116.5h4.4v1.8h-4.4v5.4c0,.6,0,1.1.1,1.5s.2.7.4.9c.2.2.4.4.7.5s.6.1.9.1c.6,0,1.1,0,1.5-.2.4-.1.6-.2.8-.3l.4,1.7c-.2.1-.6.2-1.1.4-.5.2-1.1.2-1.8.2s-1.5-.1-2-.3c-.5-.2-.9-.5-1.2-.9s-.5-.9-.7-1.5c-.1-.6-.2-1.3-.2-2.1v-10.5l2.1-.4v3.6Z"/>
      <path class="st2" d="M163.1,126.7c.9,0,1.5-.1,1.9-.3.4-.2.6-.6.6-1.1s-.2-.9-.6-1.2c-.4-.3-1.1-.6-2-1-.5-.2-.9-.4-1.3-.6-.4-.2-.8-.4-1.1-.7-.3-.3-.5-.6-.7-.9-.2-.4-.3-.8-.3-1.3,0-1,.4-1.9,1.1-2.5.8-.6,1.8-.9,3.1-.9s.7,0,1,0c.3,0,.6,0,.9.1.3,0,.5.1.8.2.2,0,.4.1.5.2l-.4,1.8c-.2-.1-.6-.2-1.1-.4-.5-.1-1.1-.2-1.7-.2s-1.1.1-1.5.3c-.4.2-.7.6-.7,1.1s0,.5.1.7c0,.2.2.4.5.5.2.2.5.3.8.4.3.1.7.3,1.1.4.6.2,1.1.4,1.5.6.4.2.8.4,1.1.7.3.3.5.6.7,1s.2.9.2,1.4c0,1.1-.4,1.9-1.2,2.5-.8.6-1.9.8-3.4.8s-1.8,0-2.4-.3c-.6-.2-1-.3-1.2-.4l.4-1.8c.2,0,.6.2,1.1.4.5.2,1.2.3,2.1.3Z"/>
    </g>
  </g>
</svg>