<?xml version="1.0" encoding="UTF-8"?>
<svg id="Layer_1" data-name="Layer 1" xmlns="http://www.w3.org/2000/svg" xmlns:xlink="http://www.w3.org/1999/xlink" viewBox="0 0 161.43 114.5">
  <defs>
    <style>
      .cls-1 {
        fill: url(#linear-gradient);
      }

      .cls-2 {
        fill: #ec1696;
      }

      .cls-3 {
        font-family: Ubuntu-Regular, Ubuntu;
        font-size: 22.23px;
      }

      .cls-3, .cls-4 {
        fill: #010068;
      }

      .cls-5 {
        fill: #0b1926;
        isolation: isolate;
        opacity: .05;
      }

      .cls-6 {
        fill: #ff61c0;
      }
    </style>
    <linearGradient id="linear-gradient" x1="93.13" y1="79.5" x2="65.58" y2="47.2" gradientTransform="translate(0 80.6) scale(1 -1)" gradientUnits="userSpaceOnUse">
      <stop offset=".21" stop-color="#ff2aaa"/>
      <stop offset=".31" stop-color="#f228a1"/>
      <stop offset=".45" stop-color="#d0218a"/>
      <stop offset=".65" stop-color="#991665"/>
      <stop offset=".89" stop-color="#4d0832"/>
      <stop offset=".98" stop-color="#260017"/>
    </linearGradient>
  </defs>
  <g>
    <path class="cls-2" d="M105.1,40.43c-9.45-6.67-18.91-13.38-28.4-20.13-9.51-6.77-18.98-13.54-28.4-20.3v80.6c18.93-13.39,37.87-26.78,56.8-40.17Z"/>
    <path class="cls-1" d="M113.12,23.08c-.17-11.88-10.82-21.02-20.13-22.75C91.61.07,90.42,0,89.55,0h-41.25c9.42,6.76,18.89,13.53,28.4,20.3,9.49,6.75,18.95,13.46,28.4,20.13,1.45-1.34,8.16-7.82,8.02-17.35Z"/>
    <path class="cls-5" d="M113.12,23.08c-.17-11.88-10.82-21.02-20.13-22.75C91.61.07,90.42,0,89.55,0h-41.25c9.42,6.76,18.89,13.53,28.4,20.3,9.49,6.75,18.95,13.46,28.4,20.13,1.45-1.34,8.16-7.82,8.02-17.35Z"/>
    <path class="cls-6" d="M113.12,57.45c.11-4.29-1.29-7.78-1.75-8.81-1.87-4.34-4.71-6.97-6.27-8.22-18.93,13.39-37.87,26.78-56.8,40.17,11.52,0,23.05-.01,34.57-.02,2.28-.02,4.52-.03,6.68-.05.52,0,1.87-.02,3.6-.36,10.02-1.95,19.71-11.92,19.97-22.72Z"/>
  </g>
  <g>
    <g>
      <path class="cls-4" d="M8.29,97.39c-1.64,0-2.82.45-3.55,1.36-.73.91-1.09,2.15-1.09,3.73,0,.77.09,1.46.27,2.08.18.62.45,1.16.81,1.61.36.45.81.8,1.35,1.05.54.25,1.17.37,1.89.37.39,0,.72,0,1-.02.28-.01.52-.04.73-.09v-5.43h3.51v7.73c-.42.17-1.1.34-2.03.53-.93.19-2.08.28-3.45.28-1.17,0-2.23-.18-3.19-.54-.95-.36-1.77-.89-2.44-1.58s-1.2-1.54-1.57-2.54c-.37-1.01-.55-2.15-.55-3.45s.2-2.46.61-3.47c.41-1.01.96-1.86,1.67-2.56.71-.7,1.54-1.23,2.49-1.59s1.97-.54,3.05-.54c.74,0,1.4.05,1.99.15s1.1.21,1.53.34c.43.13.78.26,1.06.39.28.13.48.24.6.31l-1.01,2.82c-.48-.25-1.03-.48-1.66-.66s-1.3-.28-2.04-.28Z"/>
      <path class="cls-4" d="M23.4,101.43c-.3-.08-.65-.15-1.06-.24-.41-.08-.84-.12-1.31-.12-.21,0-.46.02-.75.06-.29.04-.51.08-.66.12v9.05h-3.36v-11.22c.6-.21,1.31-.41,2.13-.6.82-.19,1.73-.28,2.74-.28.18,0,.4.01.65.03.25.02.51.05.77.09s.51.08.77.13c.26.05.47.12.65.19l-.56,2.77Z"/>
      <path class="cls-4" d="M29.8,98.14c.99,0,1.82.11,2.48.34.66.22,1.19.55,1.59.97.4.42.68.93.84,1.53s.25,1.27.25,2v6.98c-.48.11-1.15.23-2,.37-.86.14-1.89.21-3.11.21-.77,0-1.46-.07-2.08-.2-.62-.13-1.16-.36-1.61-.66-.45-.31-.8-.71-1.04-1.21-.24-.5-.36-1.1-.36-1.82s.14-1.28.42-1.76c.28-.48.65-.86,1.11-1.15s1-.49,1.6-.62c.6-.13,1.22-.19,1.87-.19.44,0,.82.02,1.16.06.34.04.61.09.82.15v-.32c0-.57-.17-1.03-.52-1.37-.35-.34-.95-.52-1.8-.52-.57,0-1.13.04-1.69.12-.56.08-1.04.2-1.44.35l-.43-2.7c.19-.06.44-.12.73-.19.29-.07.61-.13.96-.18.35-.05.71-.1,1.09-.14.38-.04.77-.06,1.16-.06ZM30.07,107.96c.33,0,.65,0,.95-.02.3-.01.54-.04.72-.07v-2.54c-.14-.03-.34-.06-.61-.09-.27-.03-.52-.04-.74-.04-.32,0-.61.02-.89.06-.28.04-.52.11-.73.21-.21.11-.38.25-.5.43-.12.18-.18.41-.18.67,0,.53.18.89.53,1.09.35.2.84.3,1.45.3Z"/>
      <path class="cls-4" d="M38.22,110.3v-15.61h10.45v2.95h-6.94v3.27h6.17v2.95h-6.17v6.44h-3.51Z"/>
      <path class="cls-4" d="M55.39,101.77l2.35-3.32h3.47l-4.11,5.76c.94,1.08,1.78,2.16,2.51,3.23.73,1.07,1.32,2.02,1.76,2.86h-3.6c-.12-.23-.27-.51-.45-.85-.18-.34-.38-.69-.61-1.06-.23-.37-.46-.68-.71-.93-.25-.26-.49-.49-.72-.7-.23.19-.46.41-.69.64s-.46.53-.67.88c-.21.35-.42.7-.62,1.04-.2.34-.38.67-.54.97h-3.41c.19-.37.44-.81.75-1.33s.65-1.04,1.02-1.59.77-1.08,1.2-1.59c.43-.52.85-1,1.27-1.45-.74-1.05-1.44-2.05-2.12-3.02-.68-.96-1.35-1.92-2.02-2.86h3.63l2.33,3.32Z"/>
    </g>
    <text class="cls-3" transform="translate(62.63 110.3)"><tspan x="0" y="0">BrandKits</tspan></text>
  </g>
</svg>