<?xml version="1.0" encoding="UTF-8"?>
<svg id="Layer_1" data-name="Layer 1" xmlns="http://www.w3.org/2000/svg" version="1.1" viewBox="0 0 64 80">
  <defs>
    <style>
      .cls-1 {
        fill: #000;
        stroke-width: 0px;
      }
    </style>
  </defs>
  <path class="cls-1" d="M10.7,5.3c-2.9,0-5.3,2.4-5.3,5.3v42.7c0,2.9,2.4,5.3,5.3,5.3h42.7c2.9,0,5.3-2.4,5.3-5.3V10.7c0-2.9-2.4-5.3-5.3-5.3H10.7ZM13.3,13.3c20.6,0,37.3,16.5,37.3,37.3h-6.2c0-17.3-13.9-31.2-31.1-31.2v-6.1h0ZM13.3,25.6c13.7,0,24.9,11.2,24.9,25.1h-6.2c0-10.4-8.4-18.7-18.7-18.7v-6.4h0ZM18.8,39.7c3,0,5.4,2.4,5.4,5.3s-2.4,5.6-5.4,5.6-5.4-2.7-5.4-5.6,2.4-5.3,5.4-5.3Z"/>
</svg>